<svg width="70" height="21" viewBox="0 0 70 21" fill="none" xmlns="http://www.w3.org/2000/svg">
<rect width="69" height="20" transform="translate(0.226562 0.226562)" fill="#07864B"/>
<path d="M12.2266 5.22656C9.46656 5.22656 7.22656 7.46656 7.22656 10.2266C7.22656 12.9866 9.46656 15.2266 12.2266 15.2266C14.9866 15.2266 17.2266 12.9866 17.2266 10.2266C17.2266 7.46656 14.9866 5.22656 12.2266 5.22656ZM10.8716 12.3716L9.07656 10.5766C8.88156 10.3816 8.88156 10.0666 9.07656 9.87156C9.27156 9.67656 9.58656 9.67656 9.78156 9.87156L11.2266 11.3116L14.6666 7.87156C14.8616 7.67656 15.1766 7.67656 15.3716 7.87156C15.5666 8.06656 15.5666 8.38156 15.3716 8.57656L11.5766 12.3716C11.3866 12.5666 11.0666 12.5666 10.8716 12.3716Z" fill="white"/>
<path d="M27.1966 12.8966H24.4166L23.9566 14.2266H22.4866L24.9966 7.23656H26.6266L29.1366 14.2266H27.6566L27.1966 12.8966ZM26.8166 11.7766L25.8066 8.85656L24.7966 11.7766H26.8166ZM31.4748 9.48656C31.6548 9.23323 31.9014 9.02323 32.2148 8.85656C32.5348 8.68323 32.8981 8.59656 33.3048 8.59656C33.7781 8.59656 34.2048 8.71323 34.5848 8.94656C34.9714 9.1799 35.2748 9.51323 35.4948 9.94656C35.7214 10.3732 35.8348 10.8699 35.8348 11.4366C35.8348 12.0032 35.7214 12.5066 35.4948 12.9466C35.2748 13.3799 34.9714 13.7166 34.5848 13.9566C34.2048 14.1966 33.7781 14.3166 33.3048 14.3166C32.8981 14.3166 32.5381 14.2332 32.2248 14.0666C31.9181 13.8999 31.6681 13.6899 31.4748 13.4366V16.8666H30.0748V8.68656H31.4748V9.48656ZM34.4048 11.4366C34.4048 11.1032 34.3348 10.8166 34.1948 10.5766C34.0614 10.3299 33.8814 10.1432 33.6548 10.0166C33.4348 9.8899 33.1948 9.82656 32.9348 9.82656C32.6814 9.82656 32.4414 9.89323 32.2148 10.0266C31.9948 10.1532 31.8148 10.3399 31.6748 10.5866C31.5414 10.8332 31.4748 11.1232 31.4748 11.4566C31.4748 11.7899 31.5414 12.0799 31.6748 12.3266C31.8148 12.5732 31.9948 12.7632 32.2148 12.8966C32.4414 13.0232 32.6814 13.0866 32.9348 13.0866C33.1948 13.0866 33.4348 13.0199 33.6548 12.8866C33.8814 12.7532 34.0614 12.5632 34.1948 12.3166C34.3348 12.0699 34.4048 11.7766 34.4048 11.4366ZM38.2521 9.48656C38.4321 9.23323 38.6788 9.02323 38.9921 8.85656C39.3121 8.68323 39.6754 8.59656 40.0821 8.59656C40.5554 8.59656 40.9821 8.71323 41.3621 8.94656C41.7488 9.1799 42.0521 9.51323 42.2721 9.94656C42.4988 10.3732 42.6121 10.8699 42.6121 11.4366C42.6121 12.0032 42.4988 12.5066 42.2721 12.9466C42.0521 13.3799 41.7488 13.7166 41.3621 13.9566C40.9821 14.1966 40.5554 14.3166 40.0821 14.3166C39.6754 14.3166 39.3154 14.2332 39.0021 14.0666C38.6954 13.8999 38.4454 13.6899 38.2521 13.4366V16.8666H36.8521V8.68656H38.2521V9.48656ZM41.1821 11.4366C41.1821 11.1032 41.1121 10.8166 40.9721 10.5766C40.8388 10.3299 40.6588 10.1432 40.4321 10.0166C40.2121 9.8899 39.9721 9.82656 39.7121 9.82656C39.4588 9.82656 39.2188 9.89323 38.9921 10.0266C38.7721 10.1532 38.5921 10.3399 38.4521 10.5866C38.3188 10.8332 38.2521 11.1232 38.2521 11.4566C38.2521 11.7899 38.3188 12.0799 38.4521 12.3266C38.5921 12.5732 38.7721 12.7632 38.9921 12.8966C39.2188 13.0232 39.4588 13.0866 39.7121 13.0866C39.9721 13.0866 40.2121 13.0199 40.4321 12.8866C40.6588 12.7532 40.8388 12.5632 40.9721 12.3166C41.1121 12.0699 41.1821 11.7766 41.1821 11.4366ZM45.0295 6.82656V14.2266H43.6295V6.82656H45.0295ZM47.1227 8.02656C46.876 8.02656 46.6693 7.9499 46.5027 7.79656C46.3427 7.63656 46.2627 7.4399 46.2627 7.20656C46.2627 6.97323 46.3427 6.7799 46.5027 6.62656C46.6693 6.46656 46.876 6.38656 47.1227 6.38656C47.3693 6.38656 47.5727 6.46656 47.7327 6.62656C47.8993 6.7799 47.9827 6.97323 47.9827 7.20656C47.9827 7.4399 47.8993 7.63656 47.7327 7.79656C47.5727 7.9499 47.3693 8.02656 47.1227 8.02656ZM47.8127 8.68656V14.2266H46.4127V8.68656H47.8127ZM54.3459 11.3366C54.3459 11.5366 54.3325 11.7166 54.3059 11.8766H50.2559C50.2892 12.2766 50.4292 12.5899 50.6759 12.8166C50.9225 13.0432 51.2259 13.1566 51.5859 13.1566C52.1059 13.1566 52.4759 12.9332 52.6959 12.4866H54.2059C54.0459 13.0199 53.7392 13.4599 53.2859 13.8066C52.8325 14.1466 52.2759 14.3166 51.6159 14.3166C51.0825 14.3166 50.6025 14.1999 50.1759 13.9666C49.7559 13.7266 49.4259 13.3899 49.1859 12.9566C48.9525 12.5232 48.8359 12.0232 48.8359 11.4566C48.8359 10.8832 48.9525 10.3799 49.1859 9.94656C49.4192 9.51323 49.7459 9.1799 50.1659 8.94656C50.5859 8.71323 51.0692 8.59656 51.6159 8.59656C52.1425 8.59656 52.6125 8.7099 53.0259 8.93656C53.4459 9.16323 53.7692 9.48656 53.9959 9.90656C54.2292 10.3199 54.3459 10.7966 54.3459 11.3366ZM52.8959 10.9366C52.8892 10.5766 52.7592 10.2899 52.5059 10.0766C52.2525 9.85656 51.9425 9.74656 51.5759 9.74656C51.2292 9.74656 50.9359 9.85323 50.6959 10.0666C50.4625 10.2732 50.3192 10.5632 50.2659 10.9366H52.8959ZM55.0077 11.4366C55.0077 10.8766 55.1177 10.3799 55.3377 9.94656C55.5644 9.51323 55.8711 9.1799 56.2577 8.94656C56.6444 8.71323 57.0744 8.59656 57.5477 8.59656C57.9077 8.59656 58.2511 8.67656 58.5777 8.83656C58.9044 8.9899 59.1644 9.19656 59.3577 9.45656V6.82656H60.7777V14.2266H59.3577V13.4066C59.1844 13.6799 58.9411 13.8999 58.6277 14.0666C58.3144 14.2332 57.9511 14.3166 57.5377 14.3166C57.0711 14.3166 56.6444 14.1966 56.2577 13.9566C55.8711 13.7166 55.5644 13.3799 55.3377 12.9466C55.1177 12.5066 55.0077 12.0032 55.0077 11.4366ZM59.3677 11.4566C59.3677 11.1166 59.3011 10.8266 59.1677 10.5866C59.0344 10.3399 58.8544 10.1532 58.6277 10.0266C58.4011 9.89323 58.1577 9.82656 57.8977 9.82656C57.6377 9.82656 57.3977 9.8899 57.1777 10.0166C56.9577 10.1432 56.7777 10.3299 56.6377 10.5766C56.5044 10.8166 56.4377 11.1032 56.4377 11.4366C56.4377 11.7699 56.5044 12.0632 56.6377 12.3166C56.7777 12.5632 56.9577 12.7532 57.1777 12.8866C57.4044 13.0199 57.6444 13.0866 57.8977 13.0866C58.1577 13.0866 58.4011 13.0232 58.6277 12.8966C58.8544 12.7632 59.0344 12.5766 59.1677 12.3366C59.3011 12.0899 59.3677 11.7966 59.3677 11.4566Z" fill="white"/>
</svg>
