<svg width="45" height="46" viewBox="0 0 45 46" fill="none" xmlns="http://www.w3.org/2000/svg">
<path d="M40.8863 19.5878H39.376V19.51H22.501V27.01H33.0975C31.5516 31.3759 27.3975 34.51 22.501 34.51C16.2882 34.51 11.251 29.4728 11.251 23.26C11.251 17.0472 16.2882 12.01 22.501 12.01C25.3688 12.01 27.9779 13.0919 29.9644 14.8591L35.2679 9.55563C31.9191 6.4347 27.4397 4.51001 22.501 4.51001C12.1463 4.51001 3.75098 12.9053 3.75098 23.26C3.75098 33.6147 12.1463 42.01 22.501 42.01C32.8557 42.01 41.251 33.6147 41.251 23.26C41.251 22.0028 41.1216 20.7756 40.8863 19.5878Z" fill="#FFC107"/>
<path d="M5.91077 14.5328L12.0711 19.0506C13.738 14.9238 17.7748 12.01 22.4989 12.01C25.3667 12.01 27.9758 13.0919 29.9623 14.8591L35.2658 9.55563C31.917 6.4347 27.4376 4.51001 22.4989 4.51001C15.297 4.51001 9.05139 8.57595 5.91077 14.5328Z" fill="#FF3D00"/>
<path d="M22.5001 42.0097C27.3432 42.0097 31.7438 40.1562 35.071 37.1422L29.2679 32.2316C27.3221 33.7113 24.9445 34.5116 22.5001 34.5097C17.6232 34.5097 13.4822 31.4 11.9222 27.0603L5.80786 31.7712C8.91099 37.8434 15.2129 42.0097 22.5001 42.0097Z" fill="#4CAF50"/>
<path d="M40.8853 19.5873H39.375V19.5095H22.5V27.0095H33.0966C32.3571 29.0874 31.025 30.9031 29.265 32.2323L29.2678 32.2305L35.0709 37.1411C34.6603 37.5142 41.25 32.6345 41.25 23.2595C41.25 22.0023 41.1206 20.7751 40.8853 19.5873Z" fill="#1976D2"/>
</svg>
