<svg width="28" height="29" viewBox="0 0 28 29" fill="none" xmlns="http://www.w3.org/2000/svg">
<path fill-rule="evenodd" clip-rule="evenodd" d="M22.1667 3.89323C24.0997 3.89323 25.6667 5.46024 25.6667 7.39323V9.72657C25.6667 11.6596 24.0997 13.2266 22.1667 13.2266H21V15.5599H22.1667C24.0997 15.5599 25.6667 17.1269 25.6667 19.0599V21.3932C25.6667 23.3262 24.0997 24.8932 22.1667 24.8932H5.83337C3.90038 24.8932 2.33337 23.3262 2.33337 21.3932V19.0599C2.33337 17.1269 3.90038 15.5599 5.83337 15.5599H7.00004V13.2266H5.83337C3.90038 13.2266 2.33337 11.6596 2.33337 9.72657V7.39323C2.33337 5.46024 3.90038 3.89323 5.83337 3.89323H22.1667ZM22.1667 17.8932H5.83338C5.18904 17.8932 4.66671 18.4156 4.66671 19.0599V21.3932C4.66671 22.0376 5.18904 22.5599 5.83338 22.5599H22.1667C22.811 22.5599 23.3334 22.0376 23.3334 21.3932V19.0599C23.3334 18.4156 22.811 17.8932 22.1667 17.8932ZM8.16671 19.0599C8.81104 19.0599 9.33338 19.5822 9.33338 20.2266C9.33338 20.8709 8.81104 21.3932 8.16671 21.3932C7.52238 21.3932 7.00004 20.8709 7.00004 20.2266C7.00004 19.5822 7.52238 19.0599 8.16671 19.0599ZM18.6667 13.2266H9.33338V15.5599H18.6667V13.2266ZM22.1667 6.22657H5.83338C5.18904 6.22657 4.66671 6.7489 4.66671 7.39323V9.72657C4.66671 10.3709 5.18904 10.8932 5.83338 10.8932H22.1667C22.811 10.8932 23.3334 10.3709 23.3334 9.72657V7.39323C23.3334 6.7489 22.811 6.22657 22.1667 6.22657ZM8.16671 7.39323C8.81104 7.39323 9.33338 7.91557 9.33338 8.5599C9.33338 9.20423 8.81104 9.72657 8.16671 9.72657C7.52238 9.72657 7.00004 9.20423 7.00004 8.5599C7.00004 7.91557 7.52238 7.39323 8.16671 7.39323Z" fill="white"/>
</svg>
