<svg width="27" height="27" viewBox="0 0 27 27" fill="none" xmlns="http://www.w3.org/2000/svg">
<path fill-rule="evenodd" clip-rule="evenodd" d="M14.1432 2.5C15.8741 2.5 17.2889 3.853 17.3877 5.55904L17.3932 5.75V9H20.6432C22.3741 9 23.7889 10.353 23.8877 12.059L23.8932 12.25V20.9167C23.8932 22.6475 22.5402 24.0623 20.8342 24.1611L20.6432 24.1667H11.9766C10.2457 24.1667 8.83093 22.8137 8.73208 21.1076L8.72656 20.9167V17.6667H5.47656C3.74574 17.6667 2.33093 16.3137 2.23208 14.6076L2.22656 14.4167V5.75C2.22656 4.01918 3.57956 2.60437 5.2856 2.50552L5.47656 2.5H14.1432ZM15.2266 11.1667H11.9766C11.421 11.1667 10.9631 11.5849 10.9005 12.1237L10.8932 12.25V15.5H14.1432C14.6988 15.5 15.1567 15.0818 15.2193 14.543L15.2266 14.4167V11.1667Z" fill="white"/>
</svg>
