<svg width="304" height="289" viewBox="0 0 304 289" fill="none" xmlns="http://www.w3.org/2000/svg">
<g filter="url(#filter0_d_2_413)">
<path d="M257.508 147.335C201.113 116.815 109.99 116.815 53.9627 147.335C-2.06437 177.855 -1.76473 227.348 54.6245 257.867C111.014 288.387 202.149 288.393 258.176 257.867C314.203 227.342 313.897 177.861 257.508 147.335Z" fill="#F5F5F5"/>
<path d="M141.362 257.295L57 211.624L73.8612 202.459L158.242 248.16L141.362 257.295Z" fill="#E6E6E6"/>
<path d="M228.336 213.638V213.632L179.893 187.414H179.899L131.457 161.195L83.0146 134.977L34.8906 161.195L83.3268 187.414L131.769 213.632V213.638L180.212 239.856H180.205L228.648 266.074L276.778 239.856L228.336 213.638Z" fill="#E6E6E6"/>
<path d="M264.912 236.8L262.028 234.576C261.847 230.316 261.672 225.798 262.427 221.613C263.183 217.429 264.924 213.245 268.158 210.219C269.5 208.949 271.167 207.878 273.065 207.667C274.962 207.457 277.072 208.358 277.728 210.038C278.383 211.717 277.378 213.707 276.28 215.27C273.945 218.6 271.154 221.637 268.863 224.996C266.453 228.533 265.089 232.607 264.912 236.8Z" fill="#1489A9"/>
<path d="M264.911 237.379L267.795 239.603C269.93 235.383 272.87 231.468 276.934 228.764C278.384 227.918 279.739 226.938 280.979 225.838C282.141 224.667 282.952 223.052 282.615 221.49C282.184 219.477 279.906 218.148 277.715 218.136C275.523 218.125 273.476 219.166 271.784 220.477C266.559 224.451 263.6 231.204 264.911 237.379Z" fill="#1489A9"/>
<path opacity="0.3" d="M264.911 237.379L267.795 239.603C269.93 235.383 272.87 231.468 276.934 228.764C278.384 227.918 279.739 226.938 280.979 225.838C282.141 224.667 282.952 223.052 282.615 221.49C282.184 219.477 279.906 218.148 277.715 218.136C275.523 218.125 273.476 219.166 271.784 220.477C266.559 224.451 263.6 231.204 264.911 237.379Z" fill="black"/>
<path d="M263.285 235.782C263.218 235.78 263.155 235.754 263.108 235.709C263.061 235.664 263.035 235.604 263.035 235.542C263.154 229.221 264.671 217.54 273.485 210.377C273.51 210.356 273.539 210.341 273.571 210.331C273.602 210.321 273.635 210.317 273.668 210.319C273.701 210.322 273.734 210.33 273.763 210.344C273.793 210.358 273.819 210.377 273.841 210.4C273.863 210.424 273.879 210.451 273.89 210.48C273.9 210.51 273.905 210.541 273.902 210.572C273.9 210.603 273.891 210.633 273.876 210.661C273.862 210.689 273.841 210.713 273.816 210.734C270.071 213.759 263.828 221.016 263.535 235.571C263.528 235.629 263.499 235.683 263.453 235.722C263.407 235.76 263.347 235.782 263.285 235.782Z" fill="white"/>
<path d="M266.308 238.689C266.275 238.686 266.243 238.677 266.214 238.662C266.185 238.648 266.159 238.628 266.138 238.604C266.118 238.58 266.102 238.552 266.093 238.523C266.083 238.493 266.08 238.462 266.083 238.431C266.67 232.748 269.317 224.918 278.569 219.903C278.627 219.873 278.695 219.865 278.759 219.882C278.823 219.898 278.878 219.937 278.912 219.99C278.929 220.017 278.939 220.047 278.944 220.078C278.948 220.109 278.946 220.14 278.937 220.17C278.928 220.2 278.913 220.228 278.893 220.252C278.873 220.277 278.847 220.297 278.818 220.312C269.754 225.222 267.157 232.901 266.577 238.454C266.578 238.487 266.571 238.519 266.558 238.549C266.545 238.579 266.524 238.606 266.499 238.629C266.474 238.651 266.443 238.668 266.41 238.678C266.378 238.688 266.343 238.692 266.308 238.689Z" fill="white"/>
<path d="M38.8047 133.939C37.6748 132.927 36.3826 131.821 36.3076 130.358C36.3116 129.702 36.529 129.064 36.9306 128.527C37.3322 127.991 37.8989 127.582 38.555 127.356C39.2171 127.145 39.9178 127.062 40.615 127.111C41.3122 127.161 41.9916 127.341 42.6126 127.642C43.8493 128.254 44.9509 129.08 45.8588 130.077C48.5945 132.926 50.5748 136.34 51.6388 140.041C52.7029 143.743 52.8207 147.627 51.9827 151.379C51.9574 151.633 51.8733 151.879 51.7364 152.099C51.5994 152.319 51.413 152.509 51.1899 152.655C50.4346 153.03 49.5731 152.368 49.0612 151.73C47.9337 150.324 47.0876 148.738 46.5642 147.049C46.1085 145.626 46.3145 144.064 45.7464 142.724C44.3543 139.458 41.4952 136.351 38.8047 133.939Z" fill="#1489A9"/>
<path d="M50.5674 150.735C50.5278 150.736 50.4884 150.729 50.4517 150.715C50.4149 150.701 50.3816 150.681 50.3536 150.654C50.3256 150.628 50.3035 150.597 50.2888 150.562C50.274 150.528 50.2669 150.491 50.2677 150.454C50.2307 146.345 49.2189 142.294 47.3056 138.597C45.3924 134.899 42.6256 131.647 39.2059 129.076C39.1744 129.053 39.1482 129.024 39.1286 128.992C39.109 128.959 39.0965 128.923 39.0919 128.886C39.0872 128.849 39.0905 128.812 39.1015 128.776C39.1125 128.74 39.131 128.707 39.1559 128.678C39.1797 128.648 39.2096 128.624 39.2437 128.606C39.2778 128.587 39.3155 128.576 39.3545 128.571C39.3935 128.567 39.433 128.57 39.4708 128.58C39.5085 128.59 39.5437 128.608 39.5742 128.631C43.0674 131.254 45.8934 134.573 47.8468 138.348C49.8002 142.123 50.8319 146.258 50.867 150.454C50.8678 150.491 50.8607 150.528 50.8459 150.562C50.8312 150.597 50.8091 150.628 50.7811 150.654C50.7531 150.681 50.7198 150.701 50.683 150.715C50.6463 150.729 50.6069 150.736 50.5674 150.735Z" fill="white"/>
<path d="M46.8529 161.972C44.9802 162.557 42.558 162.171 41.4594 160.608C40.1609 158.771 40.9724 155.927 39.237 154.452C38.2694 153.621 36.8399 153.539 35.5539 153.281C34.2679 153.024 32.8321 152.368 32.6448 151.145C32.3889 149.53 34.5176 148.19 34.2117 146.575C33.9058 144.959 31.5774 144.491 30.8844 143.016C30.2602 141.676 31.3714 140.049 32.8446 139.546C34.3179 139.043 35.9659 139.388 37.4267 139.903C38.8874 140.418 40.3232 141.074 41.8776 141.267C43.432 141.46 45.361 141.155 46.5533 142.197C48.1389 143.59 47.2337 146.247 48.4573 147.927C49.2813 149.056 50.8357 149.448 52.0218 150.267C52.7595 150.768 53.3582 151.428 53.7677 152.191C54.1773 152.953 54.3856 153.797 54.3752 154.651C54.3378 156.506 53.2953 157.84 51.8095 158.905C50.2239 160.017 48.8069 161.381 46.8529 161.972Z" fill="#1489A9"/>
<path opacity="0.2" d="M46.8529 161.972C44.9802 162.557 42.558 162.171 41.4594 160.608C40.1609 158.771 40.9724 155.927 39.237 154.452C38.2694 153.621 36.8399 153.539 35.5539 153.281C34.2679 153.024 32.8321 152.368 32.6448 151.145C32.3889 149.53 34.5176 148.19 34.2117 146.575C33.9058 144.959 31.5774 144.491 30.8844 143.016C30.2602 141.676 31.3714 140.049 32.8446 139.546C34.3179 139.043 35.9659 139.388 37.4267 139.903C38.8874 140.418 40.3232 141.074 41.8776 141.267C43.432 141.46 45.361 141.155 46.5533 142.197C48.1389 143.59 47.2337 146.247 48.4573 147.927C49.2813 149.056 50.8357 149.448 52.0218 150.267C52.7595 150.768 53.3582 151.428 53.7677 152.191C54.1773 152.953 54.3856 153.797 54.3752 154.651C54.3378 156.506 53.2953 157.84 51.8095 158.905C50.2239 160.017 48.8069 161.381 46.8529 161.972Z" fill="black"/>
<path d="M45.9888 149.325V149.296C45.7017 148.91 45.4083 148.53 45.0961 148.161C42.2807 144.892 38.4632 142.513 34.1591 141.343C34.121 141.331 34.0808 141.327 34.041 141.331C34.0011 141.334 33.9624 141.346 33.9273 141.364C33.8922 141.382 33.8615 141.406 33.8369 141.436C33.8124 141.466 33.7946 141.5 33.7846 141.536C33.7632 141.608 33.7728 141.685 33.8113 141.751C33.8498 141.817 33.9141 141.866 33.9906 141.887C38.1695 143.025 41.8742 145.34 44.603 148.518C44.6904 148.617 44.7653 148.723 44.8464 148.822C41.438 147.652 37.9796 148.319 36.1068 149.718C36.0758 149.741 36.0501 149.77 36.0311 149.802C36.0121 149.835 36.0002 149.871 35.9962 149.908C35.9921 149.945 35.9959 149.982 36.0074 150.018C36.0189 150.054 36.0379 150.087 36.0631 150.116C36.0903 150.149 36.1253 150.176 36.1653 150.194C36.2054 150.212 36.2495 150.221 36.2941 150.221C36.3644 150.22 36.4325 150.197 36.4876 150.157C38.3229 148.77 42.1059 148.155 45.5456 149.712C47.693 152.661 48.9545 156.097 49.1975 159.661C49.2023 159.732 49.2359 159.799 49.2916 159.848C49.3473 159.897 49.4208 159.924 49.4971 159.924C49.5365 159.922 49.575 159.912 49.6105 159.896C49.6459 159.88 49.6776 159.857 49.7037 159.829C49.7298 159.802 49.7498 159.769 49.7626 159.734C49.7753 159.699 49.7806 159.662 49.7781 159.626C49.53 155.934 48.2206 152.375 45.9888 149.325Z" fill="white"/>
<path d="M83.6632 122.631L44.2413 144.109L44.1914 162.158L83.8692 183.63L123.285 162.158L123.341 144.109L83.6632 122.631Z" fill="#1489A9"/>
<path opacity="0.2" d="M123.346 144.109L83.668 122.631L44.2461 144.109L83.9239 165.581L123.346 144.109Z" fill="white"/>
<path opacity="0.3" d="M83.921 165.582L83.8711 183.631L123.287 162.159L123.343 144.11L83.921 165.582Z" fill="black"/>
<path d="M130.765 125.067L91.3429 146.545L91.293 187.651L130.971 209.129L170.393 187.651L170.443 146.545L130.765 125.067Z" fill="#1489A9"/>
<path opacity="0.2" d="M170.44 146.545L130.762 125.067L91.3398 146.545L131.018 168.023L170.44 146.545Z" fill="white"/>
<path opacity="0.3" d="M131.019 168.024L130.969 209.13L170.391 187.652L170.441 146.546L131.019 168.024Z" fill="black"/>
<path d="M178.999 127.684L139.577 149.156L139.527 213.642L179.205 235.12L218.621 213.642L218.677 149.156L178.999 127.684Z" fill="#1489A9"/>
<path opacity="0.2" d="M218.678 149.156L179 127.684L139.578 149.156L179.256 170.634L218.678 149.156Z" fill="white"/>
<path opacity="0.3" d="M179.253 170.634L179.203 235.12L218.619 213.642L218.675 149.156L179.253 170.634Z" fill="black"/>
<path d="M179.026 127.514L139.605 148.986L139.555 213.554L179.232 235.032L218.648 213.554L218.704 148.986L179.026 127.514Z" fill="#1489A9"/>
<path opacity="0.2" d="M218.701 148.986L179.023 127.514L139.602 148.986L179.279 170.464L218.701 148.986Z" fill="white"/>
<path opacity="0.3" d="M179.284 170.463L179.234 235.032L218.65 213.554L218.706 148.985L179.284 170.463Z" fill="black"/>
<path d="M228.351 121.206L188.935 142.683L188.879 240.37L228.557 261.848L267.979 240.37L268.029 142.683L228.351 121.206Z" fill="#1489A9"/>
<path opacity="0.2" d="M268.031 142.683L228.353 121.206L188.938 142.683L228.615 164.161L268.031 142.683Z" fill="white"/>
<path opacity="0.3" d="M228.615 164.161L228.559 261.847L267.98 240.369L268.03 142.683L228.615 164.161Z" fill="black"/>
<path d="M156.288 146.954L153.566 145.245L133.028 184.327L135.725 186.036L147.786 179.51C147.261 197.881 141.824 207.092 136.549 212.383L135.706 212.582L135.213 212.687L134.227 212.886L133.784 212.974L133.028 213.102L132.473 213.19L131.674 213.307L131.143 213.383C130.85 213.424 130.519 213.454 130.25 213.489L129.782 213.547L128.534 213.664H128.403C127.947 213.705 127.485 213.734 127.023 213.764C126.436 213.805 125.843 213.828 125.244 213.851H124.707H123.402H122.872C122.154 213.851 121.43 213.851 120.705 213.816H120.331C119.657 213.816 118.983 213.758 118.302 213.717H117.959C117.266 213.67 116.573 213.617 115.874 213.547L115.374 213.5C114.75 213.436 114.126 213.372 113.502 213.296L113.133 213.249C112.453 213.161 111.772 213.067 111.086 212.962L110.592 212.88C110.031 212.792 109.475 212.699 108.913 212.599L108.389 212.505C107.721 212.383 107.047 212.248 106.366 212.108L106.06 212.043C105.48 211.92 104.893 211.786 104.306 211.651L103.682 211.511L102.115 211.124L101.634 211.001C100.966 210.826 100.292 210.644 99.6181 210.451L99.1499 210.317C98.6338 210.172 98.1157 210.02 97.5955 209.86L96.9712 209.661L95.4543 209.176L94.9236 209.006C94.2578 208.783 93.5898 208.555 92.9198 208.321L92.5577 208.186C92.0021 207.993 91.4465 207.789 90.8909 207.601L90.2667 207.355L88.8309 206.799L88.2066 206.548L86.3339 205.793L86.1591 205.723C85.4849 205.436 84.8044 205.137 84.1302 204.845L83.506 204.581C83.0191 204.365 82.5259 204.143 82.039 203.914L81.3648 203.604C80.8466 203.364 80.3347 203.118 79.8166 202.867L79.2985 202.621L77.2572 201.603C76.8826 201.421 76.5143 201.228 76.146 201.017C75.9525 200.918 75.7589 200.824 75.5717 200.719L73.9174 199.847L73.8674 199.818L57 209.053V211.622C76.1647 221.963 94.9361 226.885 111.31 225.866C119.095 225.386 125.737 223.601 131.143 220.558C131.012 220.634 130.881 220.716 130.744 220.786L147.661 211.569C149.163 210.753 150.591 209.823 151.931 208.789C152.112 208.655 152.299 208.508 152.48 208.362L152.642 208.233L153.073 207.876L153.223 207.753L153.791 207.268L153.885 207.18L154.365 206.753L154.54 206.595L155.015 206.144L155.127 206.033C155.321 205.846 155.514 205.658 155.708 205.448C155.751 205.395 155.801 205.348 155.851 205.295C156.001 205.143 156.151 204.985 156.301 204.821L156.469 204.634C156.656 204.435 156.837 204.23 157.019 204.02L157.056 203.979C157.249 203.756 157.443 203.528 157.63 203.294C157.686 203.224 157.743 203.159 157.793 203.089C157.942 202.908 158.086 202.72 158.236 202.533L158.392 202.328L158.954 201.556C158.983 201.52 159.01 201.483 159.035 201.445L159.391 200.935L159.497 200.772L159.765 200.356C159.878 200.186 159.99 200.017 160.096 199.841L160.365 199.402L160.683 198.864L160.951 198.396C161.051 198.208 161.157 198.021 161.257 197.81L161.519 197.325C161.563 197.231 161.607 197.149 161.657 197.061C161.707 196.973 161.813 196.745 161.888 196.581L162 196.359C162.162 196.02 162.325 195.668 162.487 195.311C162.518 195.235 162.556 195.148 162.593 195.072C162.718 194.773 162.849 194.486 162.974 194.17L163.093 193.872C163.093 193.802 163.149 193.737 163.18 193.673L163.311 193.316C163.436 192.994 163.554 192.672 163.673 192.344C163.742 192.157 163.81 191.964 163.873 191.759C163.985 191.431 164.098 191.104 164.204 190.764C164.241 190.641 164.285 190.53 164.322 190.407C164.36 190.284 164.372 190.226 164.403 190.138C164.485 189.869 164.566 189.588 164.647 189.307C164.728 189.026 164.778 188.839 164.847 188.599C164.915 188.359 164.997 188.014 165.071 187.721C165.121 187.545 165.165 187.376 165.209 187.194C165.209 187.124 165.246 187.042 165.259 186.972C165.321 186.714 165.377 186.457 165.44 186.199L165.627 185.345C165.683 185.076 165.733 184.807 165.783 184.537C165.833 184.268 165.87 184.134 165.908 183.952C165.908 183.853 165.939 183.753 165.958 183.654L166.089 182.893C166.145 182.571 166.195 182.243 166.245 181.91C166.295 181.576 166.326 181.383 166.364 181.114C166.364 180.932 166.42 180.757 166.445 180.57L166.501 180.084C166.532 179.82 166.57 179.563 166.595 179.294C166.638 178.937 166.676 178.568 166.713 178.205C166.744 177.936 166.769 177.667 166.794 177.392L166.832 177.017C166.832 176.754 166.876 176.479 166.894 176.21C166.913 175.94 166.938 175.695 166.95 175.431C166.95 174.992 167.007 174.542 167.032 174.091C167.032 173.857 167.032 173.629 167.069 173.395C167.069 173.348 167.069 173.301 167.069 173.254C167.069 172.669 167.113 172.043 167.131 171.428V171.282C167.131 170.609 167.131 169.918 167.131 169.222C167.131 169.152 167.131 169.087 167.131 169.017L176.964 163.697L156.288 146.954Z" fill="#455A64"/>
<path d="M156.29 146.954L135.752 186.036L133.055 184.327L153.568 145.246L156.29 146.954ZM132.112 219.979C132.481 219.757 132.836 219.529 133.192 219.289L133.617 219.008C134.085 218.686 134.547 218.358 134.996 218.013L135.539 217.58L135.702 217.451L136.064 217.159L136.132 217.1L136.282 216.977C136.47 216.819 136.663 216.655 136.85 216.485L136.95 216.398L137.1 216.269L137.431 215.97L137.599 215.812C137.637 215.777 137.674 215.736 137.718 215.701L138.074 215.368L138.186 215.257L138.58 214.864L138.767 214.677L138.91 214.531L139.36 214.051L139.535 213.864L139.709 213.671L140.084 213.249C140.087 213.236 140.087 213.222 140.084 213.208C140.14 213.15 140.19 213.085 140.24 213.027C140.384 212.863 140.521 212.693 140.665 212.524L140.827 212.325L141.158 211.897L141.264 211.763L141.42 211.558L141.738 211.125L141.988 210.791C142.011 210.75 142.038 210.711 142.069 210.674L142.275 210.364C142.363 210.247 142.444 210.124 142.525 210.001C142.606 209.878 142.706 209.726 142.799 209.586C142.893 209.445 143.018 209.246 143.124 209.071C143.23 208.895 143.305 208.778 143.399 208.632L143.605 208.281L143.717 208.093L143.979 207.625C144.048 207.508 144.11 207.385 144.179 207.262L144.291 207.057C144.379 206.899 144.46 206.736 144.547 206.572L144.591 206.484L144.922 205.834C144.959 205.758 144.991 205.682 145.028 205.612C145.134 205.395 145.234 205.167 145.34 204.945C145.396 204.816 145.459 204.693 145.515 204.564C145.571 204.436 145.59 204.395 145.621 204.313C145.752 204.02 145.877 203.728 146.002 203.423C146.046 203.318 146.083 203.218 146.127 203.119C146.171 203.019 146.22 202.879 146.27 202.756L146.345 202.563C146.464 202.241 146.589 201.919 146.701 201.591C146.757 201.451 146.807 201.299 146.857 201.153L146.907 201.018C147.019 200.69 147.126 200.362 147.238 200.023V199.982C147.3 199.789 147.363 199.596 147.419 199.397C147.475 199.198 147.581 198.847 147.662 198.566C147.662 198.566 147.662 198.519 147.662 198.49C147.719 198.279 147.781 198.074 147.837 197.858C147.918 197.571 147.993 197.272 148.068 196.98L148.256 196.231C148.318 195.979 148.374 195.716 148.43 195.458C148.468 195.3 148.499 195.142 148.536 194.984C148.574 194.826 148.593 194.733 148.618 194.604C148.674 194.335 148.73 194.065 148.78 193.796C148.83 193.545 148.88 193.293 148.923 193.035C148.923 192.989 148.923 192.942 148.923 192.889C148.973 192.637 149.017 192.386 149.055 192.128C149.111 191.806 149.167 191.479 149.217 191.151L149.329 190.349C149.379 190.01 149.429 189.664 149.473 189.319L149.566 188.535C149.61 188.172 149.648 187.809 149.685 187.441C149.685 187.171 149.741 186.902 149.766 186.633C149.797 186.241 149.835 185.843 149.86 185.463C149.86 185.205 149.904 184.948 149.922 184.684C149.953 184.245 149.978 183.795 150.003 183.344C150.003 183.11 150.003 182.888 150.041 182.648C150.072 182.004 150.091 181.343 150.11 180.675C150.11 180.629 150.11 180.582 150.11 180.535C150.11 179.786 150.11 179.013 150.11 178.229L147.694 179.534C147.169 197.904 141.732 207.116 136.457 212.406C135.386 213.475 134.244 214.477 133.036 215.409C131.666 216.46 130.204 217.401 128.666 218.224C128.392 218.37 128.111 218.51 127.83 218.651L127.287 218.92C126.987 219.066 126.662 219.201 126.369 219.336L125.857 219.564C125.476 219.728 125.083 219.88 124.69 220.032L124.54 220.091C123.984 220.301 123.429 220.5 122.861 220.676C122.561 220.775 122.236 220.863 121.949 220.957L121.419 221.121C121.038 221.232 120.645 221.337 120.251 221.437L119.665 221.583C119.34 221.665 119.003 221.747 118.666 221.817L117.979 221.963C117.609 222.045 117.234 222.121 116.855 222.191L116.562 222.238L115.351 222.443L114.827 222.519L113.79 222.654L113.216 222.724L112.148 222.835L111.618 222.888C111.093 222.935 110.563 222.976 110.026 223.005C109.489 223.034 108.809 223.069 108.197 223.093H107.704C107.273 223.093 106.842 223.093 106.405 223.093H105.868C105.151 223.093 104.433 223.093 103.702 223.058H103.596C102.835 223.058 102.073 222.993 101.311 222.946H100.974C100.263 222.9 99.5447 222.841 98.8268 222.771H98.7145C98.0028 222.701 97.2849 222.625 96.5608 222.537L96.1924 222.49C95.3809 222.385 94.5694 222.268 93.7516 222.139H93.6517L91.9725 221.858L91.4543 221.764C90.7801 221.641 90.1059 221.507 89.4317 221.366L89.1259 221.302C88.5391 221.179 87.9522 221.05 87.3654 220.91L86.7412 220.769C86.2231 220.646 85.6987 220.518 85.1805 220.383H85.1306C84.3191 220.172 83.5013 219.956 82.6835 219.728L82.2091 219.587C81.5848 219.412 80.9606 219.23 80.3363 219.043C79.7121 218.856 79.0878 218.663 78.4635 218.458L77.9329 218.288C77.2462 218.06 76.5533 217.82 75.8666 217.58L75.5607 217.469L73.9002 216.883L73.276 216.638C72.6517 216.398 72.0274 216.146 71.3657 215.894L71.2971 215.865C70.6728 215.614 70.0111 215.35 69.3681 215.081L69.2932 214.952C68.619 214.665 67.9448 214.367 67.2706 214.08L66.6463 213.811C66.1594 213.596 65.6725 213.374 65.1856 213.144L64.5051 212.834C63.9371 212.57 63.369 212.295 62.8009 212.02L62.4388 211.85C61.7584 211.517 61.078 211.183 60.3975 210.838L59.2739 210.253L58.7183 209.966C58.1502 209.668 57.5759 209.381 57.0078 209.059V211.628C76.1725 221.969 94.9439 226.891 111.318 225.873C119.103 225.393 125.745 223.608 131.151 220.565C131.319 220.477 131.482 220.383 131.644 220.284C131.806 220.184 131.95 220.079 132.112 219.979Z" fill="#37474F"/>
<path opacity="0.2" d="M59.2661 210.272L60.3897 210.857C61.0702 211.202 61.7506 211.536 62.431 211.869L62.7931 212.039C63.3612 212.314 63.9293 212.589 64.4973 212.852L65.1778 213.163C65.6647 213.389 66.1516 213.611 66.6385 213.83L67.2628 214.099C67.937 214.397 68.6112 214.684 69.2854 214.971L69.4539 215.041C70.0782 215.31 70.7399 215.574 71.3829 215.825L71.4516 215.855C72.0758 216.106 72.7001 216.358 73.3618 216.598L73.986 216.844L75.6466 217.429L75.9525 217.54C76.6391 217.78 77.3321 218.02 78.0187 218.248L78.5494 218.418C79.1736 218.623 79.7979 218.816 80.4221 219.003C81.0464 219.19 81.6707 219.372 82.2949 219.547L82.7693 219.688C83.5871 219.916 84.4049 220.133 85.2164 220.343H85.2664C85.7845 220.478 86.3089 220.607 86.827 220.73L87.4513 220.87C88.0381 221.01 88.6249 221.139 89.2117 221.262L89.5176 221.326C90.1918 221.467 90.866 221.602 91.5402 221.724L92.0583 221.818L93.7376 222.099H93.8374C94.6552 222.228 95.4667 222.345 96.2783 222.45L96.6466 222.497C97.3707 222.585 98.0886 222.661 98.8003 222.731H98.9126C99.6305 222.801 100.348 222.86 101.06 222.907H101.397C102.159 222.953 102.92 222.994 103.682 223.018H103.788C104.518 223.018 105.236 223.053 105.954 223.053H106.491C106.928 223.053 107.359 223.053 107.79 223.053H108.283C108.907 223.053 109.531 223.006 110.112 222.965C110.692 222.924 111.179 222.895 111.704 222.848L112.234 222.795L113.302 222.684L113.876 222.614L114.912 222.479L115.437 222.403L116.648 222.198L116.941 222.152C117.32 222.081 117.694 222.005 118.065 221.923L118.752 221.777C119.089 221.707 119.426 221.625 119.75 221.543L120.337 221.397C120.73 221.297 121.124 221.192 121.505 221.081L122.035 220.917C122.341 220.823 122.659 220.735 122.947 220.636C123.515 220.449 124.07 220.25 124.626 220.051L124.776 219.992C125.169 219.84 125.562 219.688 125.943 219.524L126.455 219.296C126.761 219.161 127.079 219.027 127.373 218.88L127.916 218.611C128.197 218.471 128.477 218.33 128.752 218.184C130.29 217.361 131.752 216.42 133.122 215.369C134.329 214.438 135.472 213.435 136.543 212.367L135.7 212.566L135.207 212.671L134.221 212.87L133.777 212.958L133.022 213.086L132.466 213.174L131.667 213.291L131.137 213.367C130.843 213.408 130.513 213.438 130.244 213.473L129.776 213.531L128.527 213.648H128.396C127.941 213.689 127.479 213.719 127.017 213.748C126.43 213.789 125.837 213.812 125.238 213.836H124.701H123.396H122.865C122.148 213.836 121.423 213.836 120.699 213.8H120.325C119.65 213.8 118.976 213.742 118.296 213.701H117.952C117.26 213.654 116.567 213.601 115.867 213.531L115.368 213.484C114.744 213.42 114.12 213.356 113.495 213.28L113.127 213.233C112.447 213.145 111.766 213.051 111.079 212.946L110.586 212.864C110.024 212.776 109.469 212.683 108.907 212.583L108.383 212.49C107.715 212.367 107.04 212.232 106.36 212.092L106.054 212.027C105.474 211.904 104.887 211.77 104.3 211.635L103.676 211.495L102.109 211.108L101.628 210.985C100.96 210.81 100.286 210.628 99.6118 210.435L99.1436 210.301C98.6276 210.156 98.1094 210.004 97.5892 209.844L96.965 209.645L95.448 209.16L94.9174 208.99C94.2515 208.767 93.5836 208.539 92.9135 208.305L92.5515 208.171C91.9959 207.977 91.4403 207.773 90.8847 207.585L90.2604 207.34L88.8246 206.784L88.2004 206.532L86.3276 205.777L86.1528 205.707C85.4786 205.42 84.7982 205.122 84.124 204.829L83.4997 204.566C83.0128 204.349 82.5196 204.127 82.0327 203.898L81.3585 203.588C80.8404 203.348 80.3285 203.102 79.8104 202.851L79.2922 202.605L77.2509 201.587C76.8764 201.405 76.508 201.212 76.1397 201.001C75.9462 200.902 75.7527 200.808 75.5654 200.703L73.9111 199.831L73.8612 199.802L57 209.054C57.5681 209.364 58.1424 209.639 58.7105 209.961L59.2661 210.272Z" fill="white"/>
<path d="M44.8525 47.2217C47.6242 45.7235 49.9651 46.4609 50.7142 48.7901C51.3774 47.5108 52.406 46.429 53.6857 45.6649C55.8581 44.4945 57.6248 45.4367 57.631 47.7718V48.8486L60.5525 47.2685C62.0757 46.4492 63.3118 47.1105 63.318 48.7491C63.2666 49.6418 62.991 50.5104 62.5137 51.2843C62.0363 52.0582 61.3708 52.7155 60.5713 53.2027L35.8944 66.5693C34.3712 67.3886 33.1351 66.7332 33.1289 65.0945C33.1784 64.2007 33.4531 63.3305 33.9305 62.5553C34.408 61.7802 35.0746 61.1221 35.8756 60.6351L38.7909 59.055V57.0828C38.7722 53.4602 41.494 49.0476 44.8525 47.2217Z" fill="#E6E6E6"/>
<path d="M69.0501 55.9749C71.0415 54.9039 72.7208 55.4306 73.2576 57.1044C73.7366 56.1827 74.4803 55.4044 75.4051 54.8571C76.9595 54.0144 78.233 54.6932 78.233 56.3728V57.1453L80.3242 56.01C81.4167 55.4248 82.3031 55.893 82.3031 57.0693C82.2686 57.7106 82.0724 58.3351 81.7306 58.8916C81.3888 59.448 80.9111 59.9206 80.3367 60.2705L62.614 69.8624C61.5216 70.4476 60.6351 69.9794 60.6289 68.8031C60.6671 68.1619 60.8655 67.5381 61.2081 66.982C61.5508 66.426 62.0281 65.9532 62.6016 65.6019L64.6928 64.4724V63.0503C64.7728 61.6325 65.2092 60.2524 65.9665 59.0228C66.7237 57.7932 67.7804 56.7488 69.0501 55.9749Z" fill="#E6E6E6"/>
<path d="M270.589 53.1678C268.598 52.0909 266.918 52.6176 266.381 54.2914C265.902 53.3713 265.159 52.595 264.234 52.05C262.68 51.2072 261.406 51.8861 261.406 53.5657V54.3324L259.315 53.2029C258.222 52.6176 257.336 53.0858 257.336 54.2621C257.37 54.9035 257.567 55.528 257.908 56.0845C258.25 56.6409 258.728 57.1135 259.302 57.4633L277.025 67.0552C278.117 67.6405 279.004 67.1723 279.01 65.996C278.972 65.3548 278.774 64.731 278.431 64.1749C278.088 63.6188 277.611 63.1461 277.038 62.7948L274.946 61.6594V60.2432C274.864 58.8258 274.427 57.4464 273.67 56.2171C272.913 54.9877 271.857 53.9431 270.589 53.1678Z" fill="#E6E6E6"/>
<path d="M160.789 36.4583C160.79 36.3785 160.768 36.3 160.725 36.231C160.682 36.162 160.62 36.1051 160.546 36.0662L158.386 34.9367C158.315 34.8982 158.234 34.8779 158.152 34.8779C158.07 34.8779 157.989 34.8982 157.918 34.9367L143.104 42.9544C142.831 43.0936 142.612 43.3109 142.48 43.5747C142.398 43.75 142.356 43.9393 142.355 44.1307V49.2924L137.224 54.2668C136.768 54.7116 136.718 55.3846 137.074 55.49L139.121 56.5434C139.155 56.5791 139.198 56.6059 139.246 56.6213C139.295 56.6367 139.346 56.6401 139.396 56.6312L142.374 56.2917V60.084C142.374 60.1623 142.395 60.2392 142.437 60.307C142.479 60.3748 142.539 60.4311 142.611 60.4703L144.765 61.5881H144.796C144.863 61.6209 144.938 61.638 145.014 61.638C145.09 61.638 145.165 61.6209 145.233 61.5881L160.047 53.5646C160.266 53.4463 160.449 53.2759 160.576 53.0704C160.703 52.8649 160.77 52.6316 160.771 52.3941L160.789 36.4583ZM144.915 44.3355L144.865 44.3882L144.915 44.3355ZM144.771 44.5052C144.774 44.5207 144.774 44.5366 144.771 44.552C144.774 44.5366 144.774 44.5207 144.771 44.5052ZM144.565 44.9617C144.567 44.9811 144.567 45.0008 144.565 45.0202C144.567 45.0008 144.567 44.9811 144.565 44.9617ZM145.021 44.236L145.071 44.1951L145.021 44.236Z" fill="#1489A9"/>
<path opacity="0.1" d="M144.574 61.2071C144.574 61.2838 144.596 61.3591 144.636 61.4258C144.677 61.4924 144.735 61.5481 144.805 61.5875L142.651 60.4522C142.579 60.413 142.519 60.3567 142.477 60.2889C142.436 60.2211 142.414 60.1442 142.414 60.0659V56.2736L144.58 56.0278L144.574 61.2071Z" fill="black"/>
<path opacity="0.2" d="M143.088 42.949L157.902 34.9314C157.973 34.8928 158.054 34.8726 158.136 34.8726C158.218 34.8726 158.299 34.8928 158.37 34.9314L160.53 36.0609C160.457 36.0207 160.374 35.9996 160.29 35.9996C160.205 35.9996 160.122 36.0207 160.05 36.0609L145.255 44.0668C144.975 44.2144 144.755 44.4449 144.63 44.7222L142.477 43.5518C142.609 43.2962 142.823 43.0856 143.088 42.949Z" fill="white"/>
<path opacity="0.1" d="M142.379 49.287V44.1253C142.379 43.9339 142.422 43.7446 142.504 43.5693L144.657 44.7398C144.585 44.9048 144.548 45.0821 144.551 45.2606V50.4282L142.385 49.2929L142.379 49.287Z" fill="black"/>
<path opacity="0.05" d="M137.247 54.2596L142.379 49.2852L144.545 50.4205L139.42 55.3891C139.02 55.7695 138.933 56.3255 139.145 56.5595L137.097 55.5061C136.741 55.3774 136.791 54.7044 137.247 54.2596Z" fill="white"/>
<path d="M153.373 43.3455C153.42 43.3108 153.479 43.292 153.538 43.292C153.598 43.292 153.657 43.3108 153.704 43.3455L156.607 45.9497C156.813 46.1312 156.607 46.6579 156.282 46.8393L154.678 47.7054L154.715 53.8913L152.143 55.2841L152.106 49.0983L150.501 49.9644C150.164 50.1517 149.971 49.8356 150.171 49.4377L153.042 43.7024C153.115 43.557 153.23 43.4334 153.373 43.3455Z" fill="white"/>
<path opacity="0.1" d="M151.472 142.567C150.492 140.419 148.451 138.383 145.354 136.715C136.334 131.828 121.757 131.828 112.793 136.715C103.829 141.601 103.879 149.514 112.899 154.395C120.14 158.316 130.965 159.076 139.586 156.706V149.157L151.472 142.567Z" fill="black"/>
<path d="M97.2383 88.375L107.757 80.6733L108.781 82.4056L98.106 90.2535L97.2383 88.375Z" fill="#263238"/>
<path d="M116.581 95.3031L122.486 94.7998C121.737 98.3112 120.42 103.18 120.42 103.18L114.977 99.903L116.581 95.3031Z" fill="#455A64"/>
<path d="M84.1909 117.957C84.1845 116.69 84.6233 115.456 85.4394 114.446C86.0892 113.75 86.7768 113.086 87.4995 112.456C88.0165 111.99 88.4099 111.417 88.6481 110.782C88.8769 110.053 89.2175 109.36 89.6594 108.722C90.1513 107.986 90.9234 107.453 91.8193 107.23C91.9946 107.191 92.1767 107.187 92.354 107.217C92.5312 107.247 92.6999 107.311 92.8494 107.406L92.6746 107.201C92.519 107.017 92.3104 106.879 92.0736 106.803C91.8367 106.728 91.5816 106.717 91.3387 106.774C90.4213 106.997 89.6317 107.544 89.135 108.301C88.6779 108.946 88.3284 109.652 88.0988 110.396C87.8631 111.061 87.4606 111.663 86.9252 112.152C86.1884 112.794 85.4882 113.472 84.8277 114.183C83.9925 115.21 83.5407 116.467 83.5417 117.758C83.5194 118.025 83.5543 118.292 83.6444 118.546C83.7345 118.799 83.8779 119.033 84.0661 119.233C84.287 119.417 84.5648 119.53 84.8589 119.555C84.8007 119.521 84.7463 119.482 84.6966 119.438C84.5084 119.237 84.3664 119.002 84.2794 118.747C84.1924 118.492 84.1623 118.224 84.1909 117.957Z" fill="black"/>
<path d="M93.1321 107.616C93.0521 107.523 92.9573 107.442 92.8512 107.376C92.7017 107.282 92.5331 107.217 92.3558 107.187C92.1785 107.157 91.9965 107.162 91.8212 107.201C90.9253 107.423 90.1531 107.956 89.6612 108.693C89.2144 109.339 88.8716 110.043 88.6437 110.782C88.4116 111.431 88.0178 112.019 87.4951 112.497C86.7724 113.126 86.0848 113.791 85.435 114.487C84.6188 115.497 84.1801 116.731 84.1865 117.998C84.1639 118.259 84.1976 118.521 84.2856 118.77C84.3735 119.018 84.5139 119.247 84.6984 119.444C84.7482 119.488 84.8026 119.527 84.8607 119.561C85.0683 119.677 85.301 119.748 85.5419 119.77C85.7828 119.791 86.0256 119.762 86.2528 119.683C86.7719 119.494 87.2254 119.174 87.5637 118.759C87.9196 118.367 88.188 117.928 88.5688 117.53C89.1769 116.896 89.8573 116.327 90.5976 115.833L92.6015 114.393L93.5129 108.131C93.5129 108.131 93.3444 107.856 93.1321 107.616Z" fill="#263238"/>
<path d="M107.42 106.562L107.114 114.293C103.368 110.735 93.6176 107.417 93.6176 107.417C89.922 109.969 90.746 112.901 92.1318 114.293C99.7727 118.191 108.5 123.435 110.497 123.002C112.495 122.569 115.142 119.724 117.083 114.364L113.338 108.336L107.42 106.562Z" fill="#37474F"/>
<path d="M133.869 148.074C133.788 148.232 133.674 148.373 133.533 148.489C133.393 148.604 133.229 148.692 133.051 148.747C132.698 148.857 132.33 148.918 131.959 148.928C131.155 149.008 130.344 148.996 129.543 148.893C128.74 148.793 127.981 148.487 127.352 148.01C126.81 147.513 126.34 146.953 125.953 146.342C124.92 144.925 123.639 143.683 122.164 142.667C122.203 142.919 122.257 143.169 122.326 143.416C123.745 144.399 124.972 145.605 125.953 146.98C126.341 147.591 126.811 148.154 127.352 148.653C127.983 149.129 128.74 149.434 129.543 149.537C130.344 149.634 131.155 149.645 131.959 149.572C132.331 149.56 132.699 149.497 133.051 149.385C133.229 149.33 133.393 149.242 133.533 149.126C133.674 149.011 133.788 148.87 133.869 148.712C133.974 148.474 133.989 148.21 133.913 147.963C133.901 148.001 133.886 148.038 133.869 148.074Z" fill="#263238"/>
<path d="M133.538 146.664C133.168 146.301 132.748 145.986 132.289 145.727C130.255 144.427 128.738 142.532 127.976 140.337L122.245 140.642C121.991 141.292 121.963 142.001 122.164 142.667C123.639 143.683 124.92 144.925 125.953 146.342C126.34 146.953 126.81 147.513 127.352 148.01C127.981 148.488 128.74 148.793 129.543 148.893C130.344 148.996 131.155 149.008 131.959 148.929C132.33 148.918 132.698 148.857 133.051 148.747C133.229 148.692 133.392 148.604 133.533 148.489C133.673 148.373 133.788 148.232 133.869 148.074C133.886 148.038 133.901 148.001 133.912 147.963C133.967 147.734 133.961 147.496 133.896 147.27C133.83 147.044 133.708 146.836 133.538 146.664Z" fill="#37474F"/>
<path d="M103.468 94.249C102.219 99.9257 102.7 102.442 107.42 106.539C112.139 110.635 119.905 116.488 119.905 116.488C118.032 122.264 120.829 129.866 120.935 132.798C121.041 135.73 121.809 140.687 121.809 140.687C126.116 142.852 128.426 140.687 128.426 140.687V115.224C128.428 112.99 127.565 110.831 125.997 109.149L116.577 99.0772V95.32L103.468 94.249Z" fill="#455A64"/>
<path d="M136.678 79.2741C137.494 79.5288 138.366 79.5871 139.213 79.4439C139.213 77.9106 139.213 76.1958 139.344 73.9661C139.65 69.1555 138.264 66.5045 137.121 65.5447C135.979 64.5849 134 64.5673 133.27 65.176C132.539 65.7846 134.331 67.9968 134.587 69.9222C133.563 68.7986 133.045 68.4182 132.09 69.1029C132.653 69.7167 133.078 70.4315 133.338 71.2038C133.544 72.1695 134.643 72.8425 134.949 73.6384C135.186 74.2587 134.949 76.2427 134.556 77.9457C135.132 78.55 135.862 79.0071 136.678 79.2741Z" fill="#F28F8F"/>
<path opacity="0.2" d="M136.678 79.2741C137.494 79.5288 138.366 79.5871 139.213 79.4439C139.213 77.9106 139.213 76.1958 139.344 73.9661C139.65 69.1555 138.264 66.5045 137.121 65.5447C135.979 64.5849 134 64.5673 133.27 65.176C132.539 65.7846 134.331 67.9968 134.587 69.9222C133.563 68.7986 133.045 68.4182 132.09 69.1029C132.653 69.7167 133.078 70.4315 133.338 71.2038C133.544 72.1695 134.643 72.8425 134.949 73.6384C135.186 74.2587 134.949 76.2427 134.556 77.9457C135.132 78.55 135.862 79.0071 136.678 79.2741Z" fill="black"/>
<path d="M136.678 79.2739C135.855 79.0095 135.118 78.5522 134.536 77.9455C134.424 78.4546 134.299 78.9403 134.174 79.35C134.174 79.35 130.21 74.2527 129.318 73.287C128.425 72.3214 127.607 70.0215 123.699 69.5942L124.167 78.5833C124.167 78.5833 132.039 86.9814 134.736 88.3976C137.433 89.8139 138.332 87.9763 138.881 84.5761C139.127 82.8754 139.231 81.1594 139.193 79.4436C138.353 79.5839 137.488 79.5256 136.678 79.2739Z" fill="#455A64"/>
<path opacity="0.3" d="M133.591 84.7936C132.967 82.7044 133.897 80.1118 134.216 79.351L133.541 78.4849C133.048 79.4735 132.796 80.553 132.805 81.6445C132.814 82.736 133.082 83.8119 133.591 84.7936Z" fill="black"/>
<path d="M112.093 69.4019C109.833 69.1152 107.424 69.4721 104.958 69.8584C104.504 74.8843 104.504 79.9372 104.958 84.9632L103.004 94.7774C110.651 99.1081 120.402 97.1827 122.356 95.9479C125.433 84.6939 126.201 74.0603 123.717 69.6126L117.637 68.647L112.093 69.4019Z" fill="#37474F"/>
<path d="M116.969 73.7789L115.184 72.4504C115.746 72.1944 116.331 71.9849 116.932 71.8242L117.637 72.1519L116.969 73.7789Z" fill="#1489A9"/>
<path d="M118.883 73.6384L119.277 73.4102L119.938 72.0642L119.171 71.8242L118.715 72.1519L118.883 73.6384Z" fill="#1489A9"/>
<path d="M117.451 74.7021C116.102 79.7234 109.822 82.9948 104.647 82.6437C103.913 82.5798 103.178 82.7577 102.569 83.147C101.808 83.6614 101.132 84.2787 100.565 84.9788C100.491 85.0724 100.44 85.1806 100.417 85.2952C100.394 85.4099 100.398 85.5279 100.431 85.6405C100.463 85.7532 100.522 85.8574 100.604 85.9455C100.686 86.0336 100.787 86.1033 100.902 86.1492C102.047 86.5799 103.229 86.9205 104.435 87.1675C105.694 87.4412 107.007 87.409 108.249 87.0739C117.657 84.5223 118.962 78.8807 118.706 74.6963L117.451 74.7021Z" fill="#1489A9"/>
<path opacity="0.3" d="M118.717 74.9265C118.717 74.8504 118.717 74.7743 118.717 74.7041H117.469C117.469 74.7041 117.469 74.7509 117.469 74.7743C117.646 74.9132 117.863 75.0006 118.093 75.026C118.307 75.0437 118.522 75.0094 118.717 74.9265Z" fill="black"/>
<path d="M117.633 72.1572C117.991 72.1045 118.356 72.1045 118.713 72.1572C119.019 72.5211 119.213 72.956 119.275 73.4154C119.183 73.8795 118.987 74.3202 118.701 74.7087C118.376 74.937 117.452 74.7087 117.452 74.7087C117.214 74.4132 117.005 74.0978 116.828 73.7665C116.774 73.6637 116.746 73.5505 116.746 73.4359C116.746 73.3212 116.774 73.2081 116.828 73.1052C117.02 72.738 117.295 72.4145 117.633 72.1572Z" fill="#1489A9"/>
<path opacity="0.3" d="M121.038 97.6973C120.078 98.7916 118.731 99.5267 117.242 99.769L120.42 103.175C120.086 102.096 119.549 101.081 118.834 100.179C119.84 99.6015 120.615 98.7293 121.038 97.6973Z" fill="black"/>
<path d="M118.121 72.0002C119.569 71.6374 120.493 73.1707 120.493 73.1707C120.581 69.8407 118.739 68.5649 118.739 68.5649L118.121 72.0002Z" fill="#455A64"/>
<path d="M111.953 55.5489C111.329 55.1451 110.661 54.7471 110.012 54.3491C110.174 54.1647 110.378 54.0164 110.609 53.9152C110.84 53.814 111.093 53.7623 111.348 53.7639C111.638 53.7852 111.909 53.911 112.103 54.1151C112.292 54.3253 112.388 54.5955 112.371 54.87C112.434 53.7815 113.433 52.8041 114.475 52.3301C115.549 51.9012 116.724 51.7418 117.884 51.8678C119.038 51.938 120.187 52.1487 121.342 52.1838C122.682 52.2312 124.02 52.0548 125.294 51.6629C125.434 51.6187 125.585 51.6111 125.73 51.641C125.875 51.6709 126.008 51.7373 126.116 51.8329C126.224 51.9285 126.302 52.0498 126.342 52.1838C126.382 52.3177 126.382 52.4594 126.342 52.5935C126.119 53.2845 125.745 53.9243 125.244 54.472C125.511 54.5435 125.79 54.5712 126.068 54.554C126.218 54.5445 126.368 54.574 126.501 54.6394C126.635 54.7048 126.747 54.8034 126.824 54.9244C126.901 55.0455 126.942 55.1842 126.94 55.3254C126.939 55.4666 126.896 55.6046 126.817 55.7244C126.307 56.4245 125.588 56.9681 124.75 57.287C121.673 61.8401 113.376 65.9074 113.376 65.9074C113.096 65.8726 112.828 65.7746 112.597 65.6217C112.365 65.4688 112.176 65.2657 112.047 65.0296C111.8 64.551 111.641 64.0364 111.579 63.508C111.221 61.5143 110.927 59.5109 110.698 57.4977C110.617 57.0737 110.636 56.6381 110.755 56.2219C110.82 56.0221 110.95 55.8464 111.127 55.7194C111.303 55.5925 111.518 55.5205 111.741 55.5138" fill="#263238"/>
<path d="M112.762 62.5959C112.537 64.4745 112.094 67.7166 112.094 67.7166C113.842 69.9288 117.225 70.4145 118.124 72.0005C118.705 70.2388 119.083 68.4241 119.254 66.5871L113.48 62.3325L112.762 62.5959Z" fill="#F28F8F"/>
<path opacity="0.2" d="M112.762 62.5959C112.537 64.4745 112.094 67.7166 112.094 67.7166C113.842 69.9288 117.225 70.4145 118.124 72.0005C118.705 70.2388 119.083 68.4241 119.254 66.5871L113.48 62.3325L112.762 62.5959Z" fill="black"/>
<path opacity="0.3" d="M113.477 62.3325L113.327 62.3852C113.254 63.8982 113.792 65.3812 114.833 66.5394C115.874 67.6975 117.342 68.4458 118.945 68.6354C119.176 67.3655 119.226 66.5871 119.226 66.5871L113.477 62.3325Z" fill="black"/>
<path d="M124.748 57.299C125.183 60.4275 124.813 63.6081 123.668 66.5749C123.522 66.9427 123.258 67.2594 122.913 67.4823C122.568 67.7052 122.158 67.8236 121.739 67.8214C117.37 67.8214 113.899 66.4169 113.293 62.765C113.073 63.028 112.768 63.2169 112.423 63.3034C112.079 63.39 111.714 63.3694 111.383 63.2449C110.763 62.9766 110.265 62.5097 109.978 61.9282C109.794 61.6265 109.671 61.295 109.616 60.9508C109.563 60.6026 109.655 60.2484 109.872 59.9618C110.075 59.7496 110.344 59.6027 110.641 59.5418C110.938 59.4809 111.248 59.5091 111.527 59.6224C112.093 59.8612 112.54 60.2948 112.775 60.8338C112.869 61.0328 112.994 61.2727 113.225 61.2786C113.456 61.2844 113.599 61.0328 113.674 60.8221C113.951 59.9634 114.071 59.0672 114.03 58.171C114.722 58.2945 115.438 58.1669 116.034 57.814C116.611 57.4425 117.014 56.8765 117.157 56.2339C117.343 56.5637 117.609 56.8473 117.935 57.0611C118.261 57.2749 118.636 57.4126 119.03 57.4629C119.414 57.5119 119.804 57.4743 120.169 57.3531C120.534 57.232 120.863 57.0308 121.128 56.7664C121.578 57.1974 122.165 57.4807 122.801 57.5741C123.465 57.6603 124.141 57.5648 124.748 57.299Z" fill="#F28F8F"/>
<path opacity="0.2" d="M124.748 57.299C125.183 60.4275 124.813 63.6081 123.668 66.5749C123.522 66.9427 123.258 67.2594 122.913 67.4823C122.568 67.7052 122.158 67.8236 121.739 67.8214C117.37 67.8214 113.899 66.4169 113.293 62.765C113.073 63.028 112.768 63.2169 112.423 63.3034C112.079 63.39 111.714 63.3694 111.383 63.2449C110.763 62.9766 110.265 62.5097 109.978 61.9282C109.794 61.6265 109.671 61.295 109.616 60.9508C109.563 60.6026 109.655 60.2484 109.872 59.9618C110.075 59.7496 110.344 59.6027 110.641 59.5418C110.938 59.4809 111.248 59.5091 111.527 59.6224C112.093 59.8612 112.54 60.2948 112.775 60.8338C112.869 61.0328 112.994 61.2727 113.225 61.2786C113.456 61.2844 113.599 61.0328 113.674 60.8221C113.951 59.9634 114.071 59.0672 114.03 58.171C114.722 58.2945 115.438 58.1669 116.034 57.814C116.611 57.4425 117.014 56.8765 117.157 56.2339C117.343 56.5637 117.609 56.8473 117.935 57.0611C118.261 57.2749 118.636 57.4126 119.03 57.4629C119.414 57.5119 119.804 57.4743 120.169 57.3531C120.534 57.232 120.863 57.0308 121.128 56.7664C121.578 57.1974 122.165 57.4807 122.801 57.5741C123.465 57.6603 124.141 57.5648 124.748 57.299Z" fill="black"/>
<path d="M120.762 60.8442L122.766 63.2144L120.868 63.8055L120.762 60.8442Z" fill="#F28F8F"/>
<path opacity="0.3" d="M120.762 60.8442L122.766 63.2144L120.868 63.8055L120.762 60.8442Z" fill="black"/>
<path d="M119.121 64.9302L120.701 65.4159C120.597 65.5899 120.435 65.7274 120.24 65.8077C120.045 65.8879 119.828 65.9065 119.621 65.8607C119.437 65.7822 119.287 65.6471 119.196 65.4779C119.105 65.3087 119.079 65.1154 119.121 64.9302Z" fill="#F28F8F"/>
<path opacity="0.3" d="M119.121 64.9302L120.701 65.4159C120.597 65.5899 120.435 65.7274 120.24 65.8077C120.045 65.8879 119.828 65.9065 119.621 65.8607C119.437 65.7822 119.287 65.6471 119.196 65.4779C119.105 65.3087 119.079 65.1154 119.121 64.9302Z" fill="black"/>
<path d="M120.135 65.8378C119.966 65.8845 119.786 65.8845 119.617 65.8378C119.471 65.7819 119.346 65.6872 119.258 65.5655C119.169 65.4438 119.12 65.3005 119.117 65.1531C119.333 65.124 119.554 65.1654 119.741 65.2702C119.844 65.3359 119.931 65.4199 119.998 65.5173C120.066 65.6147 120.112 65.7236 120.135 65.8378Z" fill="#F28F8F"/>
<path d="M117.985 61.3068C117.987 61.3762 118.003 61.4447 118.033 61.5081C118.063 61.5715 118.107 61.6286 118.161 61.676C118.215 61.7234 118.279 61.7603 118.348 61.7843C118.418 61.8083 118.491 61.8191 118.565 61.816C118.678 61.8135 118.788 61.7797 118.88 61.7186C118.972 61.6576 119.043 61.5723 119.083 61.4734C119.123 61.3746 119.131 61.2667 119.106 61.1636C119.081 61.0606 119.023 60.9669 118.941 60.8946C118.858 60.8223 118.755 60.7747 118.643 60.7578C118.532 60.7409 118.418 60.7555 118.315 60.7997C118.212 60.844 118.126 60.9158 118.068 61.0061C118.009 61.0964 117.98 61.2011 117.985 61.3068Z" fill="#263238"/>
<path d="M122.684 60.9844C122.692 61.1241 122.758 61.2554 122.868 61.3504C122.977 61.4454 123.122 61.4968 123.271 61.4935C123.383 61.4899 123.492 61.4551 123.584 61.3934C123.675 61.3317 123.745 61.246 123.784 61.1471C123.823 61.0482 123.83 60.9406 123.804 60.8379C123.778 60.7352 123.72 60.6421 123.638 60.5704C123.555 60.4987 123.451 60.4517 123.34 60.4352C123.229 60.4188 123.115 60.4337 123.013 60.478C122.911 60.5224 122.825 60.5942 122.766 60.6843C122.708 60.7745 122.679 60.8789 122.684 60.9844Z" fill="#263238"/>
<path d="M123.16 58.8611L124.44 59.6336C124.49 59.4863 124.49 59.3281 124.441 59.1805C124.392 59.033 124.296 58.9031 124.165 58.8084C124.009 58.7293 123.832 58.6923 123.655 58.7016C123.477 58.7109 123.306 58.7661 123.16 58.8611Z" fill="#263238"/>
<path d="M118.326 58.9542L117.077 59.8028C117.018 59.659 117.007 59.5018 117.047 59.3522C117.086 59.2027 117.172 59.0678 117.296 58.9659C117.448 58.8705 117.626 58.8185 117.809 58.8165C117.992 58.8144 118.171 58.8622 118.326 58.9542Z" fill="#263238"/>
<path d="M112.09 67.7159L112.202 66.8848C112.128 66.8756 112.052 66.8756 111.978 66.8848C111.353 67.195 110.211 68.8863 110.211 68.8863C110.617 69.7876 112.571 72.5908 114.106 73.5681C115.885 72.7313 117.171 71.5608 118.12 71.988C117.752 70.0509 112.09 67.7159 112.09 67.7159Z" fill="#455A64"/>
<path d="M108.625 98.5407C112.901 92.9225 122.309 79.9129 121.734 69.2793L123.676 69.5836C124.481 80.0534 115.629 93.7067 109.468 100.788L108.625 98.5407Z" fill="#263238"/>
<path d="M107.294 102.999L94.2592 92.6875L91.9556 100.295C91.9425 100.344 91.9419 100.395 91.9538 100.444C91.9658 100.493 91.9899 100.538 92.0243 100.576L92.068 100.611L104.94 111.403C104.897 111.363 104.866 111.312 104.851 111.256C104.835 111.201 104.836 111.142 104.853 111.087L107.294 102.999Z" fill="#1489A9"/>
<path opacity="0.15" d="M107.294 102.999L94.2592 92.6875L91.9556 100.295C91.9425 100.344 91.9419 100.395 91.9538 100.444C91.9658 100.493 91.9899 100.538 92.0243 100.576L92.068 100.611L104.94 111.403C104.897 111.363 104.866 111.312 104.851 111.256C104.835 111.201 104.836 111.142 104.853 111.087L107.294 102.999Z" fill="black"/>
<path d="M106.738 104.86L108.786 98.083L106.738 104.86Z" fill="#1489A9"/>
<path d="M110.19 97.3746L110.184 97.3691L110.19 97.3802V97.3746Z" fill="#1489A9"/>
<path d="M104.94 111.444H104.947L104.934 111.439L104.94 111.444Z" fill="#1489A9"/>
<path d="M110.32 97.7379C110.329 97.673 110.322 97.607 110.299 97.5451C110.276 97.4832 110.238 97.4271 110.189 97.381C110.137 97.3352 110.074 97.3014 110.006 97.2821C109.938 97.2628 109.866 97.2586 109.796 97.2698C109.563 97.3069 109.346 97.4052 109.17 97.5534C108.994 97.7015 108.867 97.8934 108.803 98.1066L106.749 104.86L104.876 111.122C104.86 111.177 104.859 111.236 104.874 111.291C104.89 111.347 104.921 111.398 104.964 111.438C105.006 111.478 105.06 111.506 105.118 111.519C105.176 111.533 105.237 111.531 105.295 111.514L107.848 110.789C108.039 110.736 108.21 110.632 108.34 110.489C108.47 110.347 108.553 110.172 108.578 109.987L110.32 97.7379Z" fill="#1489A9"/>
<path opacity="0.3" d="M110.32 97.7379C110.329 97.673 110.322 97.607 110.299 97.5451C110.276 97.4832 110.238 97.4271 110.189 97.381C110.137 97.3352 110.074 97.3014 110.006 97.2821C109.938 97.2628 109.866 97.2586 109.796 97.2698C109.563 97.3069 109.346 97.4052 109.17 97.5534C108.994 97.7015 108.867 97.8934 108.803 98.1066L106.749 104.86L104.876 111.122C104.86 111.177 104.859 111.236 104.874 111.291C104.89 111.347 104.921 111.398 104.964 111.438C105.006 111.478 105.06 111.506 105.118 111.519C105.176 111.533 105.237 111.531 105.295 111.514L107.848 110.789C108.039 110.736 108.21 110.632 108.34 110.489C108.47 110.347 108.553 110.172 108.578 109.987L110.32 97.7379Z" fill="black"/>
<path d="M102.716 98.6025L100.406 106.363L100.768 106.69L103.003 98.9888L102.716 98.6025Z" fill="#1489A9"/>
<path d="M97.8152 94.4961L95.5117 102.262L95.8738 102.59L98.1086 94.8882L97.8152 94.4961Z" fill="#1489A9"/>
<path d="M97.2722 86.5594C97.221 86.5164 97.1603 86.4847 97.0945 86.4664C97.0286 86.4482 96.9592 86.444 96.8914 86.4541C96.6584 86.4912 96.4415 86.5896 96.2658 86.7377C96.09 86.8858 95.9628 87.0777 95.8988 87.291L94.1321 93.1432C94.0299 93.4893 94.0343 93.8554 94.1448 94.1993C94.2553 94.5431 94.4673 94.8506 94.7564 95.0862L96.1173 96.1923L105.381 103.759C105.526 103.878 105.7 103.96 105.887 103.998C106.075 104.036 106.27 104.029 106.454 103.978C106.637 103.926 106.804 103.832 106.939 103.704C107.073 103.576 107.171 103.418 107.223 103.244L108.783 98.0943C108.847 97.881 108.975 97.6892 109.15 97.541C109.326 97.3929 109.543 97.2945 109.776 97.2574C109.846 97.2462 109.918 97.2505 109.987 97.2698C110.055 97.289 110.117 97.3229 110.169 97.3686L97.2722 86.5594Z" fill="#1489A9"/>
<path opacity="0.2" d="M97.2722 86.5594C97.221 86.5164 97.1603 86.4847 97.0945 86.4664C97.0286 86.4482 96.9592 86.444 96.8914 86.4541C96.6584 86.4912 96.4415 86.5896 96.2658 86.7377C96.09 86.8858 95.9628 87.0777 95.8988 87.291L94.1321 93.1432C94.0299 93.4893 94.0343 93.8554 94.1448 94.1993C94.2553 94.5431 94.4673 94.8506 94.7564 95.0862L96.1173 96.1923L105.381 103.759C105.526 103.878 105.7 103.96 105.887 103.998C106.075 104.036 106.27 104.029 106.454 103.978C106.637 103.926 106.804 103.832 106.939 103.704C107.073 103.576 107.171 103.418 107.223 103.244L108.783 98.0943C108.847 97.881 108.975 97.6892 109.15 97.541C109.326 97.3929 109.543 97.2945 109.776 97.2574C109.846 97.2462 109.918 97.2505 109.987 97.2698C110.055 97.289 110.117 97.3229 110.169 97.3686L97.2722 86.5594Z" fill="white"/>
<path d="M89.2695 87.1269L89.6878 93.0436C90.5805 98.9427 91.7416 99.8732 94.6194 100.652C97.4972 101.43 95.8118 98.059 95.4372 97.4328C95.1617 96.8742 94.9665 96.2839 94.8566 95.6771C96.2737 96.8827 96.6358 96.7539 97.1976 96.3853C97.4223 96.2214 96.3611 95.3553 96.3611 95.3553C95.7989 94.2221 95.0674 93.1699 94.1887 92.2301L94.5195 87.1152L89.2695 87.1269Z" fill="#F28F8F"/>
<path opacity="0.2" d="M89.2695 87.1269L89.6878 93.0436C90.5805 98.9427 91.7416 99.8732 94.6194 100.652C97.4972 101.43 95.8118 98.059 95.4372 97.4328C95.1617 96.8742 94.9665 96.2839 94.8566 95.6771C96.2737 96.8827 96.6358 96.7539 97.1976 96.3853C97.4223 96.2214 96.3611 95.3553 96.3611 95.3553C95.7989 94.2221 95.0674 93.1699 94.1887 92.2301L94.5195 87.1152L89.2695 87.1269Z" fill="black"/>
<path d="M107.998 69.4357C103.946 68.7978 101.281 70.7115 99.433 71.8235C98.0971 72.6311 93.1904 76.0956 90.581 77.9508C90.0646 78.3183 89.6484 78.7952 89.3663 79.3424C89.0842 79.8896 88.9442 80.4917 88.9579 81.0993L89.1015 87.3554C89.9635 87.7811 90.93 87.9858 91.9034 87.9488C92.8769 87.9118 93.8226 87.6344 94.6449 87.1447L95.1194 82.5566C95.1194 82.5566 100.813 79.9581 104.639 78.3253C108.466 76.6926 108.928 72.1102 107.998 69.4357Z" fill="#455A64"/>
<path opacity="0.1" d="M91.4418 147.337C90.3957 147.008 89.2991 146.841 88.1956 146.845C84.7123 146.845 81.8906 148.361 81.8906 150.228C81.8906 152.095 84.7123 153.616 88.1956 153.616C89.2997 153.621 90.3968 153.453 91.4418 153.119V147.337Z" fill="black"/>
<path opacity="0.1" d="M244.217 133.204C253.238 138.09 253.282 146.003 244.324 150.889C235.366 155.776 220.783 155.77 211.762 150.889C202.742 146.008 202.692 138.09 211.656 133.204C220.621 128.317 235.197 128.34 244.217 133.204Z" fill="black"/>
<path d="M255.698 77.8871L254.699 77.4248C256.947 78.9581 260.811 87.2157 262.253 90.5749C262.271 90.6184 262.307 90.6533 262.352 90.6719C262.398 90.6906 262.45 90.6915 262.496 90.6744C262.543 90.6573 262.58 90.6237 262.6 90.5809C262.62 90.5381 262.621 90.4896 262.602 90.4461C262.122 89.3225 258.482 80.8718 255.698 77.8871Z" fill="#E0E0E0"/>
<path d="M240.165 136.064L241.058 134.63L239.897 133.939C239.693 133.846 239.465 133.806 239.238 133.824C239.012 133.843 238.795 133.919 238.611 134.045C238.091 134.359 237.659 134.784 237.35 135.286C237.04 135.788 236.863 136.351 236.832 136.93C236.806 137.141 236.845 137.355 236.943 137.546C237.042 137.738 237.196 137.9 237.387 138.013L238.524 138.692L239.466 137.182C239.762 136.847 239.998 136.47 240.165 136.064Z" fill="#37474F"/>
<path d="M239.771 134.73C240.751 134.197 241.557 134.624 241.557 135.689C241.525 136.268 241.347 136.831 241.037 137.333C240.728 137.834 240.296 138.26 239.778 138.574C238.797 139.107 237.992 138.68 237.992 137.621C238.024 137.041 238.202 136.477 238.511 135.975C238.821 135.472 239.252 135.046 239.771 134.73Z" fill="#455A64"/>
<path d="M220.686 135.654L219.793 134.22L220.954 133.529C221.158 133.435 221.386 133.396 221.613 133.414C221.839 133.433 222.056 133.509 222.24 133.635C222.759 133.949 223.191 134.375 223.5 134.877C223.809 135.378 223.987 135.941 224.019 136.52C224.045 136.731 224.006 136.945 223.908 137.136C223.809 137.328 223.655 137.489 223.464 137.603L222.327 138.287L221.385 136.777C221.088 136.441 220.852 136.061 220.686 135.654Z" fill="#37474F"/>
<path d="M221.081 134.325C220.094 133.793 219.289 134.214 219.289 135.279C219.321 135.858 219.499 136.421 219.808 136.923C220.118 137.424 220.549 137.85 221.068 138.165C222.048 138.697 222.854 138.27 222.854 137.211C222.822 136.633 222.645 136.07 222.337 135.568C222.029 135.067 221.598 134.641 221.081 134.325Z" fill="#455A64"/>
<path d="M227.078 132.101H230.387V137.444C230.374 137.582 230.322 137.713 230.236 137.825C230.15 137.938 230.034 138.026 229.9 138.082C229.537 138.255 229.136 138.346 228.729 138.346C228.322 138.346 227.921 138.255 227.559 138.082C227.425 138.026 227.31 137.937 227.225 137.825C227.141 137.713 227.09 137.581 227.078 137.444V132.101Z" fill="#EBEBEB"/>
<path d="M239.054 133.599V134.869L230.383 136.923V134.225L239.054 133.599Z" fill="#E0E0E0"/>
<path d="M239.054 133.6L238.448 133.407L230.383 133.805V134.226L239.054 133.6Z" fill="#F5F5F5"/>
<path d="M239.93 145.151L239.031 143.717L240.192 143.027C240.397 142.931 240.625 142.889 240.853 142.907C241.081 142.924 241.3 143 241.485 143.126C242.003 143.443 242.434 143.87 242.743 144.372C243.052 144.874 243.231 145.438 243.264 146.017C243.284 146.228 243.243 146.44 243.145 146.63C243.048 146.821 242.896 146.983 242.708 147.1L241.591 147.785L240.648 146.275C240.344 145.94 240.102 145.56 239.93 145.151Z" fill="#37474F"/>
<path d="M240.335 143.818C239.348 143.285 238.549 143.713 238.543 144.772C238.579 145.35 238.76 145.912 239.071 146.413C239.383 146.913 239.815 147.337 240.335 147.651C241.321 148.184 242.12 147.757 242.126 146.692C242.089 146.114 241.908 145.553 241.597 145.054C241.285 144.555 240.853 144.131 240.335 143.818Z" fill="#455A64"/>
<path d="M228.381 148.821L229.273 147.388L228.112 146.697C227.908 146.601 227.679 146.56 227.451 146.577C227.223 146.595 227.005 146.671 226.82 146.796C226.303 147.113 225.873 147.539 225.563 148.04C225.254 148.541 225.075 149.104 225.041 149.682C225.019 149.893 225.06 150.106 225.157 150.298C225.255 150.49 225.407 150.653 225.596 150.77L226.739 151.449L227.681 149.939C227.975 149.603 228.211 149.226 228.381 148.821Z" fill="#37474F"/>
<path d="M227.978 147.465C228.965 146.932 229.764 147.359 229.77 148.418C229.736 148.997 229.558 149.559 229.249 150.061C228.939 150.562 228.509 150.988 227.991 151.304C227.005 151.836 226.205 151.409 226.199 150.35C226.233 149.772 226.411 149.209 226.721 148.708C227.03 148.206 227.461 147.78 227.978 147.465Z" fill="#455A64"/>
<path d="M215.855 143.163L216.748 141.73L215.586 141.039C215.383 140.944 215.155 140.903 214.929 140.921C214.702 140.938 214.485 141.014 214.3 141.139C213.782 141.453 213.35 141.879 213.041 142.38C212.731 142.882 212.553 143.445 212.521 144.024C212.5 144.235 212.54 144.448 212.638 144.64C212.736 144.832 212.888 144.995 213.077 145.112L214.213 145.791L215.156 144.281C215.452 143.947 215.688 143.569 215.855 143.163Z" fill="#37474F"/>
<path d="M215.459 141.835C216.439 141.303 217.244 141.73 217.244 142.789C217.212 143.367 217.034 143.929 216.726 144.431C216.418 144.932 215.988 145.358 215.471 145.674C214.485 146.207 213.68 145.78 213.68 144.72C213.712 144.142 213.89 143.579 214.199 143.077C214.508 142.576 214.94 142.15 215.459 141.835Z" fill="#455A64"/>
<path d="M241.139 142.044V144.11L229.527 138.228V135.378L241.139 142.044Z" fill="#E0E0E0"/>
<path d="M241.813 141.694L230.195 135.222L229.527 135.38L241.139 142.045L241.813 141.694Z" fill="#F5F5F5"/>
<path d="M241.811 143.754L241.137 144.111V142.045L241.811 141.694V143.754Z" fill="#F0F0F0"/>
<path d="M228.749 135.378L227.332 145.901V147.785L228.749 138.346V135.378Z" fill="#E0E0E0"/>
<path d="M227.329 145.907H226.512V147.785H227.329V145.907Z" fill="#F0F0F0"/>
<path d="M226.512 145.901L227.798 135.378H228.747L227.329 145.901H226.512Z" fill="#F5F5F5"/>
<path d="M215.004 140.073V142.045L227.077 137.445V135.028L215.004 140.073Z" fill="#E0E0E0"/>
<path d="M214.535 141.751L215.003 142.044V140.071L214.535 139.785V141.751Z" fill="#F0F0F0"/>
<path d="M216.439 139.47L215.003 140.072L214.535 139.786L227.076 134.489V135.028L216.439 139.47Z" fill="#F5F5F5"/>
<path d="M220.961 132.522V133.816L224.482 135.583L227.072 134.489V133.956L220.961 132.522Z" fill="#E0E0E0"/>
<path d="M220.961 132.524L221.242 132.418L227.072 133.601V133.958L220.961 132.524Z" fill="#F5F5F5"/>
<path d="M226.02 122.568H231.438V131.347C231.412 131.57 231.324 131.784 231.183 131.965C231.041 132.147 230.852 132.291 230.633 132.383C230.04 132.665 229.384 132.813 228.719 132.813C228.054 132.813 227.399 132.665 226.806 132.383C226.589 132.29 226.401 132.144 226.263 131.961C226.125 131.778 226.041 131.564 226.02 131.341V122.568Z" fill="#E0E0E0"/>
<path d="M260.941 83.0244C260.61 83.0303 260.28 82.9828 259.967 82.8839L259.592 82.7786L259.886 81.7662L259.149 80.9351C258.606 80.7674 258.048 80.646 257.482 80.5723C255.765 80.3558 253.861 80.7244 252.688 81.9242C251.514 83.1239 251.296 84.7801 251.246 86.3602C251.158 89.0757 251.514 91.7794 251.689 94.4949C251.963 97.2084 251.739 99.9459 251.027 102.589C250.21 105.193 248.53 107.651 245.971 108.962C244.961 109.461 243.884 109.829 242.768 110.056L233.916 103.502L221.712 99.9024L205.725 107.592C205.308 107.822 204.955 108.141 204.695 108.523C203.446 110.278 203.665 113.45 205.862 114.627L227.93 125.611C228.66 125.975 229.472 126.169 230.299 126.177C231.126 126.185 231.942 126.007 232.68 125.658L248.137 118.32C249.115 117.854 249.978 117.202 250.671 116.405C251.363 115.607 251.87 114.683 252.157 113.69L261.009 83.0361L260.941 83.0244Z" fill="#37474F"/>
<path d="M205.721 107.575L221.709 99.8853L233.913 103.484L242.765 110.039C242.078 110.197 241.379 110.326 240.692 110.454C238.86 110.704 237.089 111.254 235.461 112.081C233.888 112.989 232.621 114.539 232.608 116.272L233.17 120.368L232.677 120.596C231.94 120.948 231.123 121.127 230.296 121.12C229.469 121.113 228.656 120.919 227.926 120.556L205.859 109.571C205.388 109.314 204.989 108.957 204.691 108.529C204.949 108.139 205.302 107.811 205.721 107.575Z" fill="#455A64"/>
<path opacity="0.1" d="M205.721 107.575L221.709 99.8853L233.913 103.484L242.765 110.039C242.078 110.197 241.379 110.326 240.692 110.454C238.86 110.704 237.089 111.254 235.461 112.081C233.888 112.989 232.621 114.539 232.608 116.272L233.17 120.368L232.677 120.596C231.94 120.948 231.123 121.127 230.296 121.12C229.469 121.113 228.656 120.919 227.926 120.556L205.859 109.571C205.388 109.314 204.989 108.957 204.691 108.529C204.949 108.139 205.302 107.811 205.721 107.575Z" fill="black"/>
<path d="M208.043 94.7184C208.043 94.7184 220.878 98.2298 224.274 95.1339C228.5 91.248 226.727 81.4513 226.228 77.618C225.728 73.7848 226.228 71.1279 227.358 70.0101C228.488 68.8923 230.129 67.2361 235.473 69.3019C230.098 71.8945 231.727 85.1675 233.407 90.1185C229.193 94.18 227.164 99.5466 227.096 102.473C227.096 102.473 216.127 104.983 210.403 107.927L208.043 94.7184Z" fill="#455A64"/>
<path opacity="0.1" d="M208.043 94.7184C208.043 94.7184 220.878 98.2298 224.274 95.1339C228.5 91.248 226.727 81.4513 226.228 77.618C225.728 73.7848 226.228 71.1279 227.358 70.0101C228.488 68.8923 230.129 67.2361 235.473 69.3019C230.098 71.8945 230.804 85.1675 232.502 90.1185C228.288 94.18 227.177 99.5466 227.096 102.473C227.096 102.473 216.127 104.983 210.403 107.927L208.043 94.7184Z" fill="white"/>
<path d="M210.38 107.925L207.752 106.597C207.752 99.8315 206.69 100.499 204.699 97.8183C202.708 95.1379 205.76 93.5169 208.051 94.6932C210.342 95.8695 211.279 99.4452 210.38 107.925Z" fill="#455A64"/>
<path opacity="0.2" d="M210.38 107.925L207.752 106.597C207.752 99.8315 206.69 100.499 204.699 97.8183C202.708 95.1379 205.76 93.5169 208.051 94.6932C210.342 95.8695 211.279 99.4452 210.38 107.925Z" fill="white"/>
<path d="M235.441 69.3008C235.441 69.3008 249.799 75.1531 256.816 78.3835L256.304 80.7771L233.375 71.0155C233.916 70.3044 234.623 69.718 235.441 69.3008Z" fill="#455A64"/>
<path opacity="0.1" d="M235.441 69.3008C235.441 69.3008 249.799 75.1531 256.816 78.3835L256.304 80.7771L233.375 71.0155C233.916 70.3044 234.623 69.718 235.441 69.3008Z" fill="white"/>
<path d="M231.078 89.1816C229.624 84.9504 229.923 75.3527 233.382 71.0396L256.311 80.8012L251.073 105.422L242.77 110.063L227.07 102.472C227.151 99.546 226.864 93.2256 231.078 89.1816Z" fill="#455A64"/>
<path d="M245.268 94.1149C244.881 93.9042 244.562 94.0739 244.562 94.4953C244.575 94.7229 244.645 94.9445 244.766 95.1419C244.888 95.3393 245.058 95.5068 245.262 95.6306C245.649 95.8413 245.967 95.6774 245.967 95.2561C245.956 95.0274 245.886 94.8047 245.765 94.6062C245.643 94.4077 245.473 94.2393 245.268 94.1149Z" fill="#455A64"/>
<path d="M241.719 92.1583C241.326 91.9476 241.014 92.1174 241.008 92.5387C241.022 92.7665 241.094 92.988 241.216 93.1852C241.339 93.3824 241.509 93.5498 241.713 93.6741C242.1 93.8848 242.419 93.7209 242.419 93.2995C242.406 93.0712 242.336 92.849 242.214 92.6507C242.093 92.4525 241.923 92.2838 241.719 92.1583Z" fill="#455A64"/>
<path d="M238.166 90.2062C237.779 89.9955 237.461 90.1652 237.461 90.5866C237.474 90.814 237.545 91.0352 237.666 91.2325C237.787 91.4297 237.957 91.5974 238.16 91.7219C238.553 91.9326 238.866 91.7687 238.872 91.3474C238.858 91.1187 238.787 90.8962 238.664 90.698C238.541 90.4998 238.371 90.3313 238.166 90.2062Z" fill="#455A64"/>
<path d="M234.623 88.2501C234.23 88.0394 233.918 88.2092 233.918 88.6305C233.93 88.8581 234 89.0798 234.122 89.2771C234.243 89.4745 234.413 89.642 234.617 89.7659C235.004 89.9766 235.323 89.8127 235.323 89.3913C235.31 89.163 235.24 88.9408 235.118 88.7425C234.997 88.5443 234.827 88.3756 234.623 88.2501Z" fill="#455A64"/>
<g opacity="0.2">
<path opacity="0.2" d="M245.268 94.1149C244.881 93.9042 244.562 94.0739 244.562 94.4953C244.575 94.7229 244.645 94.9445 244.766 95.1419C244.888 95.3393 245.058 95.5068 245.262 95.6306C245.649 95.8413 245.967 95.6774 245.967 95.2561C245.956 95.0274 245.886 94.8047 245.765 94.6062C245.643 94.4077 245.473 94.2393 245.268 94.1149Z" fill="white"/>
<path opacity="0.2" d="M241.719 92.1603C241.326 91.9496 241.014 92.1193 241.008 92.5407C241.022 92.7685 241.094 92.9899 241.216 93.1871C241.339 93.3843 241.509 93.5518 241.713 93.676C242.1 93.8867 242.419 93.7229 242.419 93.3015C242.406 93.0732 242.336 92.8509 242.214 92.6527C242.093 92.4544 241.923 92.2858 241.719 92.1603Z" fill="white"/>
<path opacity="0.2" d="M238.166 90.2062C237.779 89.9955 237.461 90.1652 237.461 90.5866C237.474 90.814 237.545 91.0352 237.666 91.2325C237.787 91.4297 237.957 91.5974 238.16 91.7219C238.553 91.9326 238.866 91.7687 238.872 91.3474C238.858 91.1187 238.787 90.8962 238.664 90.698C238.541 90.4998 238.371 90.3313 238.166 90.2062Z" fill="white"/>
<path opacity="0.2" d="M234.623 88.2501C234.23 88.0394 233.918 88.2092 233.918 88.6305C233.93 88.8581 234 89.0798 234.122 89.2771C234.243 89.4745 234.413 89.642 234.617 89.7659C235.004 89.9766 235.323 89.8127 235.323 89.3913C235.31 89.163 235.24 88.9408 235.118 88.7425C234.997 88.5443 234.827 88.3756 234.623 88.2501Z" fill="white"/>
</g>
<path d="M235.465 112.082C237.093 111.255 238.864 110.704 240.697 110.455C241.383 110.327 242.082 110.198 242.769 110.04C243.885 109.812 244.962 109.444 245.972 108.945C248.506 107.635 250.21 105.177 251.028 102.572C251.738 99.9333 251.962 97.1999 251.69 94.4903C251.515 91.7748 251.159 89.0711 251.247 86.3556C251.297 84.7755 251.552 83.0842 252.689 81.9196C253.825 80.755 255.766 80.3511 257.483 80.5677C258.049 80.6414 258.607 80.7628 259.15 80.9305L259.911 81.7674L259.618 82.7798L252.158 108.606C251.641 110.4 250.416 111.942 248.731 112.919C248.537 113.03 248.344 113.142 248.138 113.235L233.156 120.346L232.594 116.249C232.625 114.54 233.892 112.989 235.465 112.082Z" fill="#37474F"/>
<path d="M235.449 109.303C240.924 107.839 246.299 107.652 248.284 103.965C250.269 100.278 250.406 95.1868 249.414 86.344C249.291 85.2038 249.32 84.0538 249.501 82.9204C250.088 79.6139 252.211 78.1976 254.651 78.1625C257.067 78.123 259.409 78.9475 261.2 80.4683C261.547 80.7403 261.825 81.0824 262.011 81.469C262.098 81.6596 262.13 81.8684 262.102 82.074C262.075 82.2797 261.99 82.4748 261.855 82.6395C261.633 82.8552 261.332 82.983 261.013 82.9965H260.944C260.613 83.0024 260.284 82.9549 259.97 82.856L259.595 82.7507C258.928 82.5517 258.266 82.3176 257.585 82.1655C256.77 81.9401 255.903 81.9401 255.088 82.1655C254.705 82.3067 254.363 82.5301 254.089 82.8177C253.815 83.1053 253.616 83.4491 253.509 83.8217C251.199 90.8912 254.133 98.4875 251.53 104.305C249.408 109.613 242.066 111.819 236.891 113.393C237.395 113.207 237.84 112.903 238.183 112.51C238.442 112.135 238.561 111.692 238.524 111.248C238.487 110.804 238.295 110.383 237.977 110.052C237.653 109.744 237.253 109.515 236.812 109.384C236.372 109.254 235.904 109.226 235.449 109.303Z" fill="#455A64"/>
<path opacity="0.1" d="M235.449 109.303C240.924 107.839 246.299 107.652 248.284 103.965C250.269 100.278 250.406 95.1868 249.414 86.344C249.291 85.2038 249.32 84.0538 249.501 82.9204C250.088 79.6139 252.211 78.1976 254.651 78.1625C257.067 78.123 259.409 78.9475 261.2 80.4683C261.547 80.7403 261.825 81.0824 262.011 81.469C262.098 81.6596 262.13 81.8684 262.102 82.074C262.075 82.2797 261.99 82.4748 261.855 82.6395C261.633 82.8552 261.332 82.983 261.013 82.9965H260.944C260.613 83.0024 260.284 82.9549 259.97 82.856L259.595 82.7507C258.928 82.5517 258.266 82.3176 257.585 82.1655C256.77 81.9401 255.903 81.9401 255.088 82.1655C254.705 82.3067 254.363 82.5301 254.089 82.8177C253.815 83.1053 253.616 83.4491 253.509 83.8217C251.199 90.8912 254.133 98.4875 251.53 104.305C249.408 109.613 242.066 111.819 236.891 113.393C237.395 113.207 237.84 112.903 238.183 112.51C238.442 112.135 238.561 111.692 238.524 111.248C238.487 110.804 238.295 110.383 237.977 110.052C237.653 109.744 237.253 109.515 236.812 109.384C236.372 109.254 235.904 109.226 235.449 109.303Z" fill="white"/>
<path d="M231.648 112.937C231.968 112.1 232.441 111.322 233.046 110.637C233.659 109.949 234.505 109.478 235.443 109.303C235.91 109.222 236.391 109.252 236.843 109.39C237.294 109.528 237.701 109.769 238.028 110.093C238.345 110.424 238.537 110.845 238.574 111.289C238.611 111.733 238.492 112.177 238.234 112.551C237.891 112.944 237.446 113.248 236.942 113.434C236.529 113.597 236.126 113.783 235.737 113.99C234.715 114.637 233.98 115.611 233.67 116.729C233.363 117.838 233.202 118.978 233.19 120.124V120.346L230.624 119.012C230.506 116.942 230.855 114.872 231.648 112.937Z" fill="#455A64"/>
<path opacity="0.2" d="M231.648 112.937C231.968 112.1 232.441 111.322 233.046 110.637C233.659 109.949 234.505 109.478 235.443 109.303C235.91 109.222 236.391 109.252 236.843 109.39C237.294 109.528 237.701 109.769 238.028 110.093C238.345 110.424 238.537 110.845 238.574 111.289C238.611 111.733 238.492 112.177 238.234 112.551C237.891 112.944 237.446 113.248 236.942 113.434C236.529 113.597 236.126 113.783 235.737 113.99C234.715 114.637 233.98 115.611 233.67 116.729C233.363 117.838 233.202 118.978 233.19 120.124V120.346L230.624 119.012C230.506 116.942 230.855 114.872 231.648 112.937Z" fill="white"/>
<path d="M266.338 89.3872L265.926 88.9658L241.387 98.2593L243.672 106.014L244.084 106.429L268.617 97.1415L266.338 89.3872Z" fill="#1489A9"/>
<path opacity="0.2" d="M241.387 98.2588L243.672 106.013L244.084 106.429L241.799 98.6802L241.387 98.2588Z" fill="black"/>
<path opacity="0.2" d="M266.338 89.3872L265.926 88.9658L241.387 98.2593L241.799 98.6806L266.338 89.3872Z" fill="white"/>
<path d="M254.59 99.9745L253.622 96.6796C253.609 96.6352 253.586 96.5941 253.553 96.5596C253.521 96.525 253.48 96.498 253.435 96.4806H253.373H253.304C253.258 96.4752 253.212 96.4752 253.167 96.4806C253.113 96.4972 253.063 96.5253 253.023 96.5626C252.982 96.5949 252.948 96.6347 252.923 96.6796C252.908 96.7098 252.895 96.7411 252.886 96.7733C252.883 96.7888 252.883 96.8045 252.886 96.8201C252.873 96.8681 252.873 96.9183 252.886 96.9664L253.273 98.2832L251.088 99.0791L250.701 97.7623C250.685 97.7066 250.653 97.6564 250.608 97.6179C250.562 97.5794 250.505 97.5543 250.445 97.5458H250.326C250.281 97.5374 250.234 97.5374 250.189 97.5458C250.135 97.5682 250.084 97.5978 250.039 97.6336C249.999 97.6668 249.965 97.7064 249.939 97.7506C249.924 97.7807 249.911 97.8121 249.902 97.8442C249.902 97.8442 249.902 97.8793 249.902 97.8911C249.892 97.9394 249.892 97.989 249.902 98.0374L250.875 101.332C250.888 101.378 250.912 101.42 250.944 101.455C250.965 101.472 250.988 101.486 251.013 101.496C251.025 101.499 251.038 101.499 251.05 101.496C251.081 101.502 251.113 101.502 251.144 101.496H251.2C251.256 101.495 251.311 101.483 251.362 101.461C251.465 101.426 251.552 101.358 251.605 101.269C251.659 101.18 251.677 101.076 251.656 100.975L251.263 99.635L253.391 98.8274L253.785 100.168C253.811 100.244 253.867 100.309 253.941 100.349C253.941 100.349 253.941 100.349 253.972 100.349C254.003 100.355 254.035 100.355 254.065 100.349H254.115C254.144 100.352 254.174 100.352 254.203 100.349H254.278C254.363 100.322 254.438 100.272 254.493 100.205C254.549 100.139 254.582 100.059 254.59 99.9745Z" fill="white"/>
<path d="M249.888 101.32C249.874 101.28 249.851 101.243 249.821 101.212C249.791 101.18 249.754 101.155 249.713 101.138H249.588C249.551 101.133 249.513 101.133 249.476 101.138C249.431 101.156 249.389 101.18 249.351 101.209C249.318 101.237 249.289 101.268 249.264 101.302L249.195 101.39C249.163 101.437 249.128 101.482 249.089 101.525L249.058 101.566L248.933 101.683C248.911 101.711 248.886 101.736 248.858 101.759C248.827 101.788 248.783 101.812 248.746 101.841L248.627 101.923L248.49 101.987L248.315 102.069L248.115 102.128H248.065H248.009C247.672 102.198 247.319 102.141 247.027 101.969C246.735 101.797 246.527 101.524 246.448 101.209C246.395 101.018 246.38 100.819 246.405 100.623C246.416 100.528 246.437 100.434 246.467 100.343C246.465 100.319 246.465 100.296 246.467 100.272C246.492 100.202 246.523 100.133 246.561 100.068C246.6 99.9921 246.646 99.9197 246.698 99.851L246.729 99.8159C246.785 99.7461 246.848 99.6814 246.916 99.6227L246.985 99.5759C247.131 99.4568 247.298 99.3618 247.478 99.295C247.848 99.1475 248.262 99.1288 248.646 99.2423C248.729 99.2667 248.818 99.2667 248.902 99.2423C249.005 99.2089 249.092 99.141 249.146 99.0516C249.2 98.9621 249.218 98.8572 249.195 98.7566C249.177 98.7033 249.144 98.655 249.101 98.6162C249.065 98.5869 249.022 98.565 248.977 98.5518C248.919 98.5373 248.861 98.5256 248.802 98.5167H248.677H248.583C248.467 98.5049 248.35 98.5049 248.234 98.5167C248.075 98.5242 247.918 98.5478 247.765 98.5869C247.612 98.6222 247.462 98.6692 247.316 98.7273C247.15 98.7861 246.991 98.8606 246.842 98.9497C246.706 99.0314 246.577 99.1213 246.455 99.2189C246.457 99.2286 246.457 99.2386 246.455 99.2482C246.348 99.3419 246.248 99.4416 246.155 99.5467L246.111 99.5993C246.023 99.7065 245.943 99.82 245.874 99.9388C245.83 100.009 245.805 100.091 245.768 100.161C245.73 100.231 245.712 100.284 245.687 100.343C245.664 100.413 245.647 100.486 245.637 100.559C245.614 100.626 245.597 100.695 245.587 100.764C245.58 100.859 245.58 100.955 245.587 101.051C245.584 101.097 245.584 101.144 245.587 101.191C245.593 101.334 245.619 101.475 245.662 101.613C245.706 101.754 245.764 101.891 245.837 102.022C245.862 102.062 245.891 102.099 245.924 102.133C245.973 102.214 246.029 102.29 246.092 102.362C246.144 102.411 246.198 102.458 246.255 102.502L246.355 102.59L246.423 102.637H246.473C246.54 102.679 246.611 102.717 246.686 102.748L246.735 102.777C247.022 102.885 247.329 102.938 247.638 102.933C247.946 102.928 248.251 102.865 248.533 102.748C249.151 102.527 249.669 102.114 250 101.577C250.001 101.53 249.991 101.482 249.972 101.438C249.952 101.394 249.924 101.354 249.888 101.32Z" fill="white"/>
<path d="M256.571 99.2237L255.604 95.9289C255.588 95.8779 255.559 95.8317 255.518 95.7948C255.478 95.7578 255.427 95.7314 255.373 95.7182C255.344 95.7154 255.314 95.7154 255.285 95.7182H255.248C255.205 95.7098 255.16 95.7098 255.117 95.7182C255.063 95.7406 255.012 95.7702 254.967 95.806C254.928 95.8408 254.895 95.8801 254.867 95.923C254.851 95.9528 254.838 95.9842 254.83 96.0167C254.827 96.0322 254.827 96.048 254.83 96.0635C254.817 96.1115 254.817 96.1617 254.83 96.2098L255.797 99.4988C255.816 99.5617 255.856 99.6173 255.911 99.6574C255.966 99.6974 256.033 99.7198 256.103 99.7212H256.134C256.19 99.7173 256.245 99.7054 256.297 99.686C256.392 99.65 256.471 99.5845 256.521 99.5003C256.571 99.4162 256.589 99.3186 256.571 99.2237Z" fill="white"/>
<path d="M258.255 98.9369L259.104 98.6209L260.89 97.942C260.981 97.9081 261.057 97.8449 261.104 97.7635C261.151 97.6821 261.166 97.5878 261.145 97.4973C261.126 97.4376 261.086 97.3857 261.032 97.3497C260.978 97.3137 260.912 97.2956 260.846 97.2983C260.803 97.2899 260.758 97.2899 260.715 97.2983L258.467 98.1527L258.162 97.0993L260.084 96.3736C260.175 96.34 260.251 96.2779 260.299 96.1979C260.346 96.118 260.363 96.025 260.346 95.9347C260.335 95.8936 260.314 95.8554 260.285 95.8229C260.256 95.7905 260.219 95.7647 260.178 95.7474H260.115H260.047C260.003 95.742 259.959 95.742 259.916 95.7474L257.993 96.4731L257.693 95.4548L259.903 94.6179C259.951 94.5996 259.995 94.5739 260.034 94.5419C260.09 94.4983 260.131 94.4417 260.156 94.3779C260.18 94.3142 260.185 94.2455 260.172 94.179C260.16 94.1512 260.143 94.1255 260.122 94.1029C260.094 94.0732 260.06 94.0493 260.022 94.0327H259.903C259.856 94.0346 259.809 94.0445 259.766 94.062L257.169 95.0452C257.115 95.0676 257.064 95.0972 257.019 95.1329C256.979 95.1662 256.945 95.2058 256.919 95.25C256.902 95.279 256.892 95.3108 256.888 95.3436V95.3904C256.876 95.4385 256.876 95.4887 256.888 95.5367L257.837 98.7672C257.852 98.8147 257.877 98.8586 257.912 98.896H257.943L258.005 98.9369H258.049H258.137H258.224H258.255Z" fill="white"/>
<path d="M264.357 94.1787C264.312 94.1829 264.268 94.1927 264.226 94.2079L262.297 94.9395L261.979 93.8627L264.195 93.0258C264.289 92.994 264.368 92.9316 264.417 92.85C264.466 92.7684 264.483 92.673 264.463 92.581C264.452 92.5399 264.431 92.5017 264.402 92.4692C264.373 92.4368 264.336 92.411 264.295 92.3937C264.255 92.3876 264.215 92.3876 264.176 92.3937C264.131 92.3979 264.087 92.4077 264.045 92.423L261.436 93.412C261.382 93.4286 261.332 93.4567 261.292 93.494C261.252 93.5255 261.219 93.5631 261.192 93.6052C261.176 93.6324 261.166 93.6622 261.161 93.693C261.158 93.7104 261.158 93.7282 261.161 93.7456C261.155 93.7864 261.155 93.8278 261.161 93.8685L262.122 97.1341C262.135 97.1807 262.161 97.2232 262.197 97.257H262.235C262.252 97.272 262.271 97.2857 262.291 97.298C262.328 97.3046 262.366 97.3046 262.403 97.298H262.478H262.534H262.59L262.647 97.2628H262.684H262.715C262.777 97.2147 262.823 97.1515 262.848 97.0801C262.874 97.0088 262.877 96.9322 262.859 96.859L262.484 95.5774L264.407 94.8459C264.504 94.8151 264.586 94.7525 264.637 94.6697C264.689 94.5869 264.707 94.4895 264.688 94.3952C264.67 94.3276 264.627 94.2684 264.566 94.2286C264.505 94.1887 264.431 94.171 264.357 94.1787Z" fill="white"/>
<path d="M254.072 76.8384H254.035C253.869 76.8479 253.704 76.8714 253.542 76.9086C250.302 77.6811 247.231 84.7039 244.671 97.1751C244.667 97.1978 244.667 97.221 244.672 97.2436C244.677 97.2662 244.687 97.2876 244.701 97.3066C244.715 97.3256 244.732 97.3419 244.753 97.3545C244.774 97.367 244.797 97.3757 244.821 97.3799H244.858C244.903 97.3794 244.946 97.3645 244.98 97.3379C245.014 97.3112 245.037 97.2744 245.046 97.2336C246.556 89.8597 249.759 77.3709 254.054 77.1837H254.185C254.376 77.2245 254.555 77.3045 254.709 77.4178L255.702 77.8625C255.09 77.2305 254.528 76.8384 254.072 76.8384Z" fill="#E6E6E6"/>
</g>
<defs>
<filter id="filter0_d_2_413" x="8.13672" y="34.8726" width="295.862" height="253.887" filterUnits="userSpaceOnUse" color-interpolation-filters="sRGB">
<feFlood flood-opacity="0" result="BackgroundImageFix"/>
<feColorMatrix in="SourceAlpha" type="matrix" values="0 0 0 0 0 0 0 0 0 0 0 0 0 0 0 0 0 0 127 0" result="hardAlpha"/>
<feOffset dy="4"/>
<feGaussianBlur stdDeviation="2"/>
<feComposite in2="hardAlpha" operator="out"/>
<feColorMatrix type="matrix" values="0 0 0 0 0 0 0 0 0 0 0 0 0 0 0 0 0 0 0.25 0"/>
<feBlend mode="normal" in2="BackgroundImageFix" result="effect1_dropShadow_2_413"/>
<feBlend mode="normal" in="SourceGraphic" in2="effect1_dropShadow_2_413" result="shape"/>
</filter>
</defs>
</svg>
