<svg width="310" height="270" viewBox="0 0 310 270" fill="none" xmlns="http://www.w3.org/2000/svg">
<g filter="url(#filter0_d_2_790)">
<g opacity="0.5">
<path d="M144.969 1.47493C228.814 -5.36698 228.976 38.1289 266.768 78.6766C304.559 119.224 312.659 137.604 298.406 184.359C284.152 231.114 236.157 267.75 176.749 246.988C117.34 226.225 83.3425 246.167 45.8826 227.706C8.4227 209.245 -5.46585 173.68 21.9529 131.683C49.3716 89.6858 41.5619 9.94646 144.969 1.47493Z" fill="#2C3636"/>
<path d="M144.969 1.47493C228.814 -5.36698 228.976 38.1289 266.768 78.6766C304.559 119.224 312.659 137.604 298.406 184.359C284.152 231.114 236.157 267.75 176.749 246.988C117.34 226.225 83.3425 246.167 45.8826 227.706C8.4227 209.245 -5.46585 173.68 21.9529 131.683C49.3716 89.6858 41.5619 9.94646 144.969 1.47493Z" fill="#1489A9"/>
</g>
<path opacity="0.2" d="M180.429 220.864L179.185 220.739C178.608 220.706 178.063 220.485 177.648 220.116C177.233 219.746 176.975 219.253 176.92 218.724C176.243 212.149 170.077 207.528 162.044 206.688C154.815 205.942 146.492 208.878 141.028 213.903C140.348 214.567 139.518 215.085 138.596 215.42C137.674 215.755 136.683 215.9 135.693 215.844L129.54 215.222C128.694 215.159 127.892 214.847 127.253 214.333C126.614 213.819 126.171 213.13 125.99 212.367C124.543 206.62 118.945 202.247 111.71 201.501C103.683 200.674 94.6497 203.734 89.308 209.686C88.8847 210.167 88.3417 210.547 87.725 210.794C87.1082 211.041 86.4359 211.147 85.7649 211.104L84.5275 210.974C84.2351 210.958 83.9451 211.031 83.7013 211.18C83.4574 211.329 83.2727 211.547 83.1751 211.801L82.1541 214.544C82.0705 214.726 82.0684 214.93 82.1482 215.113C82.228 215.296 82.3833 215.443 82.5801 215.521L83.9865 216.143C84.5292 216.393 84.9607 216.809 85.2073 217.319C85.4539 217.83 85.5004 218.403 85.3389 218.942C83.1007 227.842 88.7197 235.555 98.6527 236.575C108.214 237.564 118.552 231.997 123.144 223.812C123.527 223.15 124.083 222.586 124.762 222.171C125.44 221.755 126.22 221.5 127.032 221.43C129.223 221.261 131.429 221.472 133.536 222.052C134.211 222.235 134.785 222.645 135.145 223.201C135.505 223.757 135.623 224.417 135.477 225.05C133.827 233.558 139.406 240.786 149 241.775C158.92 242.801 169.664 236.799 173.985 228.091C174.298 227.499 174.754 226.981 175.319 226.578C175.885 226.175 176.543 225.896 177.244 225.765L179.009 225.448C179.254 225.413 179.486 225.319 179.678 225.174C179.871 225.03 180.018 224.841 180.104 224.627L181.125 221.884C181.174 221.775 181.194 221.657 181.183 221.539C181.172 221.422 181.131 221.308 181.062 221.209C180.994 221.109 180.901 221.026 180.791 220.966C180.681 220.906 180.557 220.871 180.429 220.864ZM99.4979 234.274C90.2817 233.322 85.3321 225.715 88.4628 217.312C91.5935 208.909 101.635 202.857 110.851 203.809C120.067 204.76 125.05 212.367 121.893 220.764C118.735 229.161 108.714 235.256 99.4979 234.274ZM124.956 219.389C125.084 218.904 125.192 218.419 125.274 217.94C125.323 217.742 125.447 217.566 125.624 217.444C125.801 217.322 126.02 217.262 126.24 217.275L137.276 218.413C137.373 218.422 137.467 218.453 137.547 218.505C137.627 218.557 137.692 218.627 137.734 218.708C137.776 218.789 137.795 218.88 137.788 218.97C137.781 219.059 137.749 219.146 137.695 219.221C137.431 219.676 137.188 220.136 136.958 220.609C132.509 218.581 127.6 218.948 124.956 219.389ZM149.839 239.474C140.623 238.522 135.639 230.915 138.797 222.512C141.955 214.109 151.976 208.057 161.192 209.008C170.408 209.96 175.358 217.567 172.227 225.964C169.096 234.361 159.055 240.425 149.839 239.474Z" fill="black" fill-opacity="0.7"/>
<path d="M172.251 221.361L100.685 218.593C98.9959 218.528 97.3105 218.791 95.7381 219.363C94.1657 219.935 92.7413 220.804 91.5571 221.915L78.7098 233.956C78.5916 234.069 78.5024 234.204 78.4487 234.353C78.395 234.501 78.3782 234.659 78.3997 234.814C78.4211 234.969 78.4801 235.118 78.5724 235.25C78.6647 235.381 78.788 235.492 78.933 235.574C79.5713 235.92 80.3172 236.06 81.0522 235.972C81.7871 235.885 82.4691 235.573 82.99 235.088L94.9177 223.967C95.6266 223.305 96.4768 222.786 97.4148 222.441C98.3527 222.096 99.3581 221.934 100.368 221.964L172.042 224.141L172.251 221.361Z" fill="black"/>
<path d="M76.8693 211.527L147.61 221.839C149.281 222.085 150.877 222.649 152.295 223.497C153.714 224.344 154.923 225.456 155.846 226.759L165.853 240.904C165.947 241.034 166.008 241.182 166.03 241.337C166.052 241.492 166.036 241.65 165.982 241.798C165.927 241.946 165.837 242.081 165.718 242.192C165.598 242.304 165.453 242.388 165.292 242.44C164.59 242.67 163.824 242.676 163.118 242.457C162.411 242.239 161.805 241.807 161.398 241.233L152.147 228.171C151.596 227.393 150.875 226.729 150.03 226.22C149.185 225.712 148.234 225.37 147.238 225.217L76.5312 214.295L76.8693 211.527Z" fill="black"/>
<path d="M118.839 222.561C119.677 222.847 118.602 228.284 116.283 229.832C113.963 231.381 112.807 226.542 113.625 225.018C114.443 223.494 116.208 221.647 118.839 222.561Z" fill="#757575" stroke="black" stroke-linecap="round" stroke-linejoin="round"/>
<path d="M131.223 223.837C130.337 223.949 130.08 229.466 131.967 231.451C133.853 233.435 136.152 228.963 135.719 227.302C135.287 225.641 134.009 223.483 131.223 223.837Z" fill="#757575" stroke="black" stroke-linecap="round" stroke-linejoin="round"/>
<path opacity="0.4" d="M89.8416 204.705C94.0812 202.397 102.838 198.715 110.492 204.798C118.146 210.881 120.127 216.46 117.051 223.109C113.974 229.758 106.82 238.13 94.4463 234.473C82.0724 230.816 76.6698 211.87 89.8416 204.705Z" fill="white"/>
<path opacity="0.4" d="M140.124 210.514C144.37 208.207 153.12 204.524 160.774 210.607C168.428 216.691 170.416 222.264 167.333 228.919C164.25 235.574 157.123 243.965 144.729 240.276C132.334 236.588 126.945 217.68 140.124 210.514Z" fill="white"/>
<path d="M173.901 220.602L172.656 220.471C172.04 220.412 171.456 220.189 170.975 219.829C170.495 219.468 170.139 218.987 169.952 218.444C167.72 211.807 160.587 207.142 152.561 206.315C145.332 205.562 137.915 208.535 133.804 213.617C133.269 214.295 132.551 214.833 131.721 215.177C130.891 215.521 129.977 215.658 129.07 215.576L122.91 214.954C122.006 214.849 121.148 214.528 120.42 214.023C119.693 213.518 119.123 212.846 118.766 212.074C117.249 209.107 114.935 206.545 112.042 204.629C109.149 202.714 105.773 201.509 102.233 201.127C94.207 200.294 86.1268 203.391 82.3537 209.406C82.0414 209.897 81.5802 210.294 81.0266 210.548C80.4731 210.802 79.8511 210.903 79.2366 210.837L77.9992 210.706C77.7284 210.678 77.4567 210.75 77.2436 210.907C77.0306 211.063 76.8938 211.291 76.8632 211.54L76.5252 214.307C76.5011 214.518 76.5547 214.73 76.6773 214.909C76.7999 215.089 76.9845 215.225 77.2013 215.296L78.7295 215.949C79.3203 216.195 79.8219 216.592 80.1744 217.093C80.5268 217.593 80.7153 218.177 80.7174 218.773C80.698 223.088 82.3802 227.262 85.4519 230.522C88.5236 233.782 92.7764 235.907 97.4216 236.503C102.067 237.098 106.789 236.124 110.713 233.76C114.636 231.397 117.495 227.805 118.759 223.65C118.964 222.994 119.382 222.412 119.958 221.982C120.533 221.551 121.238 221.294 121.977 221.243C124.164 221.079 126.365 221.29 128.469 221.865C129.187 222.063 129.823 222.459 130.289 222.999C130.756 223.54 131.031 224.199 131.079 224.888C131.3 229.2 133.215 233.292 136.469 236.403C139.722 239.515 144.092 241.435 148.768 241.806C153.444 242.178 158.107 240.976 161.893 238.424C165.678 235.872 168.328 232.143 169.35 227.929C169.495 227.348 169.819 226.817 170.283 226.4C170.747 225.983 171.331 225.698 171.967 225.578L173.617 225.254C173.84 225.223 174.047 225.126 174.204 224.976C174.362 224.827 174.462 224.634 174.489 224.427L174.827 221.659C174.844 221.534 174.833 221.406 174.795 221.284C174.758 221.162 174.694 221.049 174.607 220.95C174.521 220.852 174.414 220.77 174.292 220.71C174.171 220.65 174.038 220.614 173.901 220.602ZM98.1694 234.205C94.8629 233.864 91.7407 232.628 89.1976 230.654C86.6545 228.681 84.8047 226.057 83.8823 223.117C82.9598 220.176 83.006 217.05 84.015 214.133C85.0241 211.217 86.9507 208.641 89.5512 206.732C92.1516 204.822 95.3092 203.665 98.6246 203.407C101.94 203.148 105.264 203.8 108.177 205.279C111.09 206.758 113.46 208.999 114.989 211.717C116.517 214.436 117.135 217.511 116.764 220.552C116.261 224.624 114.025 228.347 110.545 230.906C107.065 233.464 102.625 234.651 98.1964 234.205H98.1694ZM119.421 219.159C119.421 218.668 119.421 218.182 119.388 217.697C119.378 217.602 119.392 217.507 119.429 217.418C119.466 217.329 119.524 217.249 119.6 217.184C119.676 217.119 119.767 217.071 119.866 217.043C119.965 217.016 120.07 217.01 120.172 217.026L131.2 218.164C131.304 218.169 131.406 218.197 131.496 218.244C131.587 218.292 131.664 218.358 131.723 218.437C131.781 218.517 131.818 218.607 131.832 218.702C131.846 218.797 131.836 218.894 131.802 218.985C131.653 219.439 131.525 219.905 131.417 220.378C127.659 218.849 123.479 218.423 119.449 219.159H119.421ZM148.497 239.405C145.19 239.063 142.068 237.828 139.525 235.854C136.982 233.88 135.132 231.257 134.21 228.317C133.287 225.376 133.333 222.25 134.342 219.333C135.352 216.417 137.278 213.841 139.879 211.931C142.479 210.022 145.637 208.865 148.952 208.606C152.267 208.348 155.592 208.999 158.505 210.479C161.417 211.958 163.788 214.199 165.316 216.917C166.845 219.636 167.463 222.71 167.092 225.752C166.588 229.822 164.354 233.542 160.877 236.101C157.4 238.659 152.964 239.847 148.537 239.405H148.497Z" fill="#1489A9" stroke="black" stroke-linecap="round" stroke-linejoin="round"/>
<path opacity="0.5" d="M87.0099 226.841C87.0099 226.841 82.3173 218.431 88.2744 210.501C93.6364 203.373 102.893 203.958 106.862 206.315L94.5966 219.85C96.1712 216.309 98.1571 212.934 100.52 209.786C100.52 209.786 90.7694 216.149 87.0099 226.841Z" fill="white"/>
<path opacity="0.5" d="M137.302 231.587C137.302 231.587 132.616 223.177 138.573 215.253C143.929 208.119 153.192 208.703 157.161 211.061L144.889 224.595C146.627 219.296 150.812 214.531 150.812 214.531C150.812 214.531 141.062 220.894 137.302 231.587Z" fill="white"/>
<path opacity="0.2" d="M91.89 165.652C91.89 165.652 78.2111 181.271 77.2577 182.253C76.3043 183.236 76.5815 199.047 74.2419 206.169C71.9024 213.291 63.8289 220.605 45.7819 256.656L43.3477 186.421L56.6479 137.501L91.89 165.652Z" fill="black" fill-opacity="0.7"/>
<path d="M101.933 164.974C101.933 164.974 92.8997 126.809 85.7593 122.057C81.6212 119.308 75.3801 118.325 69.9302 118.804C65.9881 119.146 62.4517 120.259 60.4638 122.032C55.6765 126.255 48.7457 128.725 45.3784 131.468C42.0111 134.211 42.5926 143.285 40.8142 151.048C39.0359 158.81 35.77 159.246 35.5063 166.94C35.2426 174.634 33.7144 198.245 28.6499 205.043C23.5854 211.841 23.7815 216.948 21.9355 223.703C20.0896 230.458 5.03125 255.275 5.03125 255.275L45.9734 260.761C45.9734 260.761 48.9553 245.361 52.4444 232.771C54.0942 226.794 55.8252 221.439 57.4142 218.652C60.4352 213.274 62.9922 207.686 65.0617 201.939C69.3622 197.281 71.2352 187.366 71.4448 178.77L81.9187 172.619C90.1071 170.068 101.933 164.974 101.933 164.974Z" fill="white"/>
<path opacity="0.4" d="M101.931 164.974C101.931 164.974 92.8969 126.809 85.7565 122.057C81.6183 119.308 75.3773 118.325 69.9273 118.804C57.1747 122.492 54.1184 129.316 52.4686 131.014C50.271 133.284 48.0397 146.495 50.2102 154.027C52.3807 161.56 51.3529 164.402 50.2102 168.184C47.6542 176.568 57.337 180.481 58.5068 183.535C59.6766 186.589 60.4406 203.998 56.5932 209.882C54.5647 212.992 49.7504 228.84 52.4483 232.803C54.0982 226.825 55.8292 221.47 57.4182 218.683C60.4391 213.305 62.9961 207.717 65.0657 201.97C69.3661 197.312 71.2391 187.397 71.4487 178.801L81.9226 172.65C90.1043 170.068 101.931 164.974 101.931 164.974Z" fill="#1489A9"/>
<path d="M52.6552 170.391C52.6552 170.391 50.2142 168.046 48.1992 168.152" stroke="black" stroke-linecap="round" stroke-linejoin="round"/>
<path d="M57.0937 161.776C57.0937 161.776 54.3282 157.111 50.332 156.278" stroke="black" stroke-linecap="round" stroke-linejoin="round"/>
<path d="M50.9883 133.873C50.9883 133.873 56.6749 135.776 57.7973 139.471" stroke="black" stroke-linecap="round" stroke-linejoin="round"/>
<path d="M81.9114 172.611C81.9114 172.611 80.4171 171.063 80.3359 169.788" stroke="black" stroke-linecap="round" stroke-linejoin="round"/>
<path d="M45.9692 260.761C45.9692 260.761 52.5146 227.341 57.41 218.683C60.431 213.305 62.988 207.717 65.0575 201.97C69.358 197.312 71.231 187.391 71.4406 178.795L81.9145 172.643C90.1029 170.099 101.929 165.03 101.929 165.03C101.929 165.03 92.8955 126.865 85.7551 122.113C78.6148 117.361 65.2333 117.871 60.4325 122.113C55.6317 126.355 48.7145 128.768 45.3471 131.511C41.9798 134.254 42.5613 143.329 40.783 151.091C39.0047 158.854 35.7387 159.289 35.475 166.983C35.2113 174.677 33.6832 198.288 28.6187 205.086C23.5541 211.885 23.7502 216.991 21.9043 223.746C20.0583 230.501 5 255.319 5 255.319" stroke="black" stroke-linecap="round" stroke-linejoin="round"/>
<path d="M38.6133 48.0492L37.3999 38.0349C37.3801 37.8709 37.4318 37.7065 37.5438 37.5776C37.6558 37.4488 37.8188 37.3661 37.997 37.3478L42.6003 36.8759L43.9628 48.1203L39.3595 48.5922C39.1824 48.6104 39.0047 48.5635 38.865 48.4618C38.7253 48.3602 38.6349 48.2118 38.6133 48.0492Z" fill="#1489A9" stroke="black" stroke-linecap="round" stroke-linejoin="round"/>
<path d="M59.5158 21.4692L70.4023 20.353C70.5805 20.3347 70.7594 20.3823 70.8994 20.4853C71.0395 20.5883 71.1294 20.7383 71.1492 20.9022L71.6623 25.1367L59.4317 26.3907L58.9179 22.1501C58.8999 21.987 58.9527 21.824 59.0646 21.6965C59.1766 21.569 59.3387 21.4873 59.5158 21.4692Z" fill="#1489A9" stroke="black" stroke-linecap="round" stroke-linejoin="round"/>
<path d="M74.0481 19.9962L84.9347 18.88C85.1129 18.8618 85.2917 18.9094 85.4318 19.0124C85.5719 19.1154 85.6617 19.2654 85.6816 19.4293L86.1947 23.6637L73.9708 24.917L73.4577 20.6826C73.4379 20.5187 73.4896 20.3542 73.6016 20.2253C73.7136 20.0965 73.8766 20.0138 74.0548 19.9956L74.0481 19.9962Z" fill="#1489A9" stroke="black" stroke-linecap="round" stroke-linejoin="round"/>
<path d="M54.7607 171.149L38.6069 37.7378C38.1945 34.3369 39.2659 30.9244 41.5857 28.2493C43.9056 25.5743 47.2845 23.8551 50.9809 23.4693L261.946 1.84884C263.783 1.65681 265.642 1.79987 267.418 2.26985C269.194 2.73982 270.852 3.52747 272.296 4.58768C273.741 5.64789 274.944 6.95984 275.837 8.44838C276.729 9.93693 277.294 11.5728 277.498 13.2624L293.652 146.673C294.064 150.08 292.988 153.497 290.662 156.174C288.335 158.851 284.947 160.568 281.244 160.948L70.2788 182.562C68.445 182.751 66.5889 182.605 64.8164 182.134C63.0439 181.662 61.3898 180.874 59.9487 179.814C58.5075 178.754 57.3076 177.443 56.4174 175.956C55.5272 174.469 54.9642 172.836 54.7607 171.149Z" fill="#1489A9" stroke="black" stroke-linecap="round" stroke-linejoin="round"/>
<path d="M281.247 159.259L69.8762 180.916C66.7085 181.24 63.5309 180.392 61.042 178.561C58.553 176.73 56.9564 174.065 56.6029 171.151L40.3748 37.3731C40.0216 34.4582 40.9416 31.5337 42.9325 29.2428C44.9233 26.9519 47.822 25.4822 50.9907 25.1572L262.389 3.50564C265.556 3.18074 268.734 4.02638 271.223 5.85655C273.712 7.68671 275.309 10.3515 275.662 13.2647L291.89 147.043C292.064 148.488 291.927 149.95 291.486 151.346C291.045 152.742 290.309 154.045 289.321 155.179C288.332 156.314 287.111 157.258 285.725 157.958C284.34 158.658 282.818 159.1 281.247 159.259Z" fill="#757575" stroke="black" stroke-linecap="round" stroke-linejoin="round"/>
<path d="M51.9832 103.901C52.0025 104.001 51.9994 104.103 51.9741 104.201C51.9488 104.299 51.9019 104.392 51.8362 104.473C51.7706 104.554 51.6876 104.622 51.5923 104.672C51.4971 104.723 51.3916 104.755 51.2825 104.766C51.1733 104.778 51.0627 104.769 50.9576 104.739C50.8524 104.71 50.7549 104.661 50.6711 104.596C50.5872 104.53 50.5188 104.45 50.47 104.359C50.4212 104.269 50.3931 104.17 50.3874 104.069C50.3682 103.97 50.3713 103.867 50.3966 103.769C50.4219 103.671 50.4688 103.578 50.5344 103.497C50.6001 103.416 50.6831 103.348 50.7783 103.298C50.8736 103.247 50.979 103.216 51.0882 103.204C51.1974 103.193 51.3079 103.202 51.4131 103.231C51.5182 103.26 51.6157 103.309 51.6996 103.375C51.7835 103.44 51.8519 103.52 51.9007 103.611C51.9494 103.701 51.9775 103.8 51.9832 103.901Z" fill="#999999" stroke="black" stroke-linecap="round" stroke-linejoin="round"/>
<path d="M53.521 110.511C53.5552 110.789 53.4991 111.069 53.36 111.318C53.2208 111.566 53.0047 111.77 52.739 111.906C52.4734 112.041 52.1701 112.101 51.8676 112.077C51.565 112.054 51.2768 111.949 51.0393 111.774C50.8019 111.6 50.6259 111.366 50.5336 111.099C50.4413 110.833 50.4368 110.548 50.5208 110.28C50.6048 110.011 50.7734 109.772 51.0053 109.592C51.2373 109.411 51.5221 109.299 51.8238 109.267C52.2282 109.225 52.6341 109.333 52.9524 109.566C53.2706 109.799 53.4751 110.139 53.521 110.511Z" fill="black"/>
<path d="M51.5405 94.1722C51.5747 94.4497 51.5187 94.7303 51.3795 94.9785C51.2403 95.2267 51.0242 95.4314 50.7586 95.5666C50.4929 95.7018 50.1896 95.7615 49.8871 95.7382C49.5845 95.7149 49.2963 95.6095 49.0589 95.4354C48.8214 95.2614 48.6454 95.0265 48.5531 94.7604C48.4608 94.4944 48.4564 94.2091 48.5403 93.9407C48.6243 93.6723 48.7929 93.4329 49.0249 93.2526C49.2568 93.0724 49.5416 92.9595 49.8433 92.9282C50.2474 92.8879 50.6523 92.996 50.9702 93.229C51.288 93.4619 51.493 93.8009 51.5405 94.1722Z" fill="black"/>
<path d="M53.6883 115.213C53.7206 115.485 53.6343 115.757 53.4486 115.97C53.2628 116.182 52.9927 116.319 52.6977 116.348C52.4027 116.378 52.1069 116.299 51.8755 116.128C51.6441 115.957 51.496 115.709 51.4637 115.437C51.4477 115.303 51.4606 115.167 51.5018 115.037C51.5429 114.907 51.6114 114.786 51.7034 114.681C51.8892 114.468 52.1593 114.332 52.4543 114.302C52.7493 114.272 53.045 114.352 53.2764 114.523C53.5079 114.693 53.656 114.942 53.6883 115.213Z" fill="black"/>
<path d="M64.4998 171.816L48.1297 36.9496C47.9569 35.5113 48.4117 34.0687 49.3942 32.9387C50.3768 31.8086 51.8067 31.0835 53.37 30.9225L265.938 9.15273C267.502 8.9937 269.071 9.41189 270.301 10.3156C271.53 11.2192 272.32 12.5346 272.497 13.9732L288.826 148.858C288.913 149.571 288.846 150.292 288.629 150.98C288.413 151.669 288.051 152.311 287.564 152.871C287.077 153.431 286.476 153.897 285.793 154.242C285.11 154.588 284.361 154.807 283.586 154.885L71.0181 176.655C69.4561 176.809 67.8919 176.385 66.6695 175.477C65.4471 174.57 64.6667 173.253 64.4998 171.816Z" fill="white"/>
<path opacity="0.3" d="M266.308 9.10858L53.0167 30.9591C52.2885 31.0326 51.5832 31.2377 50.9413 31.5625C50.2994 31.8873 49.7335 32.3255 49.2762 32.8519C48.8188 33.3784 48.479 33.9828 48.2761 34.6303C48.0733 35.2779 48.0115 35.9559 48.0942 36.6255L64.5116 172.158C64.5915 172.827 64.8144 173.476 65.1675 174.067C65.5206 174.657 65.997 175.178 66.5693 175.598C67.1416 176.019 67.7986 176.332 68.5026 176.518C69.2065 176.705 69.9436 176.762 70.6715 176.686L283.949 154.835C284.678 154.761 285.383 154.555 286.025 154.23C286.666 153.905 287.232 153.467 287.69 152.941C288.148 152.415 288.488 151.811 288.692 151.164C288.896 150.516 288.96 149.838 288.879 149.169L272.468 13.6367C272.303 12.2851 271.562 11.049 270.407 10.1999C269.252 9.35085 267.778 8.95832 266.308 9.10858Z" fill="#1489A9"/>
<path d="M113.187 42.286H113.14L113.2 50.204L109.752 50.5523L106.195 36.0537L108.636 35.8049L111.341 47.2433H111.388L111.158 35.5436L113.572 35.301L116.216 46.839H116.264L116.128 35.0212L118.319 34.791V49.6628L114.986 49.9987L113.187 42.286Z" fill="black"/>
<path d="M122.834 40.6129L126.283 40.2645L126.533 42.3607L123.091 42.7152L123.612 47.0132L127.946 46.5715L128.196 48.6676L121.36 49.3705L119.582 34.6853L126.418 33.9824L126.675 36.0785L122.341 36.5264L122.834 40.6129Z" fill="black"/>
<path d="M141.416 47.3117L138.881 47.5729L138.123 44.9295L135.047 45.2467L134.939 47.9523L132.633 48.1887L133.41 33.2609L137.082 32.8877L141.416 47.3117ZM135.128 43.2439L137.542 42.9951L135.459 35.6929H135.412L135.128 43.2439Z" fill="black"/>
<path d="M147.818 46.6571C147.539 46.0984 147.387 45.493 147.372 44.8782L147.088 42.5707C146.926 41.2023 146.365 40.7544 145.222 40.8664L144.356 40.9597L145.08 46.937L142.571 47.1921L140.793 32.4882L144.58 32.1025C147.176 31.8351 148.427 32.8303 148.704 35.1005L148.846 36.2512C149.029 37.7627 148.616 38.7827 147.561 39.3612V39.4047C148.873 39.7593 149.414 40.8042 149.59 42.3343L149.867 44.6046C149.895 45.214 150.061 45.8114 150.354 46.3586L147.818 46.6571ZM143.552 34.3541L144.099 38.8636L145.08 38.7641C146.02 38.6708 146.54 38.2354 146.432 37.0598L146.256 35.6106C146.128 34.5594 145.688 34.1427 144.796 34.2297L143.552 34.3541Z" fill="black"/>
<path d="M153.226 37.503L156.668 37.1485L156.924 39.2446L153.476 39.5991L153.997 43.9033L158.331 43.4555L158.588 45.5516L151.731 46.2544L149.953 31.5692L156.796 30.8726L157.046 32.9687L152.719 33.4103L153.226 37.503Z" fill="black"/>
<path d="M166.17 44.774L163.662 45.0352L161.863 30.35L164.372 30.0887L165.136 36.3833L167.989 36.091L167.273 29.8026L169.829 29.5352L171.607 44.2204L169.051 44.4816L168.287 38.1933L165.44 38.4794L166.17 44.774Z" fill="black"/>
<path d="M171.637 29.3795L174.145 29.1245L175.924 43.8097L173.415 44.0648L171.637 29.3795Z" fill="black"/>
<path d="M182.987 43.0629C182.711 42.5034 182.559 41.8985 182.541 41.284L182.264 38.9764C182.102 37.6143 181.534 37.1602 180.398 37.2784L179.532 37.3655L180.256 43.3491L177.747 43.6041L175.969 28.9188L179.755 28.5332C182.352 28.2657 183.603 29.2609 183.88 31.525L184.015 32.6819C184.198 34.1933 183.792 35.2072 182.737 35.7918V35.8354C184.049 36.1899 184.597 37.2411 184.766 38.7712L185.043 41.0352C185.066 41.6454 185.232 42.2437 185.53 42.7893L182.987 43.0629ZM178.728 30.7599L179.275 35.2694L180.256 35.1699C181.189 35.0703 181.716 34.6349 181.574 33.4594L181.398 32.0164C181.27 30.9652 180.83 30.5422 179.938 30.6355L178.728 30.7599Z" fill="black"/>
<path d="M185.145 27.9679L187.653 27.7129L189.431 42.3919L186.923 42.6531L185.145 27.9679Z" fill="black"/>
<path d="M192.238 31.3373H192.197L193.482 41.9734L191.224 42.2035L189.445 27.5121L192.596 27.1886L196.187 35.7161H196.234L195.172 26.9274L197.404 26.6973L199.182 41.3825L196.606 41.6437L192.238 31.3373Z" fill="black"/>
<path d="M203.8 32.6431L207.31 32.2823L207.878 36.9411C208.162 39.286 207.046 40.7601 204.585 41.0151C202.124 41.2701 200.683 40.051 200.399 37.7061L199.473 30.0681C199.189 27.7169 200.305 26.2428 202.766 25.994C205.227 25.7452 206.667 26.9519 206.951 29.303L207.127 30.7274L204.754 30.9699L204.531 29.3776C204.402 28.3327 203.855 27.9844 203.05 28.0652C202.245 28.1461 201.799 28.5939 201.927 29.6451L202.888 37.5755C203.016 38.6267 203.564 38.9501 204.362 38.8692C205.16 38.7884 205.613 38.3592 205.491 37.308L205.16 34.6024L204.024 34.7206L203.8 32.6431Z" fill="black"/>
<path d="M209.817 37.0103L208.85 31.7358L208.113 25.6465L210.622 25.3853L211.359 31.5119L211.683 36.8548L209.817 37.0103ZM212.082 37.8189L212.353 40.0456L209.932 40.2944L209.668 38.0677L212.082 37.8189Z" fill="black"/>
<path d="M191.918 152.254L155.337 155.986C153.899 156.133 152.443 156.019 151.053 155.649C149.663 155.28 148.366 154.661 147.235 153.83C146.105 152.999 145.164 151.971 144.466 150.805C143.767 149.639 143.326 148.358 143.166 147.035C143.005 145.713 143.129 144.374 143.531 143.096C143.932 141.817 144.604 140.624 145.507 139.585C146.41 138.545 147.526 137.679 148.793 137.037C150.06 136.394 151.452 135.987 152.889 135.839L189.477 132.107C190.915 131.959 192.371 132.072 193.762 132.442C195.152 132.811 196.45 133.429 197.58 134.261C198.711 135.092 199.652 136.12 200.35 137.287C201.048 138.453 201.489 139.734 201.648 141.058C201.81 142.381 201.686 143.72 201.284 144.999C200.883 146.278 200.211 147.472 199.307 148.512C198.403 149.552 197.285 150.418 196.017 151.06C194.75 151.702 193.356 152.107 191.918 152.254Z" fill="#1489A9" stroke="black" stroke-linecap="round" stroke-linejoin="round"/>
<path d="M165.256 149.423L163.613 149.591L163.126 147.893L161.131 148.098L161.057 149.852L159.562 150.008L160.07 140.317L162.45 140.068L165.256 149.423ZM161.199 146.786L162.768 146.624L161.415 141.885L161.199 146.786Z" fill="black"/>
<path d="M169.992 141.673L170.141 142.917C170.33 144.441 169.627 145.349 168.004 145.517L167.233 145.592L167.666 149.175L166.043 149.343L164.887 139.82L167.287 139.571C168.883 139.397 169.782 140.15 169.992 141.673ZM166.679 141.008L167.071 144.23L167.842 144.149C168.355 144.099 168.612 143.85 168.518 143.172L168.349 141.742C168.268 141.064 167.957 140.871 167.443 140.927L166.679 141.008Z" fill="black"/>
<path d="M175.531 141.101L175.68 142.345C175.862 143.869 175.166 144.777 173.536 144.945L172.772 145.026L173.205 148.603L171.575 148.771L170.426 139.248L172.819 138.999C174.449 138.85 175.342 139.578 175.531 141.101ZM172.218 140.436L172.603 143.658L173.374 143.577C173.895 143.527 174.145 143.278 174.05 142.6L173.881 141.17C173.793 140.492 173.489 140.305 172.968 140.355L172.218 140.436Z" fill="black"/>
<path d="M176.008 138.669L177.637 138.501L178.625 146.662L181.329 146.388L181.492 147.75L177.191 148.192L176.008 138.669Z" fill="black"/>
<path d="M182.385 144.449L179.559 138.291L181.263 138.117L183.014 142.334L183.69 137.868L185.245 137.712L183.96 144.287L184.339 147.447L182.716 147.608L182.385 144.449Z" fill="black"/>
<path d="M196.746 161.11L152.77 165.619L152.921 166.867L196.897 162.358L196.746 161.11Z" fill="#999999" stroke="black" stroke-linecap="round" stroke-linejoin="round"/>
<path d="M260.012 117.976L85.0659 135.895C85.0659 135.895 77.4657 120.868 82.0637 111.115C86.6617 101.362 100.584 106.923 106.48 97.8729C112.376 88.8229 105.547 82.8269 112.038 70.4306C118.53 58.0343 137.131 51.4225 151.02 56.8587C164.908 62.2949 169.608 70.4928 178.438 68.1976C187.269 65.9025 192.3 55.3535 209.799 56.1248C227.299 56.896 231.058 79.437 230.044 90.5582C229.03 101.679 263.92 91.7525 260.012 117.976Z" fill="white"/>
<path d="M207.733 69.2864L207.571 67.9429L196.617 69.0687L196.942 71.793L197.53 76.6321L208.484 75.5125L207.733 69.2864Z" fill="white"/>
<path opacity="0.2" d="M197.528 76.5431L204.43 75.8354L203.525 68.368L196.623 69.0756L197.528 76.5431Z" fill="black"/>
<path d="M207.733 69.2864L207.571 67.9429L196.617 69.0687L196.942 71.793L197.53 76.6321L208.484 75.5125L207.733 69.2864Z" stroke="black" stroke-linecap="round" stroke-linejoin="round"/>
<path d="M203.547 68.354L203.628 69.0195" stroke="black" stroke-linecap="round" stroke-linejoin="round"/>
<path d="M198.149 84.8113L196.898 74.4738L202.761 70.3935L208.569 69.7964L210.219 83.4678L198.149 84.8113Z" fill="black"/>
<path opacity="0.2" d="M198.169 84.8118L204.694 84.1463L203.024 70.3691L196.918 74.4743L198.169 84.8118Z" fill="black"/>
<path d="M198.149 84.8113L196.898 74.4738L202.761 70.3935L208.569 69.7964L210.219 83.4678L198.149 84.8113Z" stroke="black" stroke-linecap="round" stroke-linejoin="round"/>
<path opacity="0.2" d="M203.285 72.6572L203.63 75.5371" stroke="white" stroke-linecap="round" stroke-linejoin="round"/>
<path opacity="0.2" d="M203.84 77.2529L204.577 83.336" stroke="white" stroke-linecap="round" stroke-linejoin="round"/>
<path d="M153.26 115.654L151.123 115.874C150.799 115.907 150.473 115.82 150.218 115.633C149.964 115.445 149.8 115.172 149.764 114.874L149.248 110.615L153.824 110.146L154.342 114.417C154.374 114.713 154.279 115.008 154.076 115.239C153.874 115.471 153.581 115.62 153.26 115.654Z" fill="#999999" stroke="black" stroke-linecap="round" stroke-linejoin="round"/>
<path d="M151.497 121.984L154.359 121.691L153.625 115.627L150.762 115.92L151.497 121.984Z" fill="#757575" stroke="black" stroke-linecap="round" stroke-linejoin="round"/>
<path d="M148.685 110.673L154.575 110.064L156.191 107.576L146.508 108.571L148.685 110.673Z" fill="#757575" stroke="black" stroke-linecap="round" stroke-linejoin="round"/>
<path d="M165.257 100.963L157.143 101.79L154.439 93.959H153.289L155.994 102.113C155.769 102.138 155.563 102.244 155.422 102.406C155.28 102.569 155.214 102.777 155.236 102.984L155.433 104.576C155.502 105.097 155.791 105.571 156.238 105.897C156.685 106.223 157.253 106.374 157.819 106.318L164.77 105.609C165.039 105.579 165.283 105.454 165.452 105.259C165.62 105.065 165.698 104.817 165.67 104.57L165.257 100.963Z" fill="#999999" stroke="black" stroke-linecap="round" stroke-linejoin="round"/>
<path d="M165.923 104.883L165.51 104.92C165.229 104.95 164.946 104.885 164.712 104.737C164.479 104.59 164.311 104.37 164.239 104.118L161.866 95.5219C161.751 95.1192 161.497 94.7617 161.142 94.5036C160.787 94.2455 160.351 94.1008 159.898 94.0913L153.251 93.9358C153.005 93.9283 152.769 93.8393 152.588 93.6851C152.407 93.5309 152.292 93.3218 152.264 93.0962C152.234 92.8487 152.312 92.6003 152.48 92.4055C152.649 92.2107 152.895 92.0855 153.164 92.0574L153.995 91.9766L160.588 92.2316C161.374 92.2604 162.129 92.5235 162.739 92.9812C163.349 93.4389 163.78 94.0664 163.969 94.7693L166.477 104.149C166.495 104.231 166.494 104.315 166.476 104.397C166.457 104.478 166.421 104.556 166.369 104.624C166.317 104.692 166.251 104.751 166.175 104.795C166.098 104.84 166.012 104.869 165.923 104.883Z" fill="#BFBFBF"/>
<path d="M165.923 104.883L165.51 104.92C165.229 104.95 164.946 104.885 164.712 104.737C164.479 104.59 164.311 104.37 164.239 104.118L161.866 95.5219C161.751 95.1192 161.497 94.7617 161.142 94.5036C160.787 94.2455 160.351 94.1008 159.898 94.0913L153.251 93.9358C153.005 93.9283 152.769 93.8393 152.588 93.6851C152.407 93.5309 152.292 93.3218 152.264 93.0961V93.0961C152.234 92.8487 152.312 92.6003 152.48 92.4055C152.649 92.2107 152.895 92.0855 153.164 92.0574L153.995 91.9766L160.588 92.2316C161.374 92.2604 162.129 92.5235 162.739 92.9812C163.349 93.4389 163.78 94.0664 163.969 94.7693L166.477 104.149C166.495 104.231 166.494 104.315 166.476 104.397C166.457 104.478 166.421 104.556 166.369 104.624C166.317 104.692 166.251 104.751 166.175 104.795C166.098 104.84 166.012 104.869 165.923 104.883" stroke="black" stroke-linecap="round" stroke-linejoin="round"/>
<path d="M125.775 77.7393L135.038 105.58L155.844 103.446L156.29 100.411L151.205 84.9793L147.824 74.6107C147.608 73.9588 147.153 73.3959 146.537 73.0172C145.921 72.6386 145.181 72.4676 144.444 72.5333L128.303 74.1629C127.82 74.2095 127.357 74.3643 126.954 74.6137C126.551 74.8631 126.22 75.1995 125.991 75.5935C125.803 75.9204 125.687 76.2782 125.65 76.6465C125.613 77.0148 125.655 77.3862 125.775 77.7393Z" fill="#1489A9"/>
<path opacity="0.2" d="M125.785 77.74L135.049 105.58L155.854 103.447L156.301 100.412L151.216 84.98L133.852 86.7589L130.579 76.9377C130.419 76.4557 130.082 76.0396 129.626 75.7606C129.17 75.4816 128.622 75.3568 128.077 75.4076L126.049 75.6128C125.659 76.2619 125.564 77.0268 125.785 77.74Z" fill="black"/>
<path d="M125.775 77.7393L135.038 105.58L155.844 103.446L156.29 100.411L151.205 84.9793L147.824 74.6107C147.608 73.9588 147.153 73.3959 146.537 73.0172C145.921 72.6386 145.181 72.4676 144.444 72.5333L128.303 74.1629C127.82 74.2095 127.357 74.3643 126.954 74.6137C126.551 74.8631 126.22 75.1995 125.991 75.5935C125.803 75.9204 125.687 76.2782 125.65 76.6465C125.613 77.0148 125.655 77.3862 125.775 77.7393V77.7393Z" stroke="black" stroke-linecap="round" stroke-linejoin="round"/>
<path d="M142.198 127.243C146.464 124.63 159.697 123.274 164.512 124.96L166.54 124.207C161.421 121.775 154.369 121.676 154.369 121.676L151.265 121.993C151.265 121.993 144.443 123.511 140.027 126.919L142.198 127.243Z" fill="#999999" stroke="black" stroke-linecap="round" stroke-linejoin="round"/>
<path d="M164.359 126.098C164.412 126.536 164.651 126.937 165.026 127.212C165.4 127.488 165.877 127.615 166.353 127.566C166.83 127.518 167.265 127.297 167.564 126.953C167.864 126.609 168.002 126.169 167.949 125.731C167.923 125.515 167.851 125.305 167.736 125.113C167.622 124.922 167.468 124.754 167.282 124.618C167.097 124.481 166.885 124.38 166.657 124.319C166.429 124.258 166.19 124.239 165.954 124.264C165.719 124.288 165.49 124.354 165.283 124.46C165.075 124.565 164.892 124.707 164.743 124.877C164.595 125.047 164.485 125.243 164.419 125.453C164.353 125.662 164.333 125.882 164.359 126.098Z" fill="#BFBFBF" stroke="black" stroke-linecap="round" stroke-linejoin="round"/>
<path d="M139.003 128.699C139.049 129.024 139.198 129.328 139.431 129.575C139.664 129.821 139.971 129.999 140.314 130.086C140.657 130.172 141.02 130.164 141.357 130.062C141.695 129.96 141.992 129.768 142.212 129.511C142.432 129.254 142.564 128.943 142.592 128.618C142.621 128.292 142.544 127.965 142.372 127.679C142.2 127.393 141.939 127.161 141.624 127.01C141.308 126.86 140.952 126.798 140.598 126.833C140.36 126.858 140.129 126.926 139.919 127.033C139.709 127.141 139.525 127.286 139.376 127.459C139.228 127.633 139.118 127.832 139.054 128.045C138.99 128.258 138.972 128.48 139.003 128.699Z" fill="#BFBFBF" stroke="black" stroke-linecap="round" stroke-linejoin="round"/>
<path d="M142.542 109.796L162.902 107.712C163.775 107.623 164.621 107.375 165.391 106.985C166.16 106.594 166.839 106.068 167.387 105.436C167.935 104.804 168.343 104.079 168.586 103.302C168.829 102.525 168.904 101.711 168.805 100.908C168.778 100.668 168.7 100.436 168.574 100.224C168.449 100.013 168.279 99.8263 168.074 99.6758C167.87 99.5253 167.635 99.4138 167.383 99.3476C167.131 99.2815 166.867 99.2621 166.607 99.2906L136.856 102.338C136.599 102.365 136.35 102.437 136.123 102.552C135.896 102.667 135.697 102.822 135.535 103.008C135.374 103.194 135.254 103.408 135.182 103.636C135.111 103.865 135.089 104.105 135.118 104.341C135.211 105.15 135.478 105.933 135.903 106.646C136.327 107.359 136.901 107.987 137.592 108.495C138.283 109.002 139.076 109.378 139.925 109.602C140.775 109.825 141.665 109.891 142.542 109.796Z" fill="#1489A9"/>
<path opacity="0.2" d="M135.124 104.236L135.185 104.74C135.37 106.262 136.205 107.654 137.506 108.611C138.807 109.567 140.467 110.009 142.123 109.84L163.287 107.669C164.106 107.586 164.9 107.356 165.622 106.99C166.345 106.625 166.982 106.132 167.497 105.54C168.012 104.947 168.395 104.268 168.624 103.539C168.853 102.81 168.923 102.047 168.831 101.294L168.77 100.784C168.734 100.46 168.595 100.152 168.372 99.8996C168.149 99.6467 167.85 99.459 167.513 99.3594L167.628 100.299C167.692 100.842 167.52 101.387 167.149 101.813C166.777 102.24 166.237 102.514 165.647 102.575L146.869 104.503C146.278 104.563 145.685 104.404 145.22 104.063C144.755 103.721 144.456 103.225 144.388 102.681L144.259 101.58L136.767 102.345C136.277 102.397 135.83 102.624 135.522 102.979C135.214 103.333 135.071 103.785 135.124 104.236Z" fill="black"/>
<path d="M142.542 109.796L162.902 107.712C163.775 107.623 164.621 107.375 165.391 106.985C166.16 106.594 166.839 106.068 167.387 105.436C167.935 104.804 168.343 104.079 168.586 103.302C168.829 102.525 168.904 101.711 168.805 100.908V100.908C168.778 100.668 168.7 100.436 168.574 100.224C168.449 100.013 168.279 99.8263 168.074 99.6758C167.87 99.5253 167.635 99.4138 167.383 99.3476C167.131 99.2815 166.867 99.2621 166.607 99.2906L136.856 102.338C136.599 102.365 136.35 102.437 136.123 102.552C135.896 102.667 135.697 102.822 135.535 103.008C135.374 103.194 135.254 103.408 135.182 103.636C135.111 103.865 135.089 104.105 135.118 104.341C135.211 105.15 135.478 105.933 135.903 106.646C136.327 107.359 136.901 107.987 137.592 108.495C138.283 109.002 139.076 109.378 139.925 109.602C140.775 109.825 141.665 109.891 142.542 109.796V109.796Z" stroke="black" stroke-linecap="round" stroke-linejoin="round"/>
<path d="M142.489 103.296L134.415 104.124L131.67 96.2928L130.527 96.2617L133.232 104.422C133.12 104.433 133.011 104.464 132.912 104.514C132.813 104.564 132.726 104.631 132.656 104.712C132.585 104.793 132.533 104.886 132.502 104.986C132.471 105.086 132.462 105.19 132.475 105.293L132.664 106.885C132.73 107.411 133.02 107.892 133.469 108.223C133.919 108.554 134.492 108.708 135.064 108.652L142.015 107.937C142.148 107.923 142.277 107.886 142.394 107.827C142.512 107.768 142.615 107.688 142.699 107.592C142.782 107.496 142.844 107.386 142.881 107.268C142.918 107.15 142.93 107.026 142.915 106.904L142.489 103.296Z" fill="#999999" stroke="black" stroke-linecap="round" stroke-linejoin="round"/>
<path d="M143.191 107.21L142.771 107.253C142.49 107.282 142.207 107.216 141.974 107.067C141.742 106.918 141.576 106.697 141.507 106.444L139.134 97.8548C139.017 97.4524 138.763 97.0953 138.409 96.8364C138.054 96.5776 137.618 96.4308 137.166 96.418L130.519 96.2625C130.272 96.2566 130.036 96.1691 129.853 96.0161C129.671 95.863 129.554 95.6546 129.525 95.429C129.497 95.181 129.576 94.9326 129.746 94.738C129.915 94.5434 130.162 94.4185 130.431 94.3903L131.256 94.3032L137.856 94.5582C138.643 94.5884 139.398 94.8528 140.007 95.3115C140.617 95.7703 141.048 96.3986 141.237 97.1022L143.738 106.507C143.761 106.588 143.765 106.673 143.749 106.756C143.733 106.838 143.698 106.917 143.646 106.986C143.594 107.055 143.526 107.113 143.448 107.156C143.369 107.199 143.281 107.225 143.191 107.234" fill="#BFBFBF"/>
<path d="M143.191 107.21L142.771 107.253C142.49 107.282 142.207 107.216 141.974 107.067C141.742 106.918 141.576 106.697 141.507 106.444L139.134 97.8548C139.017 97.4524 138.763 97.0953 138.409 96.8364C138.054 96.5776 137.618 96.4308 137.166 96.418L130.519 96.2625C130.272 96.2566 130.036 96.1691 129.853 96.0161C129.671 95.863 129.554 95.6546 129.525 95.429V95.429C129.497 95.181 129.576 94.9326 129.746 94.738C129.915 94.5434 130.162 94.4185 130.431 94.3903L131.256 94.3032L137.856 94.5582C138.643 94.5884 139.398 94.8528 140.007 95.3115C140.617 95.7703 141.048 96.3986 141.237 97.1022L143.738 106.507C143.761 106.588 143.765 106.673 143.749 106.756C143.733 106.838 143.698 106.917 143.646 106.986C143.594 107.055 143.526 107.113 143.448 107.156C143.369 107.199 143.281 107.225 143.191 107.234V107.234" stroke="black" stroke-linecap="round" stroke-linejoin="round"/>
<path d="M157.647 87.7229L150.121 88.4693L150.168 88.8425C150.176 88.9334 150.203 89.0219 150.249 89.1028C150.295 89.1837 150.357 89.2554 150.434 89.3134C150.51 89.3715 150.598 89.4148 150.693 89.4408C150.788 89.4667 150.888 89.4748 150.987 89.4645H151.183L175.762 86.9454C175.825 86.9392 175.886 86.9216 175.942 86.8934C175.997 86.8653 176.046 86.8273 176.086 86.7816C176.126 86.7359 176.155 86.6834 176.173 86.6272C176.19 86.5709 176.195 86.5121 176.188 86.454L176.113 85.832L157.647 87.7229Z" fill="#999999" stroke="black" stroke-linecap="round" stroke-linejoin="round"/>
<path d="M180.502 73.7011L179.279 84.897C179.254 85.1306 179.142 85.3492 178.962 85.5157C178.782 85.6823 178.545 85.7867 178.291 85.8113L159.325 87.7582C159.212 87.7691 159.098 87.7566 158.991 87.7216C158.885 87.6866 158.788 87.63 158.708 87.5559C158.628 87.4819 158.567 87.3924 158.53 87.2939C158.493 87.1954 158.48 87.0905 158.493 86.9869L159.845 75.791C159.873 75.5606 159.985 75.3457 160.164 75.1818C160.342 75.0178 160.575 74.9146 160.826 74.8892L179.671 72.9174C179.785 72.9049 179.901 72.9167 180.009 72.952C180.118 72.9872 180.216 73.045 180.297 73.1207C180.377 73.1965 180.437 73.2882 180.473 73.3889C180.509 73.4895 180.519 73.5964 180.502 73.7011Z" fill="#BFBFBF" stroke="black" stroke-linecap="round" stroke-linejoin="round"/>
<path d="M170.082 79.0326L171.549 78.8833L172.11 80.0526L171.204 81.3651L169.737 81.5143L169.176 80.3512L170.082 79.0326Z" fill="white" stroke="black" stroke-linecap="round" stroke-linejoin="round"/>
<path d="M199.261 70.3429L199.099 68.9932L188.145 70.1252L188.476 72.8495L189.057 77.6886L200.011 76.5628L199.261 70.3429Z" fill="white"/>
<path opacity="0.2" d="M189.002 77.2384L195.938 76.5273L195.077 69.4246L188.142 70.1357L189.002 77.2384Z" fill="black"/>
<path d="M199.261 70.3429L199.099 68.9932L188.145 70.1252L188.476 72.8495L189.057 77.6886L200.011 76.5628L199.261 70.3429Z" stroke="black" stroke-linecap="round" stroke-linejoin="round"/>
<path d="M195.078 69.4043L195.159 70.076" stroke="black" stroke-linecap="round" stroke-linejoin="round"/>
<path d="M189.692 85.8674L188.441 75.5237L194.304 71.4434L200.112 70.8525L201.769 84.5239L189.692 85.8674Z" fill="#1489A9"/>
<path opacity="0.2" d="M194.296 71.4438L195.953 85.1712L189.678 85.8119L188.434 75.5241L194.296 71.4438Z" fill="black"/>
<path d="M189.692 85.8674L188.441 75.5237L194.304 71.4434L200.112 70.8525L201.769 84.5239L189.692 85.8674Z" stroke="black" stroke-linecap="round" stroke-linejoin="round"/>
<path d="M194.816 73.7085L195.168 76.5883" stroke="black" stroke-linecap="round" stroke-linejoin="round"/>
<path d="M195.375 78.3115L196.112 84.3946" stroke="black" stroke-linecap="round" stroke-linejoin="round"/>
<path d="M186.961 87.8856L184.078 88.1812L188.574 125.283L191.457 124.988L186.961 87.8856Z" fill="#1489A9"/>
<path opacity="0.2" d="M186.957 87.8865L184.074 88.1821L188.57 125.284L191.453 124.989L186.957 87.8865Z" fill="black"/>
<path d="M186.961 87.8856L184.078 88.1812L188.574 125.283L191.457 124.988L186.961 87.8856Z" stroke="black" stroke-linecap="round" stroke-linejoin="round"/>
<path d="M169.254 89.7116L212.096 85.3203L216.586 122.422L213.705 122.714L209.479 87.7896L169.518 91.8885L169.254 89.7116Z" fill="#1489A9" stroke="black" stroke-linecap="round" stroke-linejoin="round"/>
<path d="M203.656 84.0959L140.914 90.5273L141.157 92.5737L213.312 85.1844L213.062 83.1318L207.794 83.673L203.656 84.0959Z" fill="#1489A9"/>
<path opacity="0.6" d="M203.656 84.0959L140.914 90.5273L141.157 92.5737L213.312 85.1844L213.062 83.1318L207.794 83.673L203.656 84.0959Z" fill="white"/>
<path d="M203.656 84.0959L140.914 90.5273L141.157 92.5737L213.312 85.1844L213.062 83.1318L207.794 83.673L203.656 84.0959Z" stroke="black" stroke-linecap="round" stroke-linejoin="round"/>
<path d="M146.879 129.564L142.383 92.4617L171.052 89.5259L175.549 126.628L172.662 126.92L168.436 92.0014L145.527 94.3463L149.76 129.271L146.879 129.564Z" fill="#1489A9"/>
<path opacity="0.2" d="M146.875 129.564L142.379 92.4617L171.049 89.5259L175.545 126.628L172.658 126.92L168.432 92.0014L145.523 94.3463L149.756 129.271L146.875 129.564Z" fill="white"/>
<path d="M146.879 129.564L142.383 92.4617L171.052 89.5259L175.549 126.628L172.662 126.92L168.436 92.0014L145.527 94.3463L149.76 129.271L146.879 129.564Z" stroke="black" stroke-linecap="round" stroke-linejoin="round"/>
<path d="M215.095 94.9916C212.792 93.2988 210.004 92.2582 207.07 91.9965C204.135 91.7347 201.182 92.2631 198.568 93.5172C195.955 94.7714 193.794 96.6973 192.348 99.0607C190.903 101.424 190.235 104.123 190.427 106.829C190.618 109.535 191.661 112.131 193.427 114.302C195.194 116.473 197.608 118.125 200.376 119.057C203.145 119.988 206.148 120.16 209.02 119.55C211.893 118.941 214.51 117.576 216.555 115.623L218.848 117.309L220.592 115.3L218.3 113.614C220.384 110.701 221.211 107.177 220.618 103.732C220.025 100.287 218.056 97.1702 215.095 94.9916ZM215.967 113.564C214.318 115.452 212.098 116.847 209.586 117.573C207.075 118.299 204.387 118.324 201.86 117.645C199.334 116.965 197.083 115.611 195.393 113.755C193.703 111.899 192.649 109.623 192.365 107.216C192.082 104.808 192.58 102.378 193.798 100.231C195.017 98.0848 196.899 96.3189 199.209 95.1568C201.518 93.9947 204.15 93.4888 206.772 93.703C209.394 93.9171 211.888 94.8418 213.939 96.36C215.301 97.3665 216.434 98.6101 217.273 100.02C218.113 101.429 218.642 102.977 218.83 104.575C219.018 106.173 218.863 107.79 218.371 109.332C217.88 110.874 217.063 112.313 215.967 113.564Z" fill="#757575" stroke="black" stroke-linecap="round" stroke-linejoin="round"/>
<path d="M237.99 129.744C237.816 129.946 237.6 130.115 237.354 130.24C237.108 130.366 236.838 130.445 236.559 130.474C236.28 130.503 235.998 130.481 235.728 130.409C235.459 130.337 235.207 130.217 234.988 130.055L218.327 117.802C218.28 117.767 218.241 117.725 218.212 117.676C218.183 117.628 218.165 117.574 218.159 117.519C218.152 117.464 218.158 117.409 218.175 117.356C218.193 117.303 218.221 117.254 218.26 117.211L220.356 114.798C220.431 114.711 220.541 114.655 220.662 114.642C220.782 114.629 220.903 114.66 220.998 114.729L237.659 126.982C238.101 127.308 238.384 127.782 238.446 128.3C238.508 128.818 238.344 129.337 237.99 129.744Z" fill="#999999" stroke="black" stroke-linecap="round" stroke-linejoin="round"/>
<path d="M126.087 131.697L124.133 131.896L115.336 100.404L117.222 99.9565L126.087 131.697Z" fill="#999999" stroke="black" stroke-linecap="round" stroke-linejoin="round"/>
<path d="M124.85 85.8755L101.477 91.3999L105.241 104.876L128.614 99.3517L124.85 85.8755Z" fill="black"/>
<path d="M109.323 98.5761L109.472 99.1048C109.532 99.231 109.559 99.3681 109.552 99.5055C109.545 99.643 109.503 99.777 109.431 99.8973C109.358 100.018 109.256 100.121 109.133 100.199C109.01 100.278 108.869 100.329 108.721 100.349L108.39 100.423L108.816 101.947L108.14 102.115L107.004 98.0599L108.025 97.8173C108.165 97.7712 108.314 97.755 108.461 97.7701C108.609 97.7852 108.751 97.8311 108.876 97.9044C109.001 97.9776 109.107 98.0762 109.184 98.1926C109.262 98.309 109.309 98.4402 109.323 98.5761ZM107.849 98.4766L108.228 99.845L108.559 99.7703C108.775 99.7144 108.87 99.5962 108.789 99.3038L108.62 98.6819C108.539 98.3895 108.397 98.3273 108.174 98.3771L107.849 98.4766Z" fill="#1489A9"/>
<path d="M109.573 98.4823C109.525 98.3518 109.507 98.2137 109.52 98.0764C109.532 97.9392 109.576 97.8059 109.647 97.6848C109.719 97.5637 109.816 97.4575 109.934 97.3727C110.052 97.288 110.188 97.2265 110.333 97.1922C110.478 97.1579 110.629 97.1515 110.777 97.1733C110.925 97.1952 111.066 97.2449 111.192 97.3192C111.318 97.3936 111.426 97.4911 111.509 97.6056C111.593 97.7201 111.649 97.8492 111.676 97.9847L112.264 100.093C112.312 100.224 112.33 100.362 112.317 100.499C112.304 100.636 112.261 100.77 112.19 100.891C112.118 101.012 112.02 101.118 111.902 101.203C111.784 101.288 111.649 101.349 111.504 101.383C111.359 101.418 111.208 101.424 111.06 101.402C110.912 101.38 110.771 101.331 110.645 101.256C110.519 101.182 110.411 101.084 110.327 100.97C110.244 100.855 110.188 100.726 110.161 100.591L109.573 98.4823ZM110.864 100.466C110.945 100.759 111.114 100.833 111.338 100.784C111.561 100.734 111.662 100.585 111.588 100.299L110.972 98.1091C110.891 97.8168 110.722 97.7421 110.499 97.7919C110.276 97.8417 110.175 97.9909 110.256 98.2771L110.864 100.466Z" fill="#1489A9"/>
<path d="M112.776 96.6414C112.917 96.5965 113.068 96.5818 113.217 96.5985C113.366 96.6152 113.508 96.6628 113.634 96.7377C113.76 96.8126 113.865 96.9129 113.943 97.0309C114.02 97.1489 114.067 97.2816 114.081 97.4189L114.115 97.5433L113.438 97.6988L113.391 97.5308C113.31 97.2447 113.148 97.1638 112.931 97.2136C112.715 97.2634 112.613 97.4064 112.695 97.6988C112.776 97.9911 112.979 98.1777 113.533 98.4327C114.209 98.7686 114.52 99.0547 114.649 99.5274C114.717 99.6582 114.754 99.8014 114.755 99.9466C114.756 100.092 114.723 100.236 114.656 100.367C114.59 100.499 114.493 100.616 114.372 100.709C114.251 100.802 114.108 100.869 113.956 100.906C113.803 100.943 113.643 100.947 113.488 100.92C113.333 100.893 113.186 100.835 113.058 100.75C112.931 100.664 112.825 100.554 112.749 100.426C112.674 100.299 112.63 100.158 112.62 100.013L112.546 99.7638L113.222 99.6083L113.303 99.9006C113.384 100.187 113.553 100.261 113.776 100.205C114 100.149 114.101 100.019 114.02 99.7265C113.939 99.4341 113.743 99.2475 113.188 98.9863C112.478 98.6566 112.201 98.3643 112.073 97.8978C112.013 97.7739 111.984 97.6392 111.989 97.5038C111.993 97.3683 112.03 97.2355 112.098 97.115C112.165 96.9945 112.261 96.8895 112.378 96.8075C112.496 96.7256 112.631 96.6688 112.776 96.6414Z" fill="#1489A9"/>
<path d="M114.215 96.3482L114.891 96.1865L116.027 100.242L115.351 100.404L114.215 96.3482Z" fill="#1489A9"/>
<path d="M115.219 96.1122L117.355 95.6084L117.518 96.1869L116.794 96.361L117.768 99.8317L117.092 99.9997L116.098 96.5538L115.374 96.7218L115.219 96.1122Z" fill="#1489A9"/>
<path d="M117.656 95.5348L118.332 95.373L119.462 99.4284L118.785 99.5902L117.656 95.5348Z" fill="#1489A9"/>
<path d="M119.061 96.2377C119.013 96.1072 118.995 95.969 119.008 95.8318C119.021 95.6946 119.064 95.5613 119.135 95.4402C119.207 95.3191 119.305 95.2129 119.423 95.1281C119.541 95.0434 119.676 94.9819 119.821 94.9476C119.966 94.9133 120.117 94.9068 120.265 94.9287C120.413 94.9506 120.554 95.0002 120.68 95.0746C120.806 95.149 120.914 95.2465 120.998 95.361C121.081 95.4755 121.137 95.6045 121.164 95.7401L121.752 97.8486C121.8 97.9791 121.818 98.1173 121.805 98.2545C121.793 98.3918 121.749 98.5251 121.678 98.6461C121.606 98.7672 121.509 98.8735 121.391 98.9582C121.273 99.043 121.137 99.1044 120.992 99.1387C120.847 99.1731 120.696 99.1795 120.548 99.1576C120.4 99.1358 120.259 99.0861 120.133 99.0117C120.007 98.9373 119.899 98.8399 119.816 98.7254C119.732 98.6108 119.676 98.4818 119.649 98.3462L119.061 96.2377ZM120.353 98.2281C120.434 98.5142 120.603 98.5888 120.826 98.5391C121.049 98.4893 121.15 98.3462 121.069 98.0539L120.461 95.8645C120.38 95.5784 120.211 95.4975 119.987 95.5535C119.764 95.6095 119.663 95.7463 119.744 96.0386L120.353 98.2281Z" fill="#1489A9"/>
<path d="M122.275 95.6332L123.093 98.569L122.471 98.7183L121.328 94.6878L122.2 94.4825L123.553 96.7466L122.877 94.3208L123.492 94.1777L124.628 98.2331L123.911 98.4011L122.275 95.6332Z" fill="#1489A9"/>
<path d="M112.197 94.4642L112.441 94.4082C112.657 94.3584 112.813 94.2403 112.725 93.9293L111.859 90.8193L112.536 90.6514L113.388 93.6991C113.611 94.5077 113.198 94.8312 112.678 94.9431L112.339 95.0115L112.197 94.4642Z" fill="#1489A9"/>
<path d="M113.252 91.577C113.205 91.4465 113.186 91.3084 113.199 91.1712C113.212 91.0339 113.256 90.9006 113.327 90.7795C113.398 90.6585 113.496 90.5522 113.614 90.4675C113.732 90.3827 113.868 90.3213 114.013 90.2869C114.158 90.2526 114.309 90.2462 114.457 90.2681C114.605 90.2899 114.746 90.3396 114.872 90.414C114.998 90.4883 115.106 90.5858 115.189 90.7003C115.272 90.8148 115.329 90.9439 115.355 91.0794L115.944 93.188C115.992 93.3185 116.01 93.4567 115.997 93.5939C115.984 93.7311 115.941 93.8644 115.869 93.9855C115.798 94.1066 115.7 94.2128 115.582 94.2976C115.464 94.3823 115.328 94.4438 115.183 94.4781C115.038 94.5124 114.887 94.5188 114.739 94.497C114.592 94.4751 114.45 94.4255 114.324 94.3511C114.198 94.2767 114.09 94.1792 114.007 94.0647C113.924 93.9502 113.867 93.8211 113.841 93.6856L113.252 91.577ZM114.544 93.5612C114.625 93.8535 114.794 93.9282 115.011 93.8784C115.227 93.8286 115.342 93.6794 115.261 93.3933L114.652 91.2038C114.571 90.9115 114.402 90.8369 114.179 90.8866C113.956 90.9364 113.848 91.0857 113.929 91.3718L114.544 93.5612Z" fill="#1489A9"/>
<path d="M117.864 90.416L117.905 90.5591C117.974 90.7141 117.99 90.8851 117.95 91.0487C117.91 91.2123 117.816 91.3607 117.681 91.4734C118.094 91.5232 118.358 91.7844 118.439 92.2136L118.533 92.5432C118.595 92.6715 118.623 92.8113 118.614 92.9513C118.606 93.0913 118.562 93.2275 118.485 93.3488C118.409 93.4701 118.302 93.573 118.174 93.6492C118.046 93.7254 117.901 93.7727 117.749 93.7872L116.66 94.0422L115.531 89.9931L116.573 89.7132C116.707 89.6581 116.853 89.6333 117 89.641C117.147 89.6487 117.289 89.6887 117.416 89.7575C117.542 89.8263 117.649 89.9221 117.727 90.0366C117.805 90.1512 117.852 90.2813 117.864 90.416ZM116.383 90.416L116.681 91.4921L116.951 91.4237C117.215 91.3677 117.343 91.2246 117.249 90.9012L117.188 90.671C117.107 90.3849 116.965 90.2792 116.715 90.3414L116.383 90.416ZM116.843 92.0705L117.195 93.3145L117.587 93.2212C117.823 93.1652 117.918 93.0346 117.837 92.7361L117.736 92.3815C117.634 92.0083 117.465 91.9212 117.154 91.9959L116.843 92.0705Z" fill="#1489A9"/>
<path d="M244.923 53.7794L213.258 57.02C212.729 57.0778 212.246 57.3249 211.913 57.7078C211.58 58.0907 211.424 58.5787 211.48 59.0663L212.724 69.323C212.787 69.8086 213.054 70.2521 213.469 70.5581C213.884 70.864 214.413 71.0079 214.942 70.9588L218.897 70.5545L216.193 76.7745L221.494 70.3057L246.573 67.7369C247.102 67.6791 247.585 67.432 247.918 67.0491C248.251 66.6662 248.407 66.1782 248.351 65.6906L247.107 55.4277C247.047 54.9457 246.786 54.504 246.378 54.1963C245.971 53.8886 245.449 53.7391 244.923 53.7794Z" fill="white" stroke="black" stroke-linecap="round" stroke-linejoin="round"/>
<path d="M217.88 65.5028C217.806 65.3541 217.764 65.1934 217.758 65.03L217.684 64.4081C217.643 64.0411 217.494 63.9229 217.19 63.954H216.96L217.149 65.5463L216.473 65.6147L216 61.6962L217.007 61.5966C217.139 61.5607 217.278 61.5543 217.413 61.578C217.548 61.6016 217.674 61.6547 217.782 61.7326C217.89 61.8106 217.976 61.9112 218.033 62.0261C218.09 62.141 218.116 62.2667 218.11 62.3928L218.15 62.7038C218.193 62.8585 218.182 63.0214 218.121 63.1705C218.059 63.3196 217.949 63.4477 217.805 63.5373C218.157 63.6306 218.299 63.9105 218.353 64.3147L218.421 64.9367C218.43 65.1012 218.476 65.2621 218.556 65.4095L217.88 65.5028ZM216.744 62.2186L216.893 63.4253L217.149 63.3942C217.4 63.3942 217.542 63.2574 217.501 62.9402L217.454 62.5545C217.42 62.2746 217.305 62.1627 217.068 62.1875L216.744 62.2186Z" fill="black"/>
<path d="M219.341 63.0671L220.261 62.9676L220.328 63.5274L219.409 63.6207L219.544 64.7714L220.7 64.6532L220.768 65.213L218.942 65.3996L218.469 61.481L220.294 61.2944L220.362 61.8542L219.206 61.9724L219.341 63.0671Z" fill="black"/>
<path d="M220.737 62.1961C220.717 62.0713 220.725 61.944 220.76 61.822C220.795 61.7 220.856 61.5857 220.94 61.4859C221.024 61.3861 221.129 61.3028 221.248 61.2411C221.368 61.1794 221.5 61.1405 221.636 61.1267C221.772 61.1129 221.91 61.1245 222.042 61.1609C222.173 61.1972 222.295 61.2574 222.4 61.3381C222.506 61.4187 222.592 61.5181 222.655 61.6302C222.718 61.7424 222.756 61.865 222.766 61.9908L223.016 64.0247C223.04 64.2136 223.017 64.4051 222.948 64.5845C222.989 64.6592 223.043 64.6654 223.151 64.653H223.212L223.28 65.2003H223.185C223.073 65.2247 222.955 65.2182 222.847 65.1817C222.739 65.1452 222.645 65.0803 222.576 64.995C222.431 65.0572 222.276 65.0971 222.117 65.1132C221.977 65.1383 221.833 65.1343 221.696 65.1016C221.558 65.0689 221.43 65.0083 221.321 64.9242C221.212 64.8402 221.125 64.7347 221.066 64.6157C221.007 64.4966 220.978 64.367 220.981 64.2362L220.737 62.1961ZM221.657 64.2051C221.691 64.485 221.839 64.5783 222.049 64.5534C222.259 64.5286 222.38 64.4166 222.347 64.1367L222.09 62.0219C222.056 61.742 221.914 61.6487 221.697 61.6674C221.481 61.686 221.366 61.8104 221.4 62.0903L221.657 64.2051Z" fill="black"/>
<path d="M223.723 60.9381L224.088 63.961C224.122 64.2409 224.27 64.328 224.48 64.3031C224.69 64.2782 224.818 64.1662 224.784 63.8926L224.419 60.8697L225.048 60.8013L225.413 63.7868C225.428 63.9094 225.416 64.0333 225.379 64.1517C225.341 64.27 225.279 64.3804 225.195 64.4766C225.111 64.5728 225.008 64.6528 224.89 64.7122C224.773 64.7715 224.644 64.809 224.511 64.8224C224.377 64.8359 224.243 64.8251 224.114 64.7907C223.985 64.7563 223.865 64.6989 223.761 64.6218C223.656 64.5446 223.569 64.4494 223.505 64.3413C223.44 64.2333 223.399 64.1146 223.385 63.9921L223.02 61.0065L223.723 60.9381Z" fill="black"/>
<path d="M225.496 60.7588L226.172 60.6904L226.646 64.6028L225.969 64.6712L225.496 60.7588Z" fill="black"/>
<path d="M228.532 64.4079C228.458 64.2592 228.417 64.0986 228.41 63.9352L228.336 63.3132C228.295 62.9524 228.147 62.828 227.842 62.8591H227.613L227.802 64.4514L227.126 64.5198L226.652 60.6075L227.66 60.5018C227.792 60.4671 227.931 60.4618 228.066 60.4864C228.2 60.511 228.327 60.5647 228.435 60.643C228.542 60.7214 228.628 60.8223 228.685 60.9372C228.742 61.0522 228.768 61.178 228.762 61.3041L228.803 61.6089C228.846 61.7636 228.836 61.9269 228.774 62.0762C228.713 62.2255 228.602 62.3534 228.458 62.4424C228.809 62.5357 228.951 62.8156 229.005 63.2261L229.08 63.8481C229.084 64.0105 229.128 64.17 229.208 64.3146L228.532 64.4079ZM227.396 61.13L227.545 62.3304H227.802C228.052 62.3304 228.194 62.1874 228.153 61.8764L228.106 61.4907C228.072 61.2109 227.957 61.0989 227.721 61.1238L227.396 61.13Z" fill="black"/>
<path d="M229.974 61.9715L230.893 61.8782L230.961 62.438L230.041 62.5313L230.177 63.6758L231.333 63.5576L231.401 64.1174L229.582 64.304L229.102 60.3917L230.927 60.2051L230.995 60.7649L229.839 60.883L229.974 61.9715Z" fill="black"/>
<path d="M233.074 62.799L233.189 59.9751L234.122 59.8818L234.595 63.7942L233.96 63.8626L233.622 61.0512L233.541 63.8999L232.905 63.9683L232.087 61.2502L232.425 64.0181L231.837 64.0741L231.363 60.1617L232.296 60.0684L233.074 62.799Z" fill="black"/>
<path d="M235.497 61.4046L236.41 61.3113L236.478 61.8711L235.565 61.9644L235.7 63.1089L236.856 62.9907L236.924 63.5505L235.098 63.7371L234.625 59.8248L236.451 59.6382L236.518 60.198L235.362 60.3162L235.497 61.4046Z" fill="black"/>
<path d="M237.597 60.6079L237.942 63.4442L237.34 63.5001L236.867 59.5878L237.706 59.5007L238.666 61.7772L238.382 59.4323L238.977 59.3701L239.45 63.2824L238.774 63.3571L237.597 60.6079Z" fill="black"/>
<path d="M239.262 59.3477L241.331 59.1362L241.398 59.696L240.722 59.7707L241.128 63.1232L240.452 63.1916L240.046 59.8391L239.37 59.9075L239.262 59.3477Z" fill="black"/>
<path d="M242.512 58.9729C243.188 58.9045 243.54 59.2279 243.614 59.8561V59.9743L242.985 60.0427V59.881C242.951 59.6011 242.816 59.5078 242.6 59.5265C242.383 59.5451 242.282 59.6695 242.316 59.9494C242.35 60.2293 242.512 60.4283 242.992 60.7393C243.227 60.8529 243.43 61.0166 243.583 61.2167C243.736 61.4169 243.835 61.6477 243.871 61.89C243.906 62.0138 243.911 62.1432 243.885 62.269C243.859 62.3947 243.803 62.5134 243.721 62.6166C243.638 62.7198 243.532 62.8047 243.409 62.8651C243.287 62.9256 243.151 62.9601 243.012 62.9661C242.873 62.9893 242.731 62.9837 242.594 62.9497C242.458 62.9156 242.332 62.854 242.225 62.7694C242.118 62.6847 242.033 62.5791 241.976 62.4603C241.919 62.3416 241.892 62.2126 241.897 62.0828V61.8403L242.532 61.7781L242.566 62.058C242.6 62.3379 242.742 62.4249 242.958 62.4001C243.174 62.3752 243.289 62.2632 243.256 61.9833C243.222 61.7034 243.06 61.4982 242.579 61.1934C242.344 61.0798 242.141 60.9162 241.988 60.716C241.835 60.5159 241.737 60.285 241.7 60.0427C241.565 59.4269 241.856 59.0351 242.512 58.9729Z" fill="black"/>
<path d="M76.2891 136.798L268.93 117.062" stroke="black" stroke-linecap="round" stroke-linejoin="round"/>
<path d="M77.6882 134.304C76.8255 133.942 75.8814 133.773 74.9339 133.812C73.9863 133.851 73.0624 134.096 72.2382 134.528C70.8133 135.317 69.6979 136.502 69.0535 137.912C66.8018 142.228 60.6013 152.112 59.5195 154.948C58.4376 157.784 56.1386 165.628 53.5894 169.024C51.0403 172.42 49.8164 177.414 49.8164 177.414L51.8449 224.81C52.92 217.881 56.5781 209.882 56.5781 209.882C60.0926 207.957 63.0101 205.232 65.0505 201.971C65.6646 201.298 66.2079 200.573 66.6734 199.806C70.4193 193.717 71.7379 183.05 71.4066 174.846C71.0617 165.547 74.0707 161.162 78.8444 152.784C83.6182 144.405 81.2449 135.921 77.6882 134.304Z" fill="white"/>
<path opacity="0.4" d="M77.689 134.303C76.8234 133.951 75.881 133.788 74.9355 133.827C73.99 133.866 73.0671 134.105 72.2391 134.527C75.1804 135.093 79.0684 136.256 78.3246 138.34C77.1616 141.63 72.8409 137.096 70.9273 138.744C69.0137 140.392 62.2656 149.722 67.161 153.392C72.0565 157.062 71.0084 163.73 67.9589 165.751C64.9094 167.772 67.2422 172.083 68.6959 178.981C69.5817 183.154 68.0198 192.801 66.6674 199.774C70.4134 193.685 71.732 183.017 71.4006 174.813C71.0558 165.515 74.0647 161.13 78.8385 152.751C83.6123 144.373 81.2389 135.808 77.689 134.303Z" fill="#1489A9"/>
<path d="M51.8517 224.777C52.9268 217.855 56.5849 209.85 56.5849 209.85C60.1004 207.923 63.0198 205.199 65.0641 201.938C70.0339 196.545 71.7649 184.105 71.4201 174.813C71.0752 165.52 74.1248 161.16 78.858 152.745C83.5912 144.329 81.6235 136.019 77.6747 134.303C74.9227 133.108 71.2984 133.593 69.04 137.91C66.7815 142.227 60.5878 152.11 59.5059 154.94C58.4241 157.77 56.1251 165.626 53.5759 169.028C51.0268 172.431 49.8164 177.413 49.8164 177.413" stroke="black" stroke-linecap="round" stroke-linejoin="round"/>
<path d="M63.8281 155.543C63.8281 155.543 67.9731 155.662 69.9137 156.986" stroke="black" stroke-linecap="round" stroke-linejoin="round"/>
<path d="M48.2391 176.505C48.2391 176.505 47.3262 174.764 51.4238 172.811" stroke="black" stroke-linecap="round" stroke-linejoin="round"/>
<path opacity="0.2" d="M193.393 140.999C201.655 141.061 211.994 175.32 215.213 179.263C215.213 179.263 261.361 180.725 267.176 186.647C272.991 192.568 270.111 197.569 273.938 203.185C277.765 208.802 278.861 218.269 278.861 218.269L289.003 234.011L245.532 253.169C245.532 253.169 222.306 240.928 216.639 238.166C210.973 235.404 194.184 229.371 189.721 221.571C185.258 213.772 185.035 206.451 184.075 203.21C183.115 199.97 201.777 190.267 201.777 190.267L193.393 140.999Z" fill="black" fill-opacity="0.7"/>
<path d="M294.787 237.123C291.041 233.938 287.105 230.555 283.867 227.756C279.735 224.186 276.74 221.58 276.74 221.58C274.278 216.827 272.115 215.229 269.39 211.478C266.665 207.728 267.084 203.772 266.442 198.535C265.799 193.298 263.493 188.788 262.08 185.703C260.667 182.618 260.552 179.427 260.268 178.737C259.984 178.046 255.704 175.005 253.723 172.517C252.834 171.408 251.748 170.444 250.511 169.668C249.127 168.765 247.535 168.167 245.859 167.92C245.164 167.834 244.461 167.822 243.763 167.883C242.386 168.085 241.029 168.391 239.706 168.797C237.961 169.183 233.553 167.224 231.01 167.317C230.537 167.317 230.07 167.379 229.597 167.441C227.409 167.817 225.257 168.352 223.16 169.04C220.868 169.662 217.595 168.281 215.228 168.119H215.181C214.654 168.067 214.122 168.128 213.626 168.3C211.388 169.164 207.108 170.483 207.108 170.483C207.108 170.483 206.005 167.802 204.829 164.089C204.626 163.467 204.416 162.845 204.193 162.223C203.368 159.959 202.469 157.962 201.915 156.084C201.768 155.603 201.648 155.115 201.556 154.622C201.056 151.904 200.42 149.833 199.264 145.765L199.142 145.33C198.777 144.086 198.466 142.842 198.121 141.747C197.263 139.11 196.093 137.281 193.111 137.505C190.487 137.704 189.054 139.246 188.979 143.327C188.905 147.407 188.06 147.301 189.23 152.992C190.399 158.684 189.967 162.565 190.906 165.376C191.846 168.188 192.604 173.879 192.604 173.879C191.299 173.599 190.345 174.283 190.264 174.775C190.183 175.266 190.453 179.831 190.589 183.109C190.704 186.02 188.621 189.192 188.1 191.332C188.1 191.332 188.1 191.369 188.1 191.382C188.042 191.613 188.008 191.848 187.999 192.085C187.925 194.175 189.311 198.305 190.704 203.672C192.097 209.04 192.056 214.868 194.463 218.14C194.961 218.799 195.57 219.381 196.269 219.863C199.163 221.909 203.842 223.197 208.636 226.45C214.62 230.524 218.9 233.547 222.443 234.536C224.986 235.257 226.216 236.028 226.967 237.241C227.266 237.773 227.494 238.337 227.643 238.921C227.981 240.046 228.88 240.787 230.388 241.968C232.747 243.782 234.922 245.789 236.886 247.964C238.725 249.98 241.768 253.923 245 258.308L294.787 237.123Z" fill="white"/>
<path opacity="0.4" d="M201.538 154.602C201.629 155.095 201.749 155.583 201.896 156.064C198.015 156.238 191.287 159.497 191.699 161.531C192.213 164.019 193.396 169.897 195.08 170.948C196.764 171.999 199.928 172.23 199.928 172.23C199.719 172.291 199.513 172.364 199.313 172.447L199.245 172.478C198.364 172.867 197.631 173.491 197.142 174.27C195.006 177.573 196.426 183.537 198.103 186.187C205.074 197.209 201.22 207.994 198.698 207.335C196.175 206.676 193.329 196.518 193.383 193.974C193.427 192.485 193.252 190.998 192.862 189.552C191.794 189.465 189.826 190.367 188.055 191.331C188.055 191.331 188.055 191.3 188.055 191.281C188.575 189.142 190.658 185.969 190.543 183.059C190.408 179.781 190.131 175.215 190.218 174.724C190.306 174.232 191.253 173.548 192.558 173.828C192.558 173.828 191.794 168.143 190.861 165.326C189.928 162.508 190.354 158.639 189.184 152.942C188.014 147.244 188.859 147.344 188.934 143.276C189.008 139.208 190.442 137.678 193.065 137.454C196.061 137.23 197.217 139.059 198.076 141.696C197.67 141.486 197.25 141.301 196.818 141.142C195.734 140.691 194.506 140.631 193.376 140.975C192.078 141.441 191.226 142.934 190.827 144.408C190.245 146.529 190.604 148.619 191.929 147.593C193.43 146.436 197.014 145.919 199.225 145.727C200.429 149.813 201.037 151.909 201.538 154.602Z" fill="#1489A9"/>
<path opacity="0.4" d="M227.648 238.931C227.5 238.35 227.273 237.788 226.972 237.258C226.221 236.045 224.99 235.274 222.448 234.553C218.905 233.539 214.625 230.516 208.641 226.467C203.847 223.214 199.174 221.926 196.273 219.88C199.451 220.664 203.089 219.102 204.868 221.055C207.451 223.873 216.937 226.915 216.937 226.915C226.803 232.432 227.648 238.931 227.648 238.931Z" fill="#1489A9"/>
<path opacity="0.4" d="M215.159 168.081C214.172 168.081 213.131 174.481 213.408 176.602C214.159 182.082 221.421 197.906 217.465 198.372C215.836 198.571 211.981 191.281 210.933 187.724C207.762 176.901 207.059 172.267 207.059 172.267C207.059 172.267 204.645 166.42 204.145 162.185C204.368 162.807 204.577 163.429 204.78 164.051C205.957 167.782 207.059 170.445 207.059 170.445C207.059 170.445 211.339 169.126 213.577 168.261C214.081 168.086 214.624 168.024 215.159 168.081Z" fill="#1489A9"/>
<path opacity="0.4" d="M229.583 167.459C227.555 168.081 225.966 170.401 224.363 171.104C222.403 171.969 217.5 168.523 215.215 168.137C217.581 168.299 220.854 169.705 223.146 169.058C225.243 168.37 227.395 167.836 229.583 167.459Z" fill="#1489A9"/>
<path opacity="0.4" d="M243.751 167.864C243.034 169.268 242.553 170.763 242.324 172.299C241.945 177.611 248.41 195.984 244.907 193.509C240.377 190.293 240.431 175.683 236.523 170.968C235.272 169.456 231.695 167.391 231.012 167.298C233.554 167.205 237.963 169.164 239.707 168.779C241.026 168.373 242.378 168.067 243.751 167.864Z" fill="#1489A9"/>
<path opacity="0.4" d="M283.864 227.73C280.408 225.504 276.838 223.439 274.729 222.817C269.549 221.361 267.588 219.085 266.094 214.936C264.6 210.787 265.796 210.62 266.094 206.123C266.391 201.625 262.483 196.992 262.97 198.074C263.457 199.156 263.335 207.404 261.861 208.119C260.387 208.834 258.48 203.734 257.182 199.504C255.884 195.275 253.24 174.855 251.522 171.123C251.283 170.578 250.95 170.072 250.535 169.624C251.773 170.4 252.858 171.363 253.747 172.473C255.728 174.961 260.008 177.99 260.292 178.693C260.576 179.396 260.684 182.574 262.104 185.659C263.524 188.744 265.823 193.247 266.466 198.491C267.108 203.734 266.702 207.69 269.414 211.434C272.125 215.179 274.303 216.783 276.764 221.535C276.737 221.573 279.732 224.16 283.864 227.73Z" fill="#1489A9"/>
<path opacity="0.4" d="M227.864 178.985C229.155 179.756 233.205 192.669 234.625 195.779C236.045 198.888 236.235 206.974 234.591 204.86C232.948 202.745 222.596 175.844 227.864 178.985Z" fill="#1489A9"/>
<path d="M243.772 256.652C241 252.951 238.485 249.729 236.882 247.975C234.918 245.8 232.743 243.793 230.384 241.979C228.876 240.785 227.977 240.057 227.639 238.932C227.491 238.35 227.264 237.788 226.963 237.258C226.212 236.045 224.982 235.274 222.439 234.553C218.896 233.539 214.616 230.516 208.632 226.467C203.838 223.214 199.165 221.926 196.265 219.88C195.566 219.398 194.957 218.817 194.459 218.157C192.072 214.91 192.093 209.045 190.7 203.689C189.307 198.334 187.921 194.192 187.995 192.102C188.005 191.865 188.038 191.63 188.096 191.399C188.096 191.399 188.096 191.368 188.096 191.349C188.617 189.209 190.7 186.037 190.585 183.126C190.45 179.848 190.172 175.283 190.26 174.792C190.348 174.3 191.295 173.616 192.6 173.896C192.6 173.896 191.836 168.211 190.903 165.393C189.969 162.576 190.395 158.707 189.226 153.01C188.056 147.312 188.901 147.412 188.976 143.344C189.05 139.276 190.483 137.746 193.107 137.522C196.102 137.298 197.259 139.127 198.117 141.764C198.476 142.852 198.794 144.078 199.138 145.347L199.26 145.782C200.416 149.85 201.052 151.921 201.552 154.639C201.644 155.132 201.764 155.62 201.911 156.101C202.465 157.967 203.364 159.976 204.189 162.24C204.413 162.862 204.622 163.484 204.825 164.106C206.002 167.838 207.104 170.5 207.104 170.5C207.104 170.5 211.384 169.181 213.622 168.317C214.118 168.145 214.651 168.084 215.177 168.136H215.224C217.591 168.298 220.864 169.704 223.156 169.057C225.253 168.369 227.405 167.835 229.593 167.458V167.458C230.066 167.396 230.533 167.353 231.006 167.334C233.549 167.241 237.957 169.2 239.702 168.814C241.025 168.408 242.382 168.102 243.759 167.9C244.457 167.839 245.16 167.851 245.855 167.937C247.531 168.184 249.123 168.782 250.507 169.685C251.745 170.461 252.83 171.425 253.719 172.534C255.7 175.022 259.98 178.051 260.264 178.754C260.548 179.457 260.656 182.635 262.076 185.72C263.496 188.805 265.795 193.308 266.438 198.552C267.08 203.795 266.674 207.751 269.386 211.495C272.097 215.24 274.275 216.845 276.736 221.597C276.736 221.597 279.731 224.203 283.863 227.773C286.736 230.261 290.158 233.197 293.505 236.052" stroke="black" stroke-linecap="round" stroke-linejoin="round"/>
<path d="M192.57 173.851C193.591 177.782 194.47 182.752 194.349 184.923C194.227 187.093 196.431 193.78 195.985 196.902" stroke="black" stroke-linecap="round" stroke-linejoin="round"/>
<path d="M195.586 176.466C195.586 176.466 197.756 172.734 199.961 172.23C202.165 171.726 204.694 172.572 207.094 172.298C209.495 172.025 211.503 169.91 213.64 169.039" stroke="black" stroke-linecap="round" stroke-linejoin="round"/>
<path d="M193.547 161.769C193.547 161.769 197.205 159.536 199.632 160.425" stroke="black" stroke-linecap="round" stroke-linejoin="round"/>
<path d="M196.133 159.373C197.139 158.989 198.257 158.93 199.304 159.205" stroke="black" stroke-linecap="round" stroke-linejoin="round"/>
<path d="M192.578 150.043C193.86 149.468 195.263 149.16 196.689 149.142" stroke="black" stroke-linecap="round" stroke-linejoin="round"/>
<path d="M188.086 191.306C189.105 190.514 190.208 189.818 191.379 189.229" stroke="black" stroke-linecap="round" stroke-linejoin="round"/>
<path d="M195.831 193.466C195.365 194.661 195.034 195.897 194.844 197.154" stroke="black" stroke-linecap="round" stroke-linejoin="round"/>
<path d="M190.078 140.409C190.078 140.409 190.639 145.092 191.363 145.385C192.086 145.677 196.982 144.98 197.164 144.109C197.347 143.239 196.556 139.892 196.556 139.892C196.556 139.892 192.512 135.968 190.078 140.409Z" stroke="black" stroke-linecap="round" stroke-linejoin="round"/>
<path d="M190.554 183.084C190.554 183.084 194.043 180.365 193.455 177.71C192.866 175.054 191.703 175.334 190.223 175.645" stroke="black" stroke-linecap="round" stroke-linejoin="round"/>
<path d="M254.043 175.451C255.26 179.587 257.12 192.021 257.424 193.837C257.728 195.653 259.074 200.194 259.074 200.194" stroke="black" stroke-linecap="round" stroke-linejoin="round"/>
<path d="M223.207 172.149C228.968 176.933 224.127 175.701 233.945 202.409" stroke="black" stroke-linecap="round" stroke-linejoin="round"/>
<path d="M276.725 221.574C276.725 221.574 272.236 219.708 271.188 218.296" stroke="black" stroke-linecap="round" stroke-linejoin="round"/>
<path d="M223.535 231.891C225.117 233.377 226.828 237.016 226.916 237.24" stroke="black" stroke-linecap="round" stroke-linejoin="round"/>
</g>
<defs>
<filter id="filter0_d_2_790" x="0.499939" y="0.759766" width="308.501" height="268.501" filterUnits="userSpaceOnUse" color-interpolation-filters="sRGB">
<feFlood flood-opacity="0" result="BackgroundImageFix"/>
<feColorMatrix in="SourceAlpha" type="matrix" values="0 0 0 0 0 0 0 0 0 0 0 0 0 0 0 0 0 0 127 0" result="hardAlpha"/>
<feOffset dy="4"/>
<feGaussianBlur stdDeviation="2"/>
<feComposite in2="hardAlpha" operator="out"/>
<feColorMatrix type="matrix" values="0 0 0 0 0 0 0 0 0 0 0 0 0 0 0 0 0 0 0.25 0"/>
<feBlend mode="normal" in2="BackgroundImageFix" result="effect1_dropShadow_2_790"/>
<feBlend mode="normal" in="SourceGraphic" in2="effect1_dropShadow_2_790" result="shape"/>
</filter>
</defs>
</svg>
