<svg width="309" height="269" viewBox="0 0 309 269" fill="none" xmlns="http://www.w3.org/2000/svg">
<g filter="url(#filter0_d_2_602)">
<g opacity="0.5">
<path opacity="0.8" d="M292.444 162.336C291.177 153.223 289.061 144.234 286.122 135.474C282.987 125.78 279.332 116.009 279.713 105.898C279.983 98.7728 282.256 91.8619 283.367 84.8055C285.187 73.5249 284.061 61.912 280.926 50.8738C278.667 42.9449 275.32 35.1752 269.963 28.7143C265.168 22.9321 258.898 18.3271 252.145 14.74C234.297 5.17686 213.409 2.16456 192.945 0.890388C173.3 -0.356081 153.252 -0.127559 134.345 5.04529C122.587 8.24537 111.647 13.6968 102.201 21.0625C92.7551 28.4282 85.0045 37.5515 79.4282 47.8684C67.274 70.4157 60.2432 95.7536 43.2142 115.732C34.2246 126.278 22.5017 135.246 17.3564 147.891C9.99667 165.971 19.1397 187.757 35.8179 198.975C46.3349 206.052 59.0738 209.432 70.5044 215.103C81.0507 220.331 90.4203 227.478 100.806 232.99C138.957 253.231 186.309 249.284 228.428 238.37C249.492 232.934 271.549 224.881 283.637 207.652C292.905 194.419 294.476 178.388 292.444 162.336Z" fill="#1489A9"/>
</g>
<path d="M166.065 260.259C234.195 260.259 289.426 256.657 289.426 252.213C289.426 247.769 234.195 244.166 166.065 244.166C97.934 244.166 42.7031 247.769 42.7031 252.213C42.7031 256.657 97.934 260.259 166.065 260.259Z" fill="#263238"/>
<path d="M91.9214 191.593C91.4098 189.253 90.7301 185.894 90.1089 181.836C89.9262 180.666 89.7508 179.426 89.59 178.145C90.1455 178.048 94.5598 177.231 96.2774 176.068C97.8414 175.022 99.5224 173.298 99.5881 171.359C99.6259 170.905 99.5614 170.449 99.3991 170.021C99.2368 169.592 98.9802 169.201 98.6465 168.874C98.3127 168.547 97.9094 168.29 97.4632 168.122C97.0169 167.953 96.538 167.876 96.0581 167.897C93.1931 168.084 90.5474 172.294 89.9262 174.655C89.8897 174.808 89.6339 176.636 89.5242 177.577C89.4292 176.802 89.3342 176.033 89.2465 175.23C89.115 174.067 89.0126 172.841 88.9103 171.65C88.9103 171.027 88.8445 170.403 88.8153 169.773C88.7861 169.143 88.8153 168.527 88.8153 167.89C88.8153 166.962 88.8884 165.999 88.9395 165.044C90.1966 164.988 93.8728 164.76 95.5173 163.97C97.1617 163.181 99.1716 161.678 99.5443 159.815C99.6466 159.375 99.6505 158.92 99.5559 158.478C99.4612 158.037 99.27 157.619 98.9947 157.252C98.7193 156.885 98.3658 156.576 97.957 156.346C97.5481 156.116 97.093 155.97 96.6209 155.917C93.7632 155.695 90.467 159.476 89.4877 161.72C89.4511 161.789 89.2977 162.287 89.1149 162.876C89.2026 161.941 89.283 161.006 89.4073 160.065C89.7435 157.398 90.182 154.684 90.6059 151.962C90.6936 151.395 90.774 150.834 90.8617 150.266C91.9141 150.217 95.9046 150.01 97.6368 149.186C99.3689 148.362 101.291 146.887 101.664 145.031C101.767 144.591 101.772 144.135 101.678 143.693C101.584 143.251 101.393 142.833 101.117 142.465C100.842 142.098 100.488 141.789 100.078 141.56C99.6687 141.33 99.213 141.184 98.7404 141.132C95.8754 140.91 92.5865 144.691 91.5999 146.935C91.5999 147.011 91.3806 147.628 91.176 148.265C91.3879 146.79 91.5706 145.308 91.7095 143.84C91.9667 141.308 92.0424 138.763 91.9361 136.222C92.3088 136.222 96.9863 136.049 98.9158 135.135C100.633 134.325 102.57 132.843 102.943 130.98C103.046 130.541 103.051 130.085 102.957 129.644C102.863 129.202 102.671 128.785 102.396 128.418C102.12 128.051 101.766 127.743 101.357 127.514C100.947 127.285 100.492 127.14 100.019 127.089C97.1544 126.86 93.8655 130.648 92.8789 132.885C92.8058 133.044 92.148 135.191 91.9507 135.959C91.9471 135.929 91.9471 135.899 91.9507 135.869C91.7815 133.382 91.3804 130.914 90.7521 128.494C90.2004 126.33 89.5172 124.199 88.7057 122.11C87.9748 120.171 87.1782 118.432 86.4619 116.902C86.0673 116.071 85.6872 115.323 85.3291 114.631H85.3876C85.4387 114.631 85.2999 111.341 85.2706 111.168C84.876 108.772 82.6322 104.354 79.7965 103.925C79.3237 103.865 78.843 103.901 78.3858 104.03C77.9286 104.158 77.5051 104.376 77.1429 104.671C76.7808 104.965 76.4883 105.328 76.2844 105.736C76.0804 106.145 75.9697 106.589 75.9595 107.041C75.8426 108.959 77.3554 110.836 78.8099 112.013C80.2643 113.19 84.1963 114.34 85.161 114.603C85.5191 115.337 85.8919 116.12 86.2938 116.992C86.9735 118.536 87.7556 120.281 88.406 122.234C88.5887 122.754 88.7641 123.321 88.9469 123.862C88.4426 123.003 87.7336 121.833 87.6459 121.729C86.133 119.769 81.9891 116.826 79.2703 117.685C78.8218 117.838 78.4124 118.079 78.069 118.393C77.7255 118.706 77.4557 119.084 77.2771 119.503C77.0984 119.922 77.015 120.372 77.0323 120.823C77.0496 121.275 77.1672 121.718 77.3774 122.123C78.2032 123.875 80.4616 124.893 82.3326 125.288C84.2036 125.683 88.3695 124.983 89.2611 124.817C89.6412 126.029 89.992 127.282 90.2989 128.612C90.8515 131.001 91.1792 133.432 91.2783 135.876C91.2783 136.022 91.2783 136.167 91.2783 136.312C91.1029 135.841 89.9628 133.355 89.8677 133.189C88.5887 131.112 84.8102 127.726 82.0037 128.293C81.5395 128.4 81.1041 128.598 80.7261 128.874C80.348 129.151 80.0357 129.5 79.8095 129.898C79.5833 130.297 79.4483 130.736 79.4133 131.187C79.3783 131.639 79.4442 132.092 79.6065 132.518C80.2277 134.339 82.3618 135.578 84.167 136.174C86.25 136.866 91.0956 136.423 91.271 136.409C91.3108 138.861 91.1814 141.313 90.8836 143.75C90.6717 145.557 90.3793 147.378 90.0651 149.199C89.8239 148.597 88.7714 146.284 88.6691 146.125C87.3974 144.047 83.6189 140.668 80.8124 141.236C80.349 141.342 79.9145 141.54 79.5371 141.816C79.1597 142.092 78.8478 142.441 78.6217 142.838C78.3956 143.236 78.2604 143.674 78.2248 144.125C78.1892 144.575 78.2541 145.028 78.4152 145.453C79.0364 147.281 81.1632 148.514 82.9757 149.116C85.0075 149.809 89.6485 149.386 90.0431 149.352C89.897 150.176 89.7581 151.007 89.6119 151.838C89.1223 154.539 88.6253 157.253 88.2233 159.94C88.0771 160.875 87.9748 161.796 87.8725 162.71C87.4851 161.817 86.747 160.21 86.6666 160.078C85.3876 158.001 81.609 154.615 78.8025 155.189C78.3392 155.296 77.9047 155.494 77.5272 155.77C77.1498 156.046 76.8379 156.394 76.6118 156.792C76.3857 157.19 76.2505 157.628 76.2149 158.078C76.1794 158.529 76.2442 158.981 76.4053 159.407C77.0266 161.235 79.1534 162.467 80.9659 163.07C82.7784 163.672 86.6885 163.409 87.7921 163.326C87.624 164.863 87.4997 166.394 87.4486 167.903C87.4486 168.554 87.3828 169.226 87.4486 169.849C87.5144 170.473 87.4486 171.11 87.4924 171.726C87.5802 173.007 87.6459 174.198 87.7555 175.389C87.8067 175.992 87.8652 176.559 87.9237 177.141C87.6752 176.186 87.2513 174.669 87.1928 174.537C86.2646 172.273 83.0707 168.416 80.1985 168.575C79.7236 168.615 79.263 168.75 78.8464 168.969C78.4297 169.189 78.0663 169.488 77.7798 169.849C77.4932 170.21 77.2898 170.624 77.1827 171.064C77.0756 171.505 77.0672 171.961 77.1581 172.405C77.4797 174.295 79.3507 175.825 81.0755 176.677C82.9465 177.612 87.4413 177.889 87.9894 177.924C88.1356 179.35 88.2964 180.742 88.4645 182.037C89.0053 186.15 89.6119 189.55 90.0724 191.933C90.5328 194.315 90.8617 195.665 90.8617 195.665C90.8838 195.796 90.9342 195.92 91.0097 196.032C91.0853 196.143 91.1844 196.238 91.3008 196.311C91.4171 196.384 91.5482 196.433 91.6857 196.456C91.8232 196.478 91.9642 196.473 92.0996 196.442C92.2351 196.41 92.3621 196.352 92.4727 196.271C92.5833 196.191 92.675 196.089 92.7421 195.973C92.8092 195.857 92.8501 195.729 92.8623 195.598C92.8745 195.466 92.8578 195.333 92.8131 195.208C92.8131 195.208 92.4331 193.941 91.9214 191.593Z" fill="#1489A9"/>
<path d="M89.4845 124.311C89.4845 124.311 94.3082 122.926 95.9818 121.493C97.4435 120.288 98.9052 118.369 98.6933 116.451C98.6704 116 98.5475 115.559 98.3326 115.156C98.1177 114.753 97.8156 114.398 97.446 114.113C97.0764 113.828 96.6476 113.62 96.1875 113.503C95.7275 113.386 95.2465 113.362 94.7759 113.432C91.9548 113.931 89.828 118.404 89.5064 120.814C89.4772 121.022 89.4333 124.325 89.4845 124.311Z" fill="#1489A9"/>
<path d="M92.0325 196.44C92.1515 196.518 92.2515 196.619 92.3256 196.737C92.3997 196.855 92.4461 196.986 92.4618 197.123C92.4775 197.259 92.462 197.397 92.4164 197.527C92.3709 197.657 92.2963 197.776 92.1977 197.877C92.0991 197.977 91.9789 198.056 91.8452 198.109C91.7115 198.161 91.5675 198.186 91.4228 198.181C91.2782 198.176 91.1364 198.142 91.007 198.08C90.8776 198.019 90.7638 197.932 90.6731 197.825C90.6731 197.825 89.606 196.855 87.8447 195.117C86.0833 193.379 83.5838 190.851 80.7407 187.708C79.8418 186.71 78.9063 185.63 77.9488 184.522C77.4738 184.778 73.5637 186.897 71.4588 187.091C69.5513 187.264 67.0737 186.987 65.6997 185.575C65.3656 185.253 65.1066 184.868 64.9396 184.446C64.7726 184.023 64.7012 183.571 64.7301 183.121C64.7591 182.67 64.8877 182.231 65.1076 181.83C65.3275 181.43 65.6338 181.078 66.0066 180.797C68.3088 179.162 73.2202 180.714 75.3104 182.119C75.4347 182.202 76.6698 183.241 77.4299 183.906C77.0426 183.449 76.6991 183.013 76.2679 182.521C75.4858 181.586 74.7331 180.63 73.9218 179.599L72.789 178.061C72.3943 177.556 72.0581 176.974 71.6781 176.427C70.8376 175.139 70.0556 173.796 69.3028 172.425C68.4331 173.069 65.3196 175.326 63.4559 175.776C61.5922 176.226 59.0708 176.302 57.5214 175.084C57.139 174.814 56.8209 174.47 56.5878 174.076C56.3547 173.682 56.2117 173.245 56.1683 172.795C56.1249 172.345 56.1819 171.892 56.3357 171.464C56.4895 171.036 56.7366 170.644 57.0609 170.312C59.0781 168.373 64.1795 169.198 66.4671 170.312C66.6132 170.382 68.1627 171.337 69.0031 171.877C68.5573 171.046 68.1042 170.222 67.6803 169.371C66.4524 166.919 65.2904 164.399 64.121 161.885C63.7629 161.116 63.3901 160.355 63.032 159.586C62.7251 159.821 59.0854 162.584 57.0024 163.083C55.1461 163.533 52.6173 163.609 51.0679 162.39C50.6855 162.12 50.3674 161.777 50.1343 161.383C49.9012 160.988 49.7583 160.552 49.7148 160.102C49.6714 159.652 49.7284 159.198 49.8822 158.771C50.036 158.343 50.2831 157.951 50.6074 157.619C52.6173 155.68 57.7187 156.504 60.0136 157.619C60.189 157.702 62.4181 159.08 62.937 159.454C62.1331 157.772 61.3218 156.103 60.4448 154.482C59.2738 152.295 57.9555 150.18 56.4982 148.153C56.352 148.264 52.5735 151.165 50.432 151.678C48.5757 152.121 46.0469 152.204 44.4975 150.985C44.1146 150.715 43.7963 150.372 43.5632 149.977C43.33 149.583 43.1874 149.146 43.1447 148.696C43.1019 148.245 43.1599 147.792 43.315 147.364C43.47 146.936 43.7185 146.544 44.0443 146.214C46.0542 144.275 51.1556 145.099 53.4432 146.214C53.6259 146.297 56.0231 147.779 56.4397 148.077C56.352 147.959 56.2789 147.834 56.1912 147.717C54.6606 145.732 52.9487 143.878 51.0752 142.177C50.052 141.221 49.0215 140.363 47.9983 139.545C47.3478 140.155 44.344 142.904 42.4949 143.569C40.6458 144.234 38.234 144.545 36.5165 143.513C36.1054 143.285 35.7497 142.978 35.4725 142.61C35.1953 142.243 35.0028 141.825 34.9077 141.383C34.8125 140.94 34.8168 140.484 34.9202 140.043C35.0236 139.603 35.2239 139.188 35.5079 138.825C37.2839 136.685 42.4511 136.969 44.8556 137.814C44.9871 137.863 46.2588 138.465 47.1797 138.915C46.712 138.555 46.2369 138.174 45.7838 137.842C44.0736 136.568 42.4291 135.501 40.9674 134.573C40.1269 134.054 39.3595 133.597 38.636 133.188C37.6713 133.472 33.7758 134.573 31.8317 134.345C29.8876 134.116 27.5708 133.348 26.5476 131.686C26.2954 131.303 26.1308 130.874 26.0645 130.427C25.9981 129.98 26.0314 129.525 26.1623 129.091C26.2932 128.657 26.5187 128.254 26.8242 127.908C27.1298 127.561 27.5086 127.28 27.9362 127.081C30.5527 125.959 34.9963 128.466 36.7065 130.266C36.8527 130.425 38.8991 133.105 38.8406 133.119H38.7822C39.513 133.507 40.2439 133.936 41.0478 134.421C42.5095 135.321 44.2124 136.353 45.9592 137.593C47.8497 138.912 49.6602 140.332 51.3821 141.844C53.3117 143.543 55.0821 145.396 56.6736 147.384C56.6862 147.412 56.7035 147.438 56.7247 147.461C56.447 146.713 55.7454 144.58 55.7088 144.414C55.2265 142.031 55.7746 137.149 58.2888 135.841C58.7131 135.635 59.1783 135.516 59.6543 135.491C60.1303 135.467 60.6064 135.538 61.0517 135.699C61.497 135.86 61.9015 136.109 62.2389 136.428C62.5763 136.747 62.839 137.129 63.0101 137.551C63.7994 139.324 63.0101 141.574 62.0892 143.146C61.0075 144.919 57.1998 147.502 56.9001 147.703C58.4584 149.764 59.872 151.92 61.1318 154.157C61.8627 155.459 62.5935 156.788 63.2659 158.132C63.0466 157.474 62.8566 156.885 62.842 156.802C62.3596 154.42 62.9005 149.538 65.4219 148.229C65.8467 148.023 66.3124 147.905 66.7888 147.881C67.2651 147.857 67.7415 147.928 68.1868 148.09C68.6322 148.252 69.0366 148.501 69.3736 148.821C69.7107 149.141 69.9729 149.524 70.1433 149.947C70.9326 151.712 70.1433 153.963 69.2224 155.535C68.3015 157.107 65.0492 159.392 64.1941 159.981C64.4499 160.5 64.713 161.012 64.9688 161.532C66.204 164.018 67.4172 166.511 68.6889 168.921C69.1347 169.765 69.6097 170.583 70.0775 171.407C69.8875 170.825 69.734 170.333 69.7121 170.25C69.2297 167.868 69.7778 162.993 72.292 161.684C72.7163 161.478 73.1816 161.359 73.6576 161.335C74.1336 161.31 74.6097 161.381 75.055 161.542C75.5002 161.704 75.9047 161.952 76.2421 162.271C76.5795 162.59 76.8423 162.973 77.0133 163.395C77.8027 165.16 77.0499 167.418 76.0925 168.99C75.135 170.562 72.2335 172.618 71.2176 173.325C71.7292 174.149 72.2335 174.98 72.7671 175.762C73.1471 176.289 73.4979 176.822 73.878 177.327L75.0473 178.844C75.8293 179.779 76.626 180.755 77.4153 181.648C77.9562 182.279 78.4824 182.867 79.0159 183.463C78.5555 182.625 77.7004 180.963 77.6492 180.817C76.7868 178.525 76.5456 173.629 78.8259 171.974C79.2122 171.71 79.653 171.525 80.1196 171.433C80.5861 171.34 81.068 171.341 81.534 171.437C81.9999 171.532 82.4395 171.719 82.8241 171.986C83.2087 172.253 83.5298 172.593 83.7665 172.985C84.8262 174.62 84.4389 176.96 83.7665 178.65C83.0356 180.513 79.7979 183.497 79.3813 183.871C80.2657 184.855 81.1281 185.796 81.9686 186.683C84.8481 189.737 87.3696 192.181 89.1602 193.871C90.9508 195.56 92.0325 196.44 92.0325 196.44ZM47.9398 139.012C47.9398 139.012 51.1483 135.321 51.7183 133.265C52.2007 131.513 52.303 129.11 51.0533 127.642C50.771 127.277 50.4107 126.973 49.996 126.748C49.5813 126.524 49.1215 126.386 48.6464 126.341C48.1713 126.297 47.6917 126.348 47.2387 126.491C46.7858 126.634 46.3698 126.865 46.0177 127.171C43.9566 129.061 44.7898 133.902 45.9226 136.083C45.9884 136.27 47.9033 139.047 47.9398 139.012Z" fill="#1489A9"/>
<path opacity="0.1" d="M92.0325 196.44C92.1515 196.518 92.2515 196.619 92.3256 196.737C92.3997 196.855 92.4461 196.986 92.4618 197.123C92.4775 197.259 92.462 197.397 92.4164 197.527C92.3709 197.657 92.2963 197.776 92.1977 197.877C92.0991 197.977 91.9789 198.056 91.8452 198.109C91.7115 198.161 91.5675 198.186 91.4228 198.181C91.2782 198.176 91.1364 198.142 91.007 198.08C90.8776 198.019 90.7638 197.932 90.6731 197.825C90.6731 197.825 89.606 196.855 87.8447 195.117C86.0833 193.379 83.5838 190.851 80.7407 187.708C79.8418 186.71 78.9063 185.63 77.9488 184.522C77.4738 184.778 73.5637 186.897 71.4588 187.091C69.5513 187.264 67.0737 186.987 65.6997 185.575C65.3656 185.253 65.1066 184.868 64.9396 184.446C64.7726 184.023 64.7012 183.571 64.7301 183.121C64.7591 182.67 64.8877 182.231 65.1076 181.83C65.3275 181.43 65.6338 181.078 66.0066 180.797C68.3088 179.162 73.2202 180.714 75.3104 182.119C75.4347 182.202 76.6698 183.241 77.4299 183.906C77.0426 183.449 76.6991 183.013 76.2679 182.521C75.4858 181.586 74.7331 180.63 73.9218 179.599L72.789 178.061C72.3943 177.556 72.0581 176.974 71.6781 176.427C70.8376 175.139 70.0556 173.796 69.3028 172.425C68.4331 173.069 65.3196 175.326 63.4559 175.776C61.5922 176.226 59.0708 176.302 57.5214 175.084C57.139 174.814 56.8209 174.47 56.5878 174.076C56.3547 173.682 56.2117 173.245 56.1683 172.795C56.1249 172.345 56.1819 171.892 56.3357 171.464C56.4895 171.036 56.7366 170.644 57.0609 170.312C59.0781 168.373 64.1795 169.198 66.4671 170.312C66.6132 170.382 68.1627 171.337 69.0031 171.877C68.5573 171.046 68.1042 170.222 67.6803 169.371C66.4524 166.919 65.2904 164.399 64.121 161.885C63.7629 161.116 63.3901 160.355 63.032 159.586C62.7251 159.821 59.0854 162.584 57.0024 163.083C55.1461 163.533 52.6173 163.609 51.0679 162.39C50.6855 162.12 50.3674 161.777 50.1343 161.383C49.9012 160.988 49.7583 160.552 49.7148 160.102C49.6714 159.652 49.7284 159.198 49.8822 158.771C50.036 158.343 50.2831 157.951 50.6074 157.619C52.6173 155.68 57.7187 156.504 60.0136 157.619C60.189 157.702 62.4181 159.08 62.937 159.454C62.1331 157.772 61.3218 156.103 60.4448 154.482C59.2738 152.295 57.9555 150.18 56.4982 148.153C56.352 148.264 52.5735 151.165 50.432 151.678C48.5757 152.121 46.0469 152.204 44.4975 150.985C44.1146 150.715 43.7963 150.372 43.5632 149.977C43.33 149.583 43.1874 149.146 43.1447 148.696C43.1019 148.245 43.1599 147.792 43.315 147.364C43.47 146.936 43.7185 146.544 44.0443 146.214C46.0542 144.275 51.1556 145.099 53.4432 146.214C53.6259 146.297 56.0231 147.779 56.4397 148.077C56.352 147.959 56.2789 147.834 56.1912 147.717C54.6606 145.732 52.9487 143.878 51.0752 142.177C50.052 141.221 49.0215 140.363 47.9983 139.545C47.3478 140.155 44.344 142.904 42.4949 143.569C40.6458 144.234 38.234 144.545 36.5165 143.513C36.1054 143.285 35.7497 142.978 35.4725 142.61C35.1953 142.243 35.0028 141.825 34.9077 141.383C34.8125 140.94 34.8168 140.484 34.9202 140.043C35.0236 139.603 35.2239 139.188 35.5079 138.825C37.2839 136.685 42.4511 136.969 44.8556 137.814C44.9871 137.863 46.2588 138.465 47.1797 138.915C46.712 138.555 46.2369 138.174 45.7838 137.842C44.0736 136.568 42.4291 135.501 40.9674 134.573C40.1269 134.054 39.3595 133.597 38.636 133.188C37.6713 133.472 33.7758 134.573 31.8317 134.345C29.8876 134.116 27.5708 133.348 26.5476 131.686C26.2954 131.303 26.1308 130.874 26.0645 130.427C25.9981 129.98 26.0314 129.525 26.1623 129.091C26.2932 128.657 26.5187 128.254 26.8242 127.908C27.1298 127.561 27.5086 127.28 27.9362 127.081C30.5527 125.959 34.9963 128.466 36.7065 130.266C36.8527 130.425 38.8991 133.105 38.8406 133.119H38.7822C39.513 133.507 40.2439 133.936 41.0478 134.421C42.5095 135.321 44.2124 136.353 45.9592 137.593C47.8497 138.912 49.6602 140.332 51.3821 141.844C53.3117 143.543 55.0821 145.396 56.6736 147.384C56.6862 147.412 56.7035 147.438 56.7247 147.461C56.447 146.713 55.7454 144.58 55.7088 144.414C55.2265 142.031 55.7746 137.149 58.2888 135.841C58.7131 135.635 59.1783 135.516 59.6543 135.491C60.1303 135.467 60.6064 135.538 61.0517 135.699C61.497 135.86 61.9015 136.109 62.2389 136.428C62.5763 136.747 62.839 137.129 63.0101 137.551C63.7994 139.324 63.0101 141.574 62.0892 143.146C61.0075 144.919 57.1998 147.502 56.9001 147.703C58.4584 149.764 59.872 151.92 61.1318 154.157C61.8627 155.459 62.5935 156.788 63.2659 158.132C63.0466 157.474 62.8566 156.885 62.842 156.802C62.3596 154.42 62.9005 149.538 65.4219 148.229C65.8467 148.023 66.3124 147.905 66.7888 147.881C67.2651 147.857 67.7415 147.928 68.1868 148.09C68.6322 148.252 69.0366 148.501 69.3736 148.821C69.7107 149.141 69.9729 149.524 70.1433 149.947C70.9326 151.712 70.1433 153.963 69.2224 155.535C68.3015 157.107 65.0492 159.392 64.1941 159.981C64.4499 160.5 64.713 161.012 64.9688 161.532C66.204 164.018 67.4172 166.511 68.6889 168.921C69.1347 169.765 69.6097 170.583 70.0775 171.407C69.8875 170.825 69.734 170.333 69.7121 170.25C69.2297 167.868 69.7778 162.993 72.292 161.684C72.7163 161.478 73.1816 161.359 73.6576 161.335C74.1336 161.31 74.6097 161.381 75.055 161.542C75.5002 161.704 75.9047 161.952 76.2421 162.271C76.5795 162.59 76.8423 162.973 77.0133 163.395C77.8027 165.16 77.0499 167.418 76.0925 168.99C75.135 170.562 72.2335 172.618 71.2176 173.325C71.7292 174.149 72.2335 174.98 72.7671 175.762C73.1471 176.289 73.4979 176.822 73.878 177.327L75.0473 178.844C75.8293 179.779 76.626 180.755 77.4153 181.648C77.9562 182.279 78.4824 182.867 79.0159 183.463C78.5555 182.625 77.7004 180.963 77.6492 180.817C76.7868 178.525 76.5456 173.629 78.8259 171.974C79.2122 171.71 79.653 171.525 80.1196 171.433C80.5861 171.34 81.068 171.341 81.534 171.437C81.9999 171.532 82.4395 171.719 82.8241 171.986C83.2087 172.253 83.5298 172.593 83.7665 172.985C84.8262 174.62 84.4389 176.96 83.7665 178.65C83.0356 180.513 79.7979 183.497 79.3813 183.871C80.2657 184.855 81.1281 185.796 81.9686 186.683C84.8481 189.737 87.3696 192.181 89.1602 193.871C90.9508 195.56 92.0325 196.44 92.0325 196.44ZM47.9398 139.012C47.9398 139.012 51.1483 135.321 51.7183 133.265C52.2007 131.513 52.303 129.11 51.0533 127.642C50.771 127.277 50.4107 126.973 49.996 126.748C49.5813 126.524 49.1215 126.386 48.6464 126.341C48.1713 126.297 47.6917 126.348 47.2387 126.491C46.7858 126.634 46.3698 126.865 46.0177 127.171C43.9566 129.061 44.7898 133.902 45.9226 136.083C45.9884 136.27 47.9033 139.047 47.9398 139.012Z" fill="black"/>
<path d="M73.2746 242.109C72.6534 239.789 71.8129 236.466 71.0089 232.415C70.7751 231.258 70.5412 230.019 70.3219 228.751C70.8628 228.627 75.2406 227.629 76.8997 226.404C78.4125 225.289 80.0131 223.475 79.9912 221.556C80.0018 221.107 79.913 220.661 79.7304 220.247C79.5479 219.832 79.2757 219.459 78.9313 219.15C78.587 218.841 78.1782 218.605 77.7314 218.455C77.2845 218.305 76.8094 218.246 76.3369 218.281C73.4792 218.586 71.0309 222.907 70.49 225.289C70.49 225.441 70.2854 227.283 70.2269 228.225C70.0881 227.456 69.9565 226.695 69.8323 225.891C69.6495 224.742 69.4888 223.516 69.328 222.332L69.1526 220.462C69.0722 219.825 69.0868 219.209 69.0502 218.579C69.0502 217.651 69.0502 216.688 69.0502 215.733C70.3 215.622 73.9616 215.241 75.5841 214.382C77.2066 213.524 79.1288 211.938 79.4065 210.04C79.4897 209.595 79.4729 209.139 79.3572 208.7C79.2415 208.262 79.0294 207.851 78.7349 207.496C78.4404 207.14 78.07 206.848 77.648 206.637C77.226 206.426 76.7618 206.302 76.2857 206.273C73.4208 206.162 70.3073 210.082 69.423 212.367C69.423 212.436 69.2622 212.935 69.116 213.53C69.116 212.596 69.1964 211.668 69.2695 210.719C69.4888 208.032 69.7957 205.311 70.0954 202.575C70.1538 202.001 70.205 201.433 70.2708 200.865C71.3232 200.775 75.2918 200.394 76.9874 199.48C78.6829 198.566 80.532 197.036 80.8171 195.131C80.8991 194.686 80.8815 194.23 80.7653 193.792C80.6491 193.354 80.4369 192.944 80.1426 192.589C79.8483 192.234 79.4784 191.941 79.0569 191.73C78.6355 191.519 78.1719 191.394 77.6963 191.364C74.8313 191.26 71.7106 195.18 70.8335 197.458C70.8335 197.541 70.6435 198.15 70.4754 198.808C70.6143 197.319 70.7312 195.838 70.8043 194.363C70.9412 191.824 70.8972 189.279 70.6727 186.745C71.0455 186.745 75.7084 186.357 77.6013 185.36C79.2676 184.481 81.1459 182.916 81.4237 181.012C81.5069 180.566 81.4901 180.11 81.3744 179.671C81.2587 179.233 81.0466 178.822 80.7521 178.467C80.4576 178.111 80.0872 177.819 79.6651 177.608C79.2431 177.397 78.7789 177.274 78.3029 177.244C75.4379 177.141 72.3245 181.06 71.4401 183.338C71.3817 183.498 70.8262 185.665 70.6581 186.448C70.6581 186.448 70.6581 186.385 70.6581 186.357C70.3781 183.879 69.8644 181.429 69.1233 179.038C68.4691 176.901 67.6858 174.802 66.7773 172.75C65.9587 170.839 65.0817 169.135 64.2924 167.633C63.8612 166.823 63.4519 166.095 63.0572 165.41H63.1157C63.1668 165.41 62.8818 162.134 62.8379 161.947C62.3337 159.565 59.9145 155.244 56.9911 154.933C56.5185 154.898 56.0435 154.957 55.5966 155.107C55.1497 155.256 54.741 155.493 54.3966 155.802C54.0523 156.11 53.7801 156.484 53.5975 156.898C53.415 157.313 53.3262 157.759 53.3368 158.208C53.3368 160.126 54.9081 161.941 56.421 163.055C57.9339 164.17 61.9025 165.133 62.8818 165.382C63.2765 166.075 63.6857 166.864 64.1243 167.716C64.8551 169.232 65.7029 170.943 66.4776 172.868C66.6896 173.38 66.8869 173.934 67.0915 174.474C66.5507 173.637 65.7833 172.494 65.6956 172.397C64.095 170.507 59.8487 167.744 57.1373 168.713C56.6972 168.886 56.3004 169.145 55.9728 169.473C55.6451 169.801 55.3939 170.19 55.2354 170.616C55.0769 171.042 55.0146 171.494 55.0527 171.944C55.0907 172.394 55.2282 172.832 55.4563 173.228C56.3625 174.945 58.6647 175.853 60.5723 176.185C62.4798 176.517 66.5873 175.624 67.4716 175.416C67.9101 176.614 68.3267 177.854 68.6848 179.169C69.3659 181.545 69.8184 183.974 70.0369 186.427C70.0369 186.565 70.0369 186.718 70.0369 186.856C69.8469 186.399 68.5752 183.955 68.4875 183.795C67.1135 181.718 63.1815 178.553 60.4042 179.239C59.946 179.364 59.5209 179.58 59.1567 179.871C58.7924 180.163 58.4972 180.524 58.2903 180.932C58.0833 181.339 57.9694 181.783 57.9558 182.234C57.9423 182.686 58.0294 183.135 58.2116 183.553C58.9425 185.353 61.135 186.503 62.933 187.015C65.0451 187.618 69.8615 186.974 70.0442 186.953C70.1912 189.401 70.1741 191.855 69.993 194.3C69.8615 196.115 69.6569 197.943 69.4303 199.778C69.1672 199.189 67.9686 196.918 67.8955 196.765C66.5215 194.688 62.5895 191.523 59.8122 192.209C59.354 192.334 58.9289 192.55 58.5647 192.842C58.2004 193.133 57.9052 193.495 57.6983 193.902C57.4913 194.309 57.3774 194.753 57.3638 195.204C57.3503 195.656 57.4374 196.105 57.6196 196.523C58.3505 198.324 60.5431 199.466 62.341 199.986C64.402 200.567 69.021 199.986 69.4157 199.923C69.306 200.754 69.211 201.592 69.1014 202.423C68.7433 205.145 68.3705 207.88 68.0855 210.581C67.9905 211.515 67.932 212.443 67.8663 213.35C67.435 212.478 66.6238 210.899 66.5361 210.774C65.1621 208.697 61.2374 205.532 58.4967 206.218C58.0391 206.344 57.6148 206.56 57.2512 206.852C56.8875 207.144 56.5928 207.505 56.386 207.912C56.1792 208.319 56.0651 208.762 56.051 209.214C56.0369 209.665 56.1231 210.114 56.3041 210.532C57.0349 212.333 59.2275 213.475 61.0254 213.994C62.8233 214.514 66.7627 214.098 67.8589 213.96C67.7639 215.504 67.7055 217.041 67.7274 218.551C67.7274 219.209 67.7274 219.874 67.7932 220.497L67.9247 222.374C68.0709 223.648 68.1951 224.832 68.3559 226.023C68.4363 226.618 68.524 227.179 68.6117 227.761C68.3121 226.819 67.8224 225.323 67.7639 225.192C66.7261 222.969 63.3788 219.25 60.4992 219.527C60.027 219.587 59.5732 219.739 59.1672 219.975C58.7613 220.212 58.4123 220.526 58.1428 220.898C57.8734 221.27 57.6895 221.692 57.6031 222.136C57.5168 222.58 57.5299 223.036 57.6416 223.475C58.0508 225.358 60.0241 226.805 61.7563 227.581C63.6638 228.44 68.1659 228.53 68.7214 228.537C68.9333 229.963 69.1526 231.341 69.3864 232.636C70.1173 236.715 70.8482 240.094 71.4475 242.449C72.0468 244.803 72.4122 246.146 72.4122 246.146C72.5019 246.373 72.6785 246.558 72.9067 246.666C73.1349 246.773 73.3976 246.795 73.6421 246.727C73.8865 246.658 74.0946 246.505 74.2244 246.297C74.3542 246.089 74.3961 245.842 74.3417 245.606C74.3417 245.606 73.8958 244.436 73.2746 242.109Z" fill="#1489A9"/>
<path d="M67.6886 174.995C67.6886 174.995 72.4465 173.402 74.0471 171.913C75.4138 170.639 76.7878 168.665 76.532 166.761C76.4873 166.311 76.343 165.875 76.1087 165.481C75.8743 165.087 75.5551 164.745 75.1718 164.476C74.7885 164.207 74.3497 164.017 73.8839 163.919C73.4181 163.821 72.9358 163.817 72.4684 163.908C69.6765 164.524 67.7617 169.081 67.5497 171.525C67.5278 171.726 67.6374 175.015 67.6886 174.995Z" fill="#1489A9"/>
<path d="M70.5499 243.086C68.6863 241.48 66.0552 239.139 63.0294 236.203C62.1597 235.358 61.2461 234.451 60.3252 233.509C60.7053 233.121 63.7676 229.998 64.4473 228.108C65.0612 226.39 65.3389 224.043 64.1988 222.45C63.9448 222.068 63.6088 221.742 63.2126 221.491C62.8164 221.24 62.369 221.072 61.8994 220.996C61.4299 220.92 60.9487 220.939 60.4874 221.051C60.026 221.163 59.5947 221.366 59.2216 221.647C57.0291 223.392 57.4895 228.281 58.4542 230.524C58.5127 230.67 59.4482 232.297 59.916 233.114C59.3532 232.547 58.7977 231.979 58.2277 231.369C57.4018 230.511 56.5613 229.569 55.7354 228.669L54.493 227.201C54.0618 226.709 53.7183 226.19 53.3163 225.684C52.7462 224.929 52.1981 224.119 51.65 223.309C52.6293 222.568 55.465 220.331 56.3201 218.773C57.1752 217.215 57.8549 214.881 56.9779 213.15C56.7881 212.736 56.5081 212.364 56.1564 212.059C55.8047 211.754 55.3891 211.523 54.9366 211.38C54.4842 211.238 54.0052 211.187 53.5308 211.232C53.0564 211.277 52.5973 211.416 52.1835 211.64C49.7278 213.025 49.4135 217.942 49.9909 220.303C49.9909 220.387 50.1955 220.871 50.4148 221.446C49.9032 220.643 49.3916 219.846 48.9019 219.015C47.5206 216.661 46.1904 214.23 44.8457 211.793C44.5679 211.287 44.2829 210.782 43.9979 210.276C44.8237 209.653 47.9153 207.257 48.8142 205.623C49.7132 203.989 50.3417 201.731 49.472 200C49.2822 199.585 49.0022 199.214 48.6505 198.909C48.2988 198.604 47.8831 198.373 47.4307 198.23C46.9783 198.088 46.4993 198.037 46.0249 198.082C45.5505 198.127 45.0914 198.266 44.6776 198.49C42.2219 199.875 41.9076 204.792 42.485 207.153C42.485 207.243 42.7262 207.846 42.9747 208.469C42.2438 207.153 41.4545 205.858 40.6578 204.584C39.2918 202.403 37.7757 200.309 36.1192 198.317C36.4189 198.095 40.1024 195.36 41.0964 193.546C41.9807 191.939 42.6312 189.654 41.7541 187.923C41.565 187.508 41.2856 187.136 40.9342 186.83C40.5828 186.524 40.1672 186.292 39.7147 186.149C39.2623 186.006 38.783 185.955 38.3083 185.999C37.8335 186.044 37.374 186.182 36.9597 186.406C34.504 187.791 34.1898 192.715 34.7671 195.076C34.811 195.242 35.6149 197.341 35.9219 198.082L35.8707 198.005C34.1882 196.09 32.3321 194.317 30.3235 192.708C28.559 191.268 26.7093 189.925 24.7836 188.685C22.9857 187.521 21.2609 186.559 19.7334 185.721C18.9002 185.271 18.1255 184.876 17.4093 184.516H17.4604C17.5116 184.516 15.3555 181.905 15.1948 181.746C13.3895 180.022 8.83629 177.702 6.27828 178.934C5.85912 179.149 5.49243 179.445 5.2021 179.803C4.91178 180.161 4.70435 180.573 4.59333 181.012C4.48231 181.451 4.47019 181.908 4.55777 182.351C4.64534 182.795 4.83065 183.217 5.1016 183.588C6.19789 185.208 8.58779 185.887 10.5026 186.026C12.4175 186.164 16.2983 184.904 17.2412 184.585C17.972 184.973 18.776 185.395 19.6384 185.887C21.1439 186.753 22.8395 187.75 24.6009 188.948C25.076 189.266 25.5656 189.64 26.0626 189.966C25.1271 189.55 23.8189 189.003 23.6873 188.962C21.2463 188.221 16.0718 188.145 14.3981 190.347C14.1326 190.721 13.9531 191.145 13.8712 191.59C13.7893 192.034 13.8067 192.49 13.9224 192.928C14.0382 193.366 14.2496 193.776 14.543 194.132C14.8364 194.488 15.2054 194.781 15.626 194.993C17.3873 195.942 19.8357 195.506 21.5971 194.792C23.3584 194.079 26.2892 191.178 26.9104 190.547C27.9702 191.316 29.0372 192.133 30.1043 193.04C32.0526 194.667 33.843 196.456 35.4541 198.386C35.5491 198.497 35.6295 198.622 35.7246 198.74C35.2934 198.456 32.8011 197.078 32.6403 197.001C30.3016 196.011 25.1637 195.395 23.2488 197.424C22.9408 197.768 22.7126 198.17 22.5791 198.603C22.4456 199.037 22.4097 199.492 22.4738 199.939C22.5379 200.386 22.7005 200.816 22.9511 201.2C23.2017 201.584 23.5347 201.913 23.9285 202.167C25.5656 203.296 28.0579 203.116 29.885 202.59C31.9972 201.987 35.6442 198.933 35.783 198.823C37.3358 200.785 38.7518 202.842 40.022 204.979C40.9721 206.558 41.8638 208.192 42.7408 209.826C42.178 209.473 39.8831 208.192 39.7077 208.116C37.369 207.125 32.2311 206.516 30.3089 208.538C30.0001 208.882 29.7715 209.285 29.6379 209.718C29.5043 210.152 29.4688 210.608 29.5336 211.055C29.5984 211.503 29.7622 211.933 30.0142 212.316C30.2661 212.7 30.6007 213.029 30.9959 213.282C32.633 214.417 35.1179 214.23 36.9524 213.711C39.0134 213.115 42.5215 210.207 42.7993 209.965C43.2012 210.713 43.6032 211.46 43.9979 212.208C45.2842 214.674 46.5559 217.139 47.9007 219.542C48.3611 220.373 48.8508 221.183 49.3624 221.986C48.4926 221.481 46.8994 220.601 46.7532 220.532C44.4145 219.542 39.2765 218.932 37.3617 220.954C37.0536 221.299 36.8255 221.701 36.692 222.134C36.5584 222.567 36.5226 223.022 36.5867 223.47C36.6507 223.917 36.8134 224.346 37.064 224.73C37.3146 225.114 37.6476 225.444 38.0414 225.698C39.6785 226.834 42.1634 226.647 43.9979 226.127C45.8323 225.608 48.8435 223.212 49.6839 222.526C50.5025 223.863 51.343 225.178 52.2419 226.425C52.6439 226.958 53.0167 227.526 53.4259 228.018L54.6319 229.507C55.4943 230.497 56.2909 231.425 57.1168 232.325L58.3373 233.648C57.5407 233.01 56.2617 232.027 56.1447 231.951C53.9522 230.635 49.0116 229.292 46.7897 231.016C46.4292 231.312 46.1384 231.677 45.9365 232.087C45.7345 232.496 45.6259 232.942 45.6176 233.394C45.6094 233.846 45.7016 234.294 45.8885 234.71C46.0753 235.126 46.3525 235.5 46.702 235.808C48.1638 237.158 50.6341 237.338 52.5489 237.082C54.6392 236.798 58.4469 234.52 58.9147 234.236C59.916 235.31 60.9099 236.314 61.8381 237.304C64.82 240.33 67.4292 242.747 69.2782 244.409C71.1273 246.071 72.2017 246.999 72.2017 246.999C72.4082 247.142 72.6646 247.206 72.9188 247.177C73.173 247.148 73.4061 247.028 73.5706 246.842C73.7352 246.656 73.819 246.418 73.805 246.176C73.791 245.933 73.6803 245.705 73.4953 245.537C73.4953 245.537 72.4209 244.7 70.5499 243.086Z" fill="#1489A9"/>
<path d="M26.8158 190.035C26.8158 190.035 29.8488 186.219 30.3239 184.135C30.7259 182.362 30.7186 179.98 29.3957 178.539C29.0958 178.188 28.7214 177.901 28.2967 177.695C27.8721 177.49 27.4067 177.372 26.9307 177.347C26.4547 177.323 25.9786 177.394 25.5333 177.555C25.0879 177.716 24.6833 177.964 24.3455 178.283C22.3722 180.257 23.4319 185.062 24.6597 187.188C24.784 187.375 26.7792 190.069 26.8158 190.035Z" fill="#1489A9"/>
<g opacity="0.1">
<path opacity="0.1" d="M73.2746 242.11C72.6534 239.79 71.8129 236.467 71.0089 232.415C70.7751 231.259 70.5412 230.019 70.3219 228.752C70.8628 228.628 75.2406 227.63 76.8997 226.405C78.4125 225.29 80.0131 223.476 79.9912 221.557C80.0018 221.108 79.913 220.662 79.7304 220.248C79.5479 219.833 79.2757 219.46 78.9313 219.151C78.587 218.842 78.1782 218.606 77.7314 218.456C77.2845 218.306 76.8094 218.247 76.3369 218.282C73.4792 218.587 71.0309 222.908 70.49 225.29C70.49 225.442 70.2854 227.284 70.2269 228.226C70.0881 227.457 69.9565 226.696 69.8323 225.892C69.6495 224.743 69.4888 223.517 69.328 222.333L69.1526 220.463C69.0722 219.826 69.0868 219.21 69.0502 218.58C69.0502 217.652 69.0502 216.689 69.0502 215.734C70.3 215.623 73.9616 215.242 75.5841 214.383C77.2066 213.525 79.1288 211.939 79.4065 210.041C79.4897 209.596 79.4729 209.14 79.3572 208.701C79.2415 208.263 79.0294 207.852 78.7349 207.497C78.4404 207.141 78.07 206.849 77.648 206.638C77.226 206.427 76.7618 206.303 76.2857 206.274C73.4208 206.163 70.3073 210.083 69.423 212.368C69.423 212.437 69.2622 212.936 69.116 213.531C69.116 212.597 69.1964 211.669 69.2695 210.72C69.4888 208.033 69.7957 205.312 70.0954 202.576C70.1538 202.002 70.205 201.434 70.2708 200.866C71.3232 200.776 75.2918 200.395 76.9874 199.481C78.6829 198.567 80.532 197.037 80.8171 195.132C80.8991 194.687 80.8815 194.231 80.7653 193.793C80.6491 193.355 80.4369 192.945 80.1426 192.59C79.8483 192.235 79.4784 191.942 79.0569 191.731C78.6355 191.52 78.1719 191.395 77.6963 191.365C74.8313 191.261 71.7106 195.181 70.8335 197.459C70.8335 197.542 70.6435 198.151 70.4754 198.809C70.6143 197.32 70.7312 195.839 70.8043 194.364C70.9412 191.825 70.8972 189.28 70.6727 186.746C71.0455 186.746 75.7084 186.358 77.6013 185.361C79.2676 184.482 81.1459 182.917 81.4237 181.012C81.5069 180.567 81.4901 180.111 81.3744 179.672C81.2587 179.234 81.0466 178.823 80.7521 178.468C80.4576 178.112 80.0872 177.82 79.6651 177.609C79.2431 177.398 78.7789 177.274 78.3029 177.245C75.4379 177.142 72.3245 181.061 71.4401 183.339C71.3817 183.498 70.8262 185.666 70.6581 186.448C70.6581 186.448 70.6581 186.386 70.6581 186.358C70.3781 183.88 69.8644 181.43 69.1233 179.039C68.4691 176.902 67.6858 174.803 66.7773 172.751C65.9587 170.84 65.0817 169.136 64.2924 167.634C63.8612 166.824 63.4519 166.096 63.0572 165.411H63.1157C63.1668 165.411 62.8818 162.135 62.8379 161.948C62.3337 159.566 59.9145 155.245 56.9911 154.934C56.5185 154.899 56.0435 154.958 55.5966 155.108C55.1497 155.257 54.741 155.494 54.3966 155.803C54.0523 156.111 53.7801 156.485 53.5975 156.899C53.415 157.314 53.3262 157.76 53.3368 158.209C53.3368 160.127 54.9081 161.942 56.421 163.056C57.9339 164.171 61.9025 165.134 62.8818 165.383C63.2765 166.076 63.6857 166.865 64.1243 167.717C64.8551 169.233 65.7029 170.944 66.4776 172.869C66.6896 173.381 66.8869 173.935 67.0915 174.475C66.5507 173.638 65.7833 172.495 65.6956 172.398C64.095 170.508 59.8487 167.745 57.1373 168.714C56.6972 168.887 56.3004 169.146 55.9728 169.474C55.6451 169.802 55.3939 170.191 55.2354 170.617C55.0769 171.042 55.0146 171.495 55.0527 171.945C55.0907 172.395 55.2282 172.833 55.4563 173.229C56.3625 174.946 58.6647 175.853 60.5723 176.186C62.4798 176.518 66.5873 175.625 67.4716 175.417C67.9101 176.615 68.3267 177.855 68.6848 179.17C69.3659 181.546 69.8184 183.975 70.0369 186.428C70.0369 186.566 70.0369 186.719 70.0369 186.857C69.8469 186.4 68.5752 183.956 68.4875 183.796C67.1135 181.719 63.1815 178.554 60.4042 179.24C59.946 179.365 59.5209 179.581 59.1567 179.872C58.7924 180.164 58.4972 180.525 58.2903 180.932C58.0833 181.34 57.9694 181.784 57.9558 182.235C57.9423 182.687 58.0294 183.136 58.2116 183.554C58.9425 185.354 61.135 186.504 62.933 187.016C65.0451 187.619 69.8615 186.975 70.0442 186.954C70.1912 189.402 70.1741 191.856 69.993 194.301C69.8615 196.116 69.6569 197.944 69.4303 199.779C69.1672 199.19 67.9686 196.919 67.8955 196.766C66.5215 194.689 62.5895 191.524 59.8122 192.21C59.354 192.335 58.9289 192.551 58.5647 192.843C58.2004 193.134 57.9052 193.496 57.6983 193.903C57.4913 194.31 57.3774 194.754 57.3638 195.205C57.3503 195.657 57.4374 196.106 57.6196 196.524C58.3505 198.325 60.5431 199.467 62.341 199.987C64.402 200.568 69.021 199.987 69.4157 199.924C69.306 200.755 69.211 201.593 69.1014 202.424C68.7433 205.145 68.3705 207.881 68.0855 210.581C67.9905 211.516 67.932 212.444 67.8663 213.351C67.435 212.479 66.6238 210.9 66.5361 210.775C65.1621 208.698 61.2374 205.533 58.4967 206.219C58.0391 206.345 57.6148 206.561 57.2512 206.853C56.8875 207.145 56.5928 207.506 56.386 207.913C56.1792 208.32 56.0651 208.763 56.051 209.215C56.0369 209.666 56.1231 210.115 56.3041 210.533C57.0349 212.333 59.2275 213.476 61.0254 213.995C62.8233 214.515 66.7627 214.099 67.8589 213.961C67.7639 215.505 67.7055 217.042 67.7274 218.552C67.7274 219.21 67.7274 219.875 67.7932 220.498L67.9247 222.374C68.0709 223.649 68.1951 224.833 68.3559 226.024C68.4363 226.619 68.524 227.18 68.6117 227.762C68.3121 226.82 67.8224 225.324 67.7639 225.193C66.7261 222.97 63.3788 219.251 60.4992 219.528C60.027 219.588 59.5732 219.74 59.1672 219.976C58.7613 220.213 58.4123 220.527 58.1428 220.899C57.8734 221.271 57.6895 221.693 57.6031 222.137C57.5168 222.581 57.5299 223.037 57.6416 223.476C58.0508 225.359 60.0241 226.806 61.7563 227.582C63.6638 228.441 68.1659 228.531 68.7214 228.538C68.9333 229.964 69.1526 231.342 69.3864 232.637C70.1173 236.716 70.8482 240.095 71.4475 242.45C72.0468 244.804 72.4122 246.147 72.4122 246.147C72.5019 246.374 72.6785 246.559 72.9067 246.667C73.1349 246.774 73.3976 246.796 73.6421 246.728C73.8865 246.659 74.0946 246.506 74.2244 246.298C74.3542 246.09 74.3961 245.843 74.3417 245.607C74.3417 245.607 73.8958 244.437 73.2746 242.11Z" fill="black"/>
<path opacity="0.1" d="M67.6886 174.995C67.6886 174.995 72.4465 173.402 74.0471 171.913C75.4138 170.639 76.7878 168.666 76.532 166.761C76.4873 166.311 76.343 165.875 76.1087 165.482C75.8743 165.088 75.5551 164.745 75.1718 164.476C74.7885 164.207 74.3497 164.017 73.8839 163.92C73.4181 163.822 72.9358 163.818 72.4684 163.908C69.6765 164.525 67.7617 169.081 67.5497 171.526C67.5278 171.727 67.6374 175.016 67.6886 174.995Z" fill="black"/>
<path opacity="0.1" d="M70.5499 243.087C68.6863 241.48 66.0552 239.139 63.0294 236.203C62.1597 235.358 61.2461 234.451 60.3252 233.51C60.7053 233.122 63.7676 229.999 64.4473 228.108C65.0612 226.391 65.3389 224.043 64.1988 222.451C63.9448 222.069 63.6088 221.742 63.2126 221.491C62.8164 221.241 62.369 221.072 61.8994 220.996C61.4299 220.921 60.9487 220.939 60.4874 221.052C60.026 221.164 59.5947 221.367 59.2216 221.647C57.0291 223.392 57.4895 228.281 58.4542 230.525C58.5127 230.67 59.4482 232.298 59.916 233.115C59.3532 232.547 58.7977 231.979 58.2277 231.37C57.4018 230.511 56.5613 229.569 55.7354 228.669L54.493 227.201C54.0618 226.709 53.7183 226.19 53.3163 225.685C52.7462 224.93 52.1981 224.119 51.65 223.309C52.6293 222.568 55.465 220.332 56.3201 218.774C57.1752 217.215 57.8549 214.882 56.9779 213.151C56.7881 212.736 56.5081 212.364 56.1564 212.06C55.8047 211.755 55.3891 211.523 54.9366 211.381C54.4842 211.238 54.0052 211.188 53.5308 211.233C53.0564 211.278 52.5973 211.417 52.1835 211.641C49.7278 213.026 49.4135 217.943 49.9909 220.304C49.9909 220.387 50.1955 220.872 50.4148 221.446C49.9032 220.643 49.3916 219.847 48.9019 219.016C47.5206 216.661 46.1904 214.231 44.8457 211.793C44.5679 211.288 44.2829 210.782 43.9979 210.277C44.8237 209.654 47.9153 207.258 48.8142 205.623C49.7132 203.989 50.3417 201.732 49.472 200C49.2822 199.586 49.0022 199.214 48.6505 198.909C48.2988 198.604 47.8831 198.373 47.4307 198.231C46.9783 198.088 46.4993 198.038 46.0249 198.083C45.5505 198.127 45.0914 198.266 44.6776 198.491C42.2219 199.876 41.9076 204.792 42.485 207.154C42.485 207.244 42.7262 207.846 42.9747 208.469C42.2438 207.154 41.4545 205.859 40.6578 204.585C39.2918 202.403 37.7757 200.31 36.1192 198.318C36.4189 198.096 40.1024 195.361 41.0964 193.546C41.9807 191.94 42.6312 189.655 41.7541 187.923C41.565 187.508 41.2856 187.136 40.9342 186.83C40.5828 186.525 40.1672 186.293 39.7147 186.15C39.2623 186.006 38.783 185.955 38.3083 186C37.8335 186.044 37.374 186.183 36.9597 186.407C34.504 187.792 34.1898 192.715 34.7671 195.077C34.811 195.243 35.6149 197.341 35.9219 198.082L35.8707 198.006C34.1882 196.09 32.3321 194.318 30.3235 192.708C28.559 191.269 26.7093 189.926 24.7836 188.685C22.9857 187.522 21.2609 186.559 19.7334 185.721C18.9002 185.271 18.1255 184.876 17.4093 184.516H17.4604C17.5116 184.516 15.3555 181.906 15.1948 181.746C13.3895 180.022 8.83629 177.702 6.27828 178.935C5.85912 179.15 5.49243 179.446 5.2021 179.804C4.91178 180.162 4.70435 180.574 4.59333 181.013C4.48231 181.452 4.47019 181.908 4.55777 182.352C4.64534 182.796 4.83065 183.217 5.1016 183.588C6.19789 185.209 8.58779 185.888 10.5026 186.026C12.4175 186.164 16.2983 184.904 17.2412 184.586C17.972 184.973 18.776 185.396 19.6384 185.888C21.1439 186.753 22.8395 187.75 24.6009 188.948C25.076 189.267 25.5656 189.641 26.0626 189.966C25.1271 189.551 23.8189 189.004 23.6873 188.962C21.2463 188.221 16.0718 188.145 14.3981 190.347C14.1326 190.722 13.9531 191.145 13.8712 191.59C13.7893 192.035 13.8067 192.491 13.9224 192.929C14.0382 193.367 14.2496 193.777 14.543 194.132C14.8364 194.488 15.2054 194.782 15.626 194.994C17.3873 195.942 19.8357 195.506 21.5971 194.793C23.3584 194.08 26.2892 191.178 26.9104 190.548C27.9702 191.317 29.0372 192.134 30.1043 193.041C32.0526 194.668 33.843 196.457 35.4541 198.387C35.5491 198.498 35.6295 198.622 35.7246 198.74C35.2934 198.456 32.8011 197.078 32.6403 197.002C30.3016 196.012 25.1637 195.395 23.2488 197.424C22.9408 197.769 22.7126 198.17 22.5791 198.604C22.4456 199.037 22.4097 199.492 22.4738 199.939C22.5379 200.387 22.7005 200.816 22.9511 201.2C23.2017 201.584 23.5347 201.914 23.9285 202.168C25.5656 203.297 28.0579 203.116 29.885 202.59C31.9972 201.988 35.6442 198.934 35.783 198.823C37.3358 200.786 38.7518 202.842 40.022 204.979C40.9721 206.558 41.8638 208.192 42.7408 209.827C42.178 209.473 39.8831 208.192 39.7077 208.116C37.369 207.126 32.2311 206.517 30.3089 208.539C30.0001 208.883 29.7715 209.285 29.6379 209.719C29.5043 210.153 29.4688 210.608 29.5336 211.056C29.5984 211.503 29.7622 211.933 30.0142 212.317C30.2661 212.7 30.6007 213.029 30.9959 213.282C32.633 214.418 35.1179 214.231 36.9524 213.711C39.0134 213.116 42.5215 210.208 42.7993 209.965C43.2012 210.713 43.6032 211.461 43.9979 212.209C45.2842 214.674 46.5559 217.139 47.9007 219.542C48.3611 220.373 48.8508 221.183 49.3624 221.987C48.4926 221.481 46.8994 220.602 46.7532 220.532C44.4145 219.542 39.2765 218.933 37.3617 220.955C37.0536 221.299 36.8255 221.701 36.692 222.134C36.5584 222.568 36.5226 223.023 36.5867 223.47C36.6507 223.917 36.8134 224.347 37.064 224.731C37.3146 225.115 37.6476 225.444 38.0414 225.698C39.6785 226.834 42.1634 226.647 43.9979 226.128C45.8323 225.608 48.8435 223.212 49.6839 222.527C50.5025 223.863 51.343 225.179 52.2419 226.425C52.6439 226.959 53.0167 227.527 53.4259 228.018L54.6319 229.507C55.4943 230.497 56.2909 231.425 57.1168 232.325L58.3373 233.648C57.5407 233.011 56.2617 232.028 56.1447 231.951C53.9522 230.636 49.0116 229.292 46.7897 231.017C46.4292 231.313 46.1384 231.677 45.9365 232.087C45.7345 232.497 45.6259 232.942 45.6176 233.394C45.6094 233.846 45.7016 234.295 45.8885 234.711C46.0753 235.127 46.3525 235.501 46.702 235.809C48.1638 237.159 50.6341 237.339 52.5489 237.083C54.6392 236.799 58.4469 234.521 58.9147 234.237C59.916 235.31 60.9099 236.314 61.8381 237.304C64.82 240.331 67.4292 242.747 69.2782 244.409C71.1273 246.071 72.2017 246.999 72.2017 246.999C72.4082 247.143 72.6646 247.206 72.9188 247.177C73.173 247.148 73.4061 247.028 73.5706 246.843C73.7352 246.657 73.819 246.418 73.805 246.176C73.791 245.934 73.6803 245.706 73.4953 245.538C73.4953 245.538 72.4209 244.7 70.5499 243.087Z" fill="black"/>
<path opacity="0.1" d="M26.8158 190.036C26.8158 190.036 29.8488 186.22 30.3239 184.136C30.7259 182.363 30.7186 179.981 29.3957 178.541C29.0958 178.19 28.7214 177.902 28.2967 177.697C27.8721 177.492 27.4067 177.373 26.9307 177.349C26.4547 177.325 25.9786 177.395 25.5333 177.557C25.0879 177.718 24.6833 177.966 24.3455 178.285C22.3722 180.258 23.4319 185.064 24.6597 187.19C24.784 187.377 26.7792 190.071 26.8158 190.036Z" fill="black"/>
</g>
<g opacity="0.1">
<path opacity="0.1" d="M91.9521 191.593C91.4405 189.253 90.7608 185.894 90.1396 181.836C89.9569 180.666 89.7815 179.426 89.6207 178.145C90.1762 178.048 94.5905 177.231 96.3081 176.068C97.8721 175.022 99.5531 173.298 99.6188 171.359C99.6566 170.905 99.5921 170.449 99.4298 170.021C99.2675 169.592 99.0109 169.201 98.6772 168.874C98.3434 168.547 97.9401 168.29 97.4939 168.122C97.0476 167.953 96.5687 167.876 96.0888 167.897C93.2238 168.084 90.5781 172.294 89.9569 174.655C89.9204 174.808 89.6646 176.636 89.5549 177.577C89.4599 176.802 89.3649 176.033 89.2772 175.23C89.1457 174.067 89.0433 172.841 88.941 171.65C88.941 171.027 88.8752 170.403 88.846 169.773C88.8168 169.143 88.846 168.527 88.846 167.89C88.846 166.962 88.9191 165.999 88.9702 165.044C90.2273 164.988 93.9035 164.76 95.548 163.97C97.1924 163.181 99.2023 161.678 99.575 159.815C99.6773 159.375 99.6812 158.92 99.5866 158.478C99.4919 158.037 99.3007 157.619 99.0254 157.252C98.75 156.885 98.3965 156.576 97.9877 156.346C97.5788 156.116 97.1237 155.97 96.6516 155.917C93.7939 155.695 90.4977 159.476 89.5184 161.72C89.4818 161.789 89.3284 162.287 89.1456 162.876C89.2333 161.941 89.3137 161.006 89.438 160.065C89.7742 157.398 90.2127 154.684 90.6366 151.962C90.7243 151.395 90.8047 150.834 90.8924 150.266C91.9448 150.217 95.9353 150.01 97.6675 149.186C99.3996 148.362 101.322 146.887 101.694 145.031C101.798 144.591 101.803 144.135 101.709 143.693C101.614 143.251 101.423 142.833 101.148 142.465C100.872 142.098 100.518 141.789 100.109 141.56C99.6994 141.33 99.2437 141.184 98.7711 141.132C95.9061 140.91 92.6172 144.691 91.6306 146.935C91.6306 147.011 91.4113 147.628 91.2067 148.265C91.4186 146.79 91.6013 145.308 91.7402 143.84C91.9974 141.308 92.0731 138.763 91.9668 136.222C92.3395 136.222 97.017 136.049 98.9465 135.135C100.664 134.325 102.601 132.843 102.973 130.98C103.077 130.541 103.082 130.085 102.988 129.644C102.893 129.202 102.702 128.785 102.426 128.418C102.151 128.051 101.797 127.743 101.387 127.514C100.978 127.285 100.522 127.14 100.05 127.089C97.1851 126.86 93.8962 130.648 92.9096 132.885C92.8365 133.044 92.1787 135.191 91.9814 135.959C91.9778 135.929 91.9778 135.899 91.9814 135.869C91.8122 133.382 91.4111 130.914 90.7828 128.494C90.2311 126.33 89.5479 124.199 88.7364 122.11C88.0055 120.171 87.2089 118.432 86.4926 116.902C86.098 116.071 85.7179 115.323 85.3598 114.631H85.4183C85.4694 114.631 85.3306 111.341 85.3013 111.168C84.9067 108.772 82.6629 104.354 79.8272 103.925C79.3544 103.865 78.8737 103.901 78.4165 104.03C77.9593 104.158 77.5358 104.376 77.1736 104.671C76.8115 104.965 76.519 105.328 76.3151 105.736C76.1111 106.145 76.0004 106.589 75.9902 107.041C75.8733 108.959 77.3861 110.836 78.8406 112.013C80.295 113.19 84.227 114.34 85.1917 114.603C85.5498 115.337 85.9226 116.12 86.3245 116.992C87.0042 118.536 87.7863 120.281 88.4367 122.234C88.6194 122.754 88.7948 123.321 88.9776 123.862C88.4733 123.003 87.7643 121.833 87.6766 121.729C86.1637 119.769 82.0198 116.826 79.301 117.685C78.8525 117.838 78.4431 118.079 78.0997 118.393C77.7562 118.706 77.4864 119.084 77.3078 119.503C77.1291 119.922 77.0457 120.372 77.063 120.823C77.0803 121.275 77.1979 121.718 77.4081 122.123C78.2339 123.875 80.4923 124.893 82.3633 125.288C84.2343 125.683 88.4002 124.983 89.2918 124.817C89.6719 126.029 90.0227 127.282 90.3296 128.612C90.8822 131.001 91.2099 133.432 91.309 135.876C91.309 136.022 91.309 136.167 91.309 136.312C91.1336 135.841 89.9935 133.355 89.8984 133.189C88.6194 131.112 84.8409 127.726 82.0344 128.293C81.5702 128.4 81.1348 128.598 80.7568 128.874C80.3787 129.151 80.0664 129.5 79.8402 129.898C79.614 130.297 79.479 130.736 79.444 131.187C79.409 131.639 79.4749 132.092 79.6372 132.518C80.2584 134.339 82.3925 135.578 84.1977 136.174C86.2807 136.866 91.1263 136.423 91.3017 136.409C91.3415 138.861 91.2121 141.313 90.9143 143.75C90.7024 145.557 90.41 147.378 90.0958 149.199C89.8546 148.597 88.8021 146.284 88.6998 146.125C87.4281 144.047 83.6496 140.668 80.8431 141.236C80.3797 141.342 79.9452 141.54 79.5678 141.816C79.1904 142.092 78.8785 142.441 78.6524 142.838C78.4263 143.236 78.2911 143.674 78.2555 144.125C78.2199 144.575 78.2848 145.028 78.4459 145.453C79.0671 147.281 81.1939 148.514 83.0064 149.116C85.0382 149.809 89.6792 149.386 90.0738 149.352C89.9277 150.176 89.7888 151.007 89.6426 151.838C89.153 154.539 88.656 157.253 88.254 159.94C88.1078 160.875 88.0055 161.796 87.9032 162.71C87.5158 161.817 86.7777 160.21 86.6973 160.078C85.4183 158.001 81.6397 154.615 78.8332 155.189C78.3699 155.296 77.9354 155.494 77.5579 155.77C77.1805 156.046 76.8686 156.394 76.6425 156.792C76.4164 157.19 76.2812 157.628 76.2456 158.078C76.2101 158.529 76.2749 158.981 76.436 159.407C77.0573 161.235 79.1841 162.467 80.9966 163.07C82.8091 163.672 86.7192 163.409 87.8228 163.326C87.6547 164.863 87.5304 166.394 87.4793 167.903C87.4793 168.554 87.4135 169.226 87.4793 169.849C87.5451 170.473 87.4793 171.11 87.5232 171.726C87.6109 173.007 87.6766 174.198 87.7862 175.389C87.8374 175.992 87.8959 176.559 87.9544 177.141C87.7059 176.186 87.282 174.669 87.2235 174.537C86.2953 172.273 83.1015 168.416 80.2292 168.575C79.7543 168.615 79.2937 168.75 78.8771 168.969C78.4604 169.189 78.097 169.488 77.8105 169.849C77.5239 170.21 77.3205 170.624 77.2134 171.064C77.1063 171.505 77.0979 171.961 77.1888 172.405C77.5104 174.295 79.3814 175.825 81.1062 176.677C82.9772 177.612 87.472 177.889 88.0201 177.924C88.1663 179.35 88.3271 180.742 88.4952 182.037C89.036 186.15 89.6426 189.55 90.1031 191.933C90.5635 194.315 90.8924 195.665 90.8924 195.665C90.9145 195.796 90.9649 195.92 91.0405 196.032C91.116 196.143 91.2151 196.238 91.3315 196.311C91.4478 196.384 91.5789 196.433 91.7164 196.456C91.8539 196.478 91.9949 196.473 92.1303 196.442C92.2658 196.41 92.3928 196.352 92.5034 196.271C92.614 196.191 92.7057 196.089 92.7728 195.973C92.8399 195.857 92.8808 195.729 92.893 195.598C92.9052 195.466 92.8885 195.333 92.8438 195.208C92.8438 195.208 92.4638 193.941 91.9521 191.593Z" fill="black"/>
<path opacity="0.1" d="M89.4839 124.311C89.4839 124.311 94.3076 122.926 95.9813 121.493C97.443 120.288 98.9047 118.369 98.6927 116.451C98.6699 116 98.5469 115.559 98.332 115.156C98.1171 114.753 97.815 114.398 97.4454 114.113C97.0758 113.828 96.647 113.62 96.187 113.503C95.7269 113.386 95.2459 113.362 94.7753 113.432C91.9542 113.931 89.8274 118.404 89.5059 120.814C89.4766 121.022 89.4328 124.325 89.4839 124.311Z" fill="black"/>
</g>
<path d="M246.493 208.871C246.588 230.566 264.808 248.086 264.808 248.086C264.808 248.086 282.875 230.421 282.772 208.726C282.67 187.03 264.494 169.51 264.494 169.51C264.494 169.51 246.39 187.176 246.493 208.871Z" fill="#1489A9"/>
<path d="M264.827 248.086L264.477 169.51" stroke="white" stroke-width="0.910297" stroke-miterlimit="10"/>
<path d="M264.598 197.437L254.402 189.079" stroke="white" stroke-width="0.910297" stroke-miterlimit="10"/>
<path d="M264.801 210.421L277.298 193.109" stroke="white" stroke-width="0.910297" stroke-miterlimit="10"/>
<path d="M264.681 217.908L249.625 205.291" stroke="white" stroke-width="0.910297" stroke-miterlimit="10"/>
<path d="M264.887 227.989L279.665 215.4" stroke="white" stroke-width="0.910297" stroke-miterlimit="10"/>
<path d="M264.932 236.694L253.289 228.038" stroke="white" stroke-width="0.910297" stroke-miterlimit="10"/>
<path d="M234.092 242.359C242.943 251.763 257.933 252.746 257.933 252.746C257.933 252.746 258.598 238.502 249.747 229.125C240.896 219.749 225.877 218.793 225.877 218.793C225.877 218.793 225.241 233.01 234.092 242.359Z" fill="#1489A9"/>
<path d="M257.95 252.719L225.895 218.766" stroke="white" stroke-width="0.910297" stroke-miterlimit="10"/>
<path d="M237.289 230.829L229.469 230.919" stroke="white" stroke-width="0.910297" stroke-miterlimit="10"/>
<path d="M242.651 236.382L241.043 224.319" stroke="white" stroke-width="0.910297" stroke-miterlimit="10"/>
<path d="M245.63 239.679L233.98 239.692" stroke="white" stroke-width="0.910297" stroke-miterlimit="10"/>
<path d="M249.832 243.972L251.133 233.128" stroke="white" stroke-width="0.910297" stroke-miterlimit="10"/>
<path d="M253.386 247.739L244.82 248.224" stroke="white" stroke-width="0.910297" stroke-miterlimit="10"/>
<path d="M280.248 228.641C271.039 237.705 271.156 251.963 271.156 251.963C271.156 251.963 286.197 251.527 295.406 242.462C304.615 233.398 304.498 219.14 304.498 219.14C304.498 219.14 289.457 219.576 280.248 228.641Z" fill="#1489A9"/>
<path d="M271.156 251.963L304.498 219.14" stroke="white" stroke-width="0.910297" stroke-miterlimit="10"/>
<path d="M292.637 230.809L291.957 223.427" stroke="white" stroke-width="0.910297" stroke-miterlimit="10"/>
<path d="M287.211 236.292L299.789 233.875" stroke="white" stroke-width="0.910297" stroke-miterlimit="10"/>
<path d="M283.966 239.361L283.082 228.351" stroke="white" stroke-width="0.910297" stroke-miterlimit="10"/>
<path d="M279.742 243.632L291.253 244.048" stroke="white" stroke-width="0.910297" stroke-miterlimit="10"/>
<path d="M276.061 247.269L274.906 239.208" stroke="white" stroke-width="0.910297" stroke-miterlimit="10"/>
<g opacity="0.1">
<path opacity="0.1" d="M246.489 208.871C246.584 230.566 264.804 248.086 264.804 248.086C264.804 248.086 282.871 230.421 282.768 208.726C282.666 187.03 264.49 169.51 264.49 169.51C264.49 169.51 246.386 187.176 246.489 208.871Z" fill="black"/>
<path opacity="0.1" d="M234.088 242.36C242.939 251.764 257.929 252.747 257.929 252.747C257.929 252.747 258.594 238.503 249.743 229.126C240.892 219.75 225.873 218.794 225.873 218.794C225.873 218.794 225.237 233.011 234.088 242.36Z" fill="black"/>
<path opacity="0.1" d="M280.248 228.641C271.039 237.706 271.156 251.964 271.156 251.964C271.156 251.964 286.197 251.528 295.406 242.463C304.615 233.399 304.498 219.141 304.498 219.141C304.498 219.141 289.457 219.577 280.248 228.641Z" fill="black"/>
</g>
<path d="M251.675 31.6924H71.3867V251.563H251.675V31.6924Z" fill="white" stroke="#263238" stroke-width="0.987488" stroke-linecap="round" stroke-linejoin="round"/>
<g style="mix-blend-mode:multiply">
<path d="M100.146 31.6924H71.3867V251.563H100.146V31.6924Z" fill="#1489A9"/>
</g>
<path d="M211.606 64.1772H156.316V70.3403H211.606V64.1772Z" fill="#1489A9" stroke="#263238" stroke-width="0.987488" stroke-linecap="round" stroke-linejoin="round"/>
<path d="M245.621 116.687H94.0625V122.85H245.621V116.687Z" fill="#1489A9"/>
<path d="M245.621 201.392H94.0625V207.555H245.621V201.392Z" fill="#1489A9"/>
<path d="M191.164 74.7925H156.316V80.9556H191.164V74.7925Z" fill="#1489A9" stroke="#263238" stroke-width="0.987488" stroke-linecap="round" stroke-linejoin="round"/>
<path d="M191.164 85.1865H156.316V91.3496H191.164V85.1865Z" fill="#1489A9" stroke="#263238" stroke-width="0.987488" stroke-linecap="round" stroke-linejoin="round"/>
<path d="M151.526 129.636H147.938V133.036H151.526V129.636Z" fill="#1489A9" stroke="#263238" stroke-width="0.987488" stroke-linecap="round" stroke-linejoin="round"/>
<path d="M151.526 173.367H147.938V176.767H151.526V173.367Z" fill="#1489A9" stroke="#263238" stroke-width="0.987488" stroke-linecap="round" stroke-linejoin="round"/>
<path d="M202.182 129.636H198.594V133.036H202.182V129.636Z" fill="#1489A9" stroke="#263238" stroke-width="0.987488" stroke-linecap="round" stroke-linejoin="round"/>
<path d="M202.182 173.367H198.594V176.767H202.182V173.367Z" fill="#1489A9" stroke="#263238" stroke-width="0.987488" stroke-linecap="round" stroke-linejoin="round"/>
<path d="M251.675 31.6924H71.3867V42.876H251.675V31.6924Z" fill="#263238" stroke="#263238" stroke-width="0.987488" stroke-linecap="round" stroke-linejoin="round"/>
<path d="M189.073 131.999H157.34C157.068 131.999 156.808 131.896 156.616 131.715C156.424 131.533 156.316 131.286 156.316 131.029C156.316 130.772 156.424 130.525 156.616 130.344C156.808 130.162 157.068 130.06 157.34 130.06H189.073C189.345 130.06 189.605 130.162 189.797 130.344C189.989 130.525 190.097 130.772 190.097 131.029C190.097 131.286 189.989 131.533 189.797 131.715C189.605 131.896 189.345 131.999 189.073 131.999Z" fill="#263238"/>
<path d="M189.073 136.853H157.34C157.068 136.851 156.807 136.748 156.616 136.565C156.424 136.382 156.316 136.134 156.316 135.877C156.316 135.62 156.424 135.373 156.616 135.191C156.808 135.009 157.068 134.907 157.34 134.907H189.073C189.345 134.907 189.605 135.009 189.797 135.191C189.989 135.373 190.097 135.62 190.097 135.877C190.097 136.134 189.989 136.382 189.797 136.565C189.606 136.748 189.346 136.851 189.073 136.853Z" fill="#263238"/>
<path d="M189.073 141.7H157.34C157.068 141.7 156.808 141.598 156.616 141.416C156.424 141.234 156.316 140.987 156.316 140.73C156.316 140.473 156.424 140.227 156.616 140.045C156.808 139.863 157.068 139.761 157.34 139.761H189.073C189.345 139.761 189.605 139.863 189.797 140.045C189.989 140.227 190.097 140.473 190.097 140.73C190.097 140.987 189.989 141.234 189.797 141.416C189.605 141.598 189.345 141.7 189.073 141.7Z" fill="#263238"/>
<path d="M189.073 146.547H157.34C157.068 146.547 156.808 146.445 156.616 146.263C156.424 146.082 156.316 145.835 156.316 145.578C156.316 145.321 156.424 145.074 156.616 144.892C156.808 144.711 157.068 144.608 157.34 144.608H189.073C189.345 144.608 189.605 144.711 189.797 144.892C189.989 145.074 190.097 145.321 190.097 145.578C190.097 145.835 189.989 146.082 189.797 146.263C189.605 146.445 189.345 146.547 189.073 146.547Z" fill="#263238"/>
<path d="M189.073 151.395H157.34C157.068 151.395 156.808 151.293 156.616 151.111C156.424 150.929 156.316 150.683 156.316 150.426C156.316 150.168 156.424 149.922 156.616 149.74C156.808 149.558 157.068 149.456 157.34 149.456H189.073C189.345 149.456 189.605 149.558 189.797 149.74C189.989 149.922 190.097 150.168 190.097 150.426C190.097 150.683 189.989 150.929 189.797 151.111C189.605 151.293 189.345 151.395 189.073 151.395Z" fill="#263238"/>
<path d="M237.093 131.999H205.359C205.088 131.999 204.828 131.896 204.636 131.715C204.444 131.533 204.336 131.286 204.336 131.029C204.336 130.772 204.444 130.525 204.636 130.344C204.828 130.162 205.088 130.06 205.359 130.06H237.093C237.364 130.06 237.625 130.162 237.817 130.344C238.008 130.525 238.116 130.772 238.116 131.029C238.116 131.286 238.008 131.533 237.817 131.715C237.625 131.896 237.364 131.999 237.093 131.999Z" fill="#263238"/>
<path d="M237.093 136.853H205.359C205.087 136.851 204.827 136.748 204.635 136.565C204.443 136.382 204.336 136.134 204.336 135.877C204.336 135.62 204.444 135.373 204.636 135.191C204.828 135.009 205.088 134.907 205.359 134.907H237.093C237.364 134.907 237.625 135.009 237.817 135.191C238.008 135.373 238.116 135.62 238.116 135.877C238.116 136.134 238.009 136.382 237.817 136.565C237.625 136.748 237.365 136.851 237.093 136.853Z" fill="#263238"/>
<path d="M237.093 141.7H205.359C205.088 141.7 204.828 141.598 204.636 141.416C204.444 141.234 204.336 140.987 204.336 140.73C204.336 140.473 204.444 140.227 204.636 140.045C204.828 139.863 205.088 139.761 205.359 139.761H237.093C237.364 139.761 237.625 139.863 237.817 140.045C238.008 140.227 238.116 140.473 238.116 140.73C238.116 140.987 238.008 141.234 237.817 141.416C237.625 141.598 237.364 141.7 237.093 141.7Z" fill="#263238"/>
<path d="M237.093 146.547H205.359C205.088 146.547 204.828 146.445 204.636 146.263C204.444 146.082 204.336 145.835 204.336 145.578C204.336 145.321 204.444 145.074 204.636 144.892C204.828 144.711 205.088 144.608 205.359 144.608H237.093C237.364 144.608 237.625 144.711 237.817 144.892C238.008 145.074 238.116 145.321 238.116 145.578C238.116 145.835 238.008 146.082 237.817 146.263C237.625 146.445 237.364 146.547 237.093 146.547Z" fill="#263238"/>
<path d="M237.093 151.395H205.359C205.088 151.395 204.828 151.293 204.636 151.111C204.444 150.929 204.336 150.683 204.336 150.426C204.336 150.168 204.444 149.922 204.636 149.74C204.828 149.558 205.088 149.456 205.359 149.456H237.093C237.364 149.456 237.625 149.558 237.817 149.74C238.008 149.922 238.116 150.168 238.116 150.426C238.116 150.683 238.008 150.929 237.817 151.111C237.625 151.293 237.364 151.395 237.093 151.395Z" fill="#263238"/>
<path d="M189.073 175.002H157.34C157.068 175 156.807 174.897 156.616 174.714C156.424 174.531 156.316 174.283 156.316 174.026C156.316 173.769 156.424 173.522 156.616 173.34C156.808 173.158 157.068 173.056 157.34 173.056H189.073C189.345 173.056 189.605 173.158 189.797 173.34C189.989 173.522 190.097 173.769 190.097 174.026C190.097 174.283 189.989 174.531 189.797 174.714C189.606 174.897 189.346 175 189.073 175.002Z" fill="#263238"/>
<path d="M189.073 179.849H157.34C157.068 179.849 156.808 179.746 156.616 179.565C156.424 179.383 156.316 179.136 156.316 178.879C156.316 178.622 156.424 178.375 156.616 178.194C156.808 178.012 157.068 177.91 157.34 177.91H189.073C189.345 177.91 189.605 178.012 189.797 178.194C189.989 178.375 190.097 178.622 190.097 178.879C190.097 179.136 189.989 179.383 189.797 179.565C189.605 179.746 189.345 179.849 189.073 179.849Z" fill="#263238"/>
<path d="M189.073 184.696H157.34C157.068 184.696 156.808 184.594 156.616 184.412C156.424 184.231 156.316 183.984 156.316 183.727C156.316 183.47 156.424 183.223 156.616 183.041C156.808 182.859 157.068 182.757 157.34 182.757H189.073C189.345 182.757 189.605 182.859 189.797 183.041C189.989 183.223 190.097 183.47 190.097 183.727C190.097 183.984 189.989 184.231 189.797 184.412C189.605 184.594 189.345 184.696 189.073 184.696Z" fill="#263238"/>
<path d="M189.073 189.544H157.34C157.068 189.544 156.808 189.442 156.616 189.26C156.424 189.078 156.316 188.832 156.316 188.574C156.316 188.317 156.424 188.071 156.616 187.889C156.808 187.707 157.068 187.605 157.34 187.605H189.073C189.345 187.605 189.605 187.707 189.797 187.889C189.989 188.071 190.097 188.317 190.097 188.574C190.097 188.832 189.989 189.078 189.797 189.26C189.605 189.442 189.345 189.544 189.073 189.544Z" fill="#263238"/>
<path d="M189.073 194.397H157.34C157.068 194.397 156.808 194.295 156.616 194.113C156.424 193.932 156.316 193.685 156.316 193.428C156.316 193.171 156.424 192.924 156.616 192.742C156.808 192.561 157.068 192.458 157.34 192.458H189.073C189.345 192.458 189.605 192.561 189.797 192.742C189.989 192.924 190.097 193.171 190.097 193.428C190.097 193.685 189.989 193.932 189.797 194.113C189.605 194.295 189.345 194.397 189.073 194.397Z" fill="#263238"/>
<path d="M237.093 175.002H205.359C205.087 175 204.827 174.897 204.635 174.714C204.443 174.531 204.336 174.283 204.336 174.026C204.336 173.769 204.444 173.522 204.636 173.34C204.828 173.158 205.088 173.056 205.359 173.056H237.093C237.364 173.056 237.625 173.158 237.817 173.34C238.008 173.522 238.116 173.769 238.116 174.026C238.116 174.283 238.009 174.531 237.817 174.714C237.625 174.897 237.365 175 237.093 175.002Z" fill="#263238"/>
<path d="M237.093 179.849H205.359C205.088 179.849 204.828 179.746 204.636 179.565C204.444 179.383 204.336 179.136 204.336 178.879C204.336 178.622 204.444 178.375 204.636 178.194C204.828 178.012 205.088 177.91 205.359 177.91H237.093C237.364 177.91 237.625 178.012 237.817 178.194C238.008 178.375 238.116 178.622 238.116 178.879C238.116 179.136 238.008 179.383 237.817 179.565C237.625 179.746 237.364 179.849 237.093 179.849Z" fill="#263238"/>
<path d="M237.093 184.696H205.359C205.088 184.696 204.828 184.594 204.636 184.412C204.444 184.231 204.336 183.984 204.336 183.727C204.336 183.47 204.444 183.223 204.636 183.041C204.828 182.859 205.088 182.757 205.359 182.757H237.093C237.364 182.757 237.625 182.859 237.817 183.041C238.008 183.223 238.116 183.47 238.116 183.727C238.116 183.984 238.008 184.231 237.817 184.412C237.625 184.594 237.364 184.696 237.093 184.696Z" fill="#263238"/>
<path d="M237.093 189.544H205.359C205.088 189.544 204.828 189.442 204.636 189.26C204.444 189.078 204.336 188.832 204.336 188.574C204.336 188.317 204.444 188.071 204.636 187.889C204.828 187.707 205.088 187.605 205.359 187.605H237.093C237.364 187.605 237.625 187.707 237.817 187.889C238.008 188.071 238.116 188.317 238.116 188.574C238.116 188.832 238.008 189.078 237.817 189.26C237.625 189.442 237.364 189.544 237.093 189.544Z" fill="#263238"/>
<path d="M237.093 194.397H205.359C205.088 194.397 204.828 194.295 204.636 194.113C204.444 193.932 204.336 193.685 204.336 193.428C204.336 193.171 204.444 192.924 204.636 192.742C204.828 192.561 205.088 192.458 205.359 192.458H237.093C237.364 192.458 237.625 192.561 237.817 192.742C238.008 192.924 238.116 193.171 238.116 193.428C238.116 193.685 238.008 193.932 237.817 194.113C237.625 194.295 237.364 194.397 237.093 194.397Z" fill="#263238"/>
<path d="M237.093 216.53H205.359C205.088 216.53 204.828 216.428 204.636 216.246C204.444 216.064 204.336 215.818 204.336 215.561C204.336 215.304 204.444 215.057 204.636 214.875C204.828 214.693 205.088 214.591 205.359 214.591H237.093C237.364 214.591 237.625 214.693 237.817 214.875C238.008 215.057 238.116 215.304 238.116 215.561C238.116 215.818 238.008 216.064 237.817 216.246C237.625 216.428 237.364 216.53 237.093 216.53Z" fill="#263238"/>
<path d="M237.093 221.376H205.359C205.088 221.376 204.828 221.274 204.636 221.093C204.444 220.911 204.336 220.664 204.336 220.407C204.336 220.15 204.444 219.903 204.636 219.721C204.828 219.54 205.088 219.438 205.359 219.438H237.093C237.364 219.438 237.625 219.54 237.817 219.721C238.008 219.903 238.116 220.15 238.116 220.407C238.116 220.664 238.008 220.911 237.817 221.093C237.625 221.274 237.364 221.376 237.093 221.376Z" fill="#263238"/>
<path d="M237.093 226.231H205.359C205.088 226.231 204.828 226.129 204.636 225.947C204.444 225.766 204.336 225.519 204.336 225.262C204.336 225.005 204.444 224.758 204.636 224.576C204.828 224.395 205.088 224.292 205.359 224.292H237.093C237.364 224.292 237.625 224.395 237.817 224.576C238.008 224.758 238.116 225.005 238.116 225.262C238.116 225.519 238.008 225.766 237.817 225.947C237.625 226.129 237.364 226.231 237.093 226.231Z" fill="#263238"/>
<path d="M237.093 229.14H205.359C204.794 229.14 204.336 229.574 204.336 230.11C204.336 230.645 204.794 231.079 205.359 231.079H237.093C237.658 231.079 238.116 230.645 238.116 230.11C238.116 229.574 237.658 229.14 237.093 229.14Z" fill="#263238"/>
<path d="M237.093 235.925H205.359C205.088 235.925 204.828 235.823 204.636 235.641C204.444 235.46 204.336 235.213 204.336 234.956C204.336 234.699 204.444 234.452 204.636 234.27C204.828 234.088 205.088 233.986 205.359 233.986H237.093C237.364 233.986 237.625 234.088 237.817 234.27C238.008 234.452 238.116 234.699 238.116 234.956C238.116 235.213 238.008 235.46 237.817 235.641C237.625 235.823 237.364 235.925 237.093 235.925Z" fill="#263238"/>
<path d="M234.015 160.127C233.048 160.128 232.112 160.453 231.374 161.045C230.635 161.637 230.142 162.458 229.981 163.361H225.084C224.905 162.476 224.406 161.677 223.672 161.102C222.939 160.527 222.016 160.213 221.065 160.213C220.113 160.213 219.191 160.527 218.457 161.102C217.723 161.677 217.224 162.476 217.045 163.361H212.148C211.969 162.476 211.47 161.677 210.736 161.102C210.002 160.527 209.08 160.213 208.128 160.213C207.177 160.213 206.254 160.527 205.521 161.102C204.787 161.677 204.288 162.476 204.109 163.361H199.146C198.975 162.469 198.479 161.662 197.744 161.081C197.01 160.5 196.083 160.182 195.126 160.182C194.17 160.182 193.243 160.5 192.508 161.081C191.774 161.662 191.278 162.469 191.107 163.361H186.203C186.032 162.469 185.536 161.662 184.801 161.081C184.066 160.5 183.14 160.182 182.183 160.182C181.226 160.182 180.3 160.5 179.565 161.081C178.83 161.662 178.334 162.469 178.163 163.361H173.259C173.088 162.469 172.592 161.662 171.857 161.081C171.123 160.5 170.196 160.182 169.239 160.182C168.283 160.182 167.356 160.5 166.621 161.081C165.887 161.662 165.391 162.469 165.22 163.361H160.316C160.144 162.403 159.599 161.54 158.788 160.944C157.977 160.349 156.96 160.063 155.937 160.145C154.915 160.226 153.962 160.668 153.267 161.384C152.573 162.1 152.188 163.037 152.188 164.009C152.188 164.981 152.573 165.918 153.267 166.634C153.962 167.349 154.915 167.792 155.937 167.873C156.96 167.955 157.977 167.669 158.788 167.073C159.599 166.478 160.144 165.615 160.316 164.656H165.22C165.391 165.548 165.887 166.355 166.621 166.936C167.356 167.517 168.283 167.835 169.239 167.835C170.196 167.835 171.123 167.517 171.857 166.936C172.592 166.355 173.088 165.548 173.259 164.656H178.163C178.334 165.548 178.83 166.355 179.565 166.936C180.3 167.517 181.226 167.835 182.183 167.835C183.14 167.835 184.066 167.517 184.801 166.936C185.536 166.355 186.032 165.548 186.203 164.656H191.107C191.278 165.548 191.774 166.355 192.508 166.936C193.243 167.517 194.17 167.835 195.126 167.835C196.083 167.835 197.01 167.517 197.744 166.936C198.479 166.355 198.975 165.548 199.146 164.656H204.05C204.229 165.542 204.729 166.341 205.462 166.916C206.196 167.49 207.118 167.805 208.07 167.805C209.022 167.805 209.944 167.49 210.678 166.916C211.411 166.341 211.911 165.542 212.09 164.656H216.986C217.165 165.542 217.665 166.341 218.398 166.916C219.132 167.49 220.054 167.805 221.006 167.805C221.958 167.805 222.88 167.49 223.614 166.916C224.347 166.341 224.847 165.542 225.026 164.656H229.923C230.054 165.385 230.402 166.063 230.926 166.611C231.45 167.158 232.128 167.552 232.881 167.747C233.633 167.941 234.429 167.928 235.174 167.708C235.919 167.488 236.582 167.071 237.085 166.507C237.588 165.942 237.91 165.252 238.014 164.52C238.117 163.787 237.998 163.042 237.669 162.371C237.34 161.701 236.816 161.134 236.159 160.736C235.501 160.339 234.737 160.127 233.957 160.127H234.015Z" fill="#263238"/>
<path d="M138.555 214.951C137.19 214.949 135.856 215.332 134.72 216.049C133.584 216.766 132.699 217.787 132.176 218.981C131.652 220.176 131.515 221.49 131.78 222.759C132.046 224.027 132.702 225.193 133.667 226.108C134.631 227.023 135.861 227.646 137.199 227.899C138.538 228.151 139.925 228.022 141.186 227.528C142.447 227.033 143.525 226.195 144.284 225.12C145.042 224.045 145.447 222.781 145.447 221.488C145.448 220.63 145.27 219.78 144.925 218.987C144.579 218.194 144.071 217.473 143.431 216.866C142.791 216.259 142.031 215.777 141.194 215.448C140.358 215.12 139.461 214.951 138.555 214.951ZM138.555 224.742C137.874 224.744 137.207 224.553 136.64 224.196C136.073 223.838 135.63 223.328 135.369 222.732C135.107 222.136 135.039 221.48 135.171 220.846C135.304 220.213 135.632 219.631 136.114 219.174C136.596 218.718 137.21 218.407 137.878 218.282C138.546 218.156 139.239 218.221 139.868 218.469C140.498 218.717 141.035 219.136 141.413 219.673C141.791 220.21 141.992 220.842 141.99 221.488C141.988 222.35 141.626 223.177 140.982 223.787C140.338 224.397 139.465 224.741 138.555 224.742Z" fill="#1489A9" stroke="#263238" stroke-width="0.987488" stroke-linecap="round" stroke-linejoin="round"/>
<path d="M140.594 224.085L143.883 225.601C144.704 224.645 145.222 223.488 145.378 222.265C145.535 221.041 145.322 219.801 144.766 218.687C144.209 217.573 143.331 216.631 142.234 215.97C141.136 215.309 139.863 214.955 138.562 214.951V218.226C139.28 218.233 139.978 218.453 140.557 218.855C141.136 219.258 141.567 219.821 141.791 220.468C142.014 221.114 142.018 221.811 141.802 222.459C141.586 223.108 141.161 223.676 140.587 224.085H140.594Z" fill="#263238" stroke="#263238" stroke-width="0.987488" stroke-linecap="round" stroke-linejoin="round"/>
<path d="M141.863 236.127H135.285C135.069 236.128 134.856 236.088 134.656 236.011C134.457 235.933 134.276 235.819 134.123 235.675C133.97 235.531 133.849 235.36 133.766 235.171C133.683 234.982 133.641 234.78 133.641 234.576C133.641 234.162 133.814 233.766 134.122 233.474C134.431 233.182 134.849 233.018 135.285 233.018H141.863C142.299 233.018 142.717 233.182 143.026 233.474C143.334 233.766 143.507 234.162 143.507 234.576C143.507 234.78 143.465 234.982 143.382 235.171C143.299 235.36 143.178 235.531 143.025 235.675C142.872 235.819 142.691 235.933 142.492 236.011C142.292 236.088 142.078 236.128 141.863 236.127Z" fill="#1489A9" stroke="#263238" stroke-width="0.987488" stroke-linecap="round" stroke-linejoin="round"/>
<path d="M159.114 214.951C157.75 214.951 156.416 215.334 155.281 216.052C154.147 216.771 153.262 217.792 152.74 218.986C152.218 220.181 152.081 221.495 152.347 222.763C152.614 224.031 153.271 225.196 154.236 226.11C155.2 227.024 156.43 227.647 157.768 227.899C159.106 228.151 160.494 228.022 161.754 227.527C163.015 227.032 164.093 226.195 164.851 225.12C165.609 224.044 166.013 222.781 166.013 221.488C166.014 220.629 165.837 219.779 165.49 218.985C165.144 218.191 164.636 217.471 163.995 216.863C163.354 216.256 162.593 215.775 161.756 215.446C160.918 215.118 160.02 214.95 159.114 214.951ZM159.114 224.742C158.433 224.742 157.767 224.551 157.201 224.192C156.635 223.834 156.193 223.324 155.933 222.727C155.673 222.131 155.605 221.475 155.738 220.842C155.872 220.209 156.2 219.628 156.683 219.172C157.165 218.716 157.779 218.406 158.447 218.281C159.115 218.156 159.808 218.222 160.437 218.469C161.065 218.717 161.603 219.137 161.98 219.674C162.357 220.211 162.558 220.842 162.556 221.488C162.556 221.916 162.467 222.339 162.294 222.735C162.121 223.13 161.868 223.489 161.548 223.792C161.228 224.094 160.849 224.333 160.431 224.497C160.013 224.66 159.566 224.743 159.114 224.742Z" fill="#1489A9" stroke="#263238" stroke-width="0.987488" stroke-linecap="round" stroke-linejoin="round"/>
<path d="M165.986 220.802C165.805 219.203 165.009 217.723 163.75 216.644C162.492 215.564 160.858 214.962 159.16 214.951V218.226C160.067 218.235 160.933 218.583 161.571 219.194C162.208 219.804 162.566 220.629 162.566 221.488C162.559 221.613 162.544 221.738 162.522 221.862L165.986 220.802Z" fill="#263238" stroke="#263238" stroke-width="0.987488" stroke-linecap="round" stroke-linejoin="round"/>
<path d="M162.402 236.127H155.824C155.609 236.128 155.395 236.088 155.195 236.011C154.996 235.933 154.815 235.819 154.662 235.675C154.509 235.531 154.388 235.36 154.305 235.171C154.222 234.982 154.18 234.78 154.18 234.576C154.18 234.162 154.353 233.766 154.661 233.474C154.97 233.182 155.388 233.018 155.824 233.018H162.402C162.838 233.018 163.256 233.182 163.565 233.474C163.873 233.766 164.046 234.162 164.046 234.576C164.046 234.78 164.004 234.982 163.921 235.171C163.838 235.36 163.717 235.531 163.564 235.675C163.411 235.819 163.23 235.933 163.031 236.011C162.831 236.088 162.617 236.128 162.402 236.127Z" fill="#1489A9" stroke="#263238" stroke-width="0.987488" stroke-linecap="round" stroke-linejoin="round"/>
<path d="M179.798 214.951C178.433 214.951 177.099 215.334 175.965 216.052C174.83 216.771 173.946 217.792 173.424 218.986C172.901 220.181 172.765 221.495 173.031 222.763C173.297 224.031 173.954 225.196 174.919 226.11C175.884 227.024 177.113 227.647 178.452 227.899C179.79 228.151 181.177 228.022 182.438 227.527C183.699 227.032 184.776 226.195 185.534 225.12C186.292 224.044 186.697 222.781 186.697 221.488C186.698 220.629 186.52 219.779 186.174 218.985C185.827 218.191 185.319 217.471 184.678 216.863C184.038 216.256 183.277 215.775 182.439 215.446C181.602 215.118 180.704 214.95 179.798 214.951ZM179.798 224.742C179.117 224.742 178.451 224.551 177.885 224.192C177.318 223.834 176.877 223.324 176.617 222.727C176.356 222.131 176.289 221.475 176.422 220.842C176.556 220.209 176.884 219.628 177.366 219.172C177.848 218.716 178.462 218.406 179.131 218.281C179.799 218.156 180.491 218.222 181.12 218.469C181.749 218.717 182.286 219.137 182.663 219.674C183.041 220.211 183.242 220.842 183.24 221.488C183.24 221.916 183.151 222.339 182.978 222.735C182.805 223.13 182.551 223.489 182.231 223.792C181.912 224.094 181.532 224.333 181.115 224.497C180.697 224.66 180.249 224.743 179.798 224.742Z" fill="#1489A9" stroke="#263238" stroke-width="0.987488" stroke-linecap="round" stroke-linejoin="round"/>
<path d="M179.84 214.951V218.226C180.419 218.227 180.989 218.366 181.496 218.631C182.003 218.896 182.432 219.278 182.742 219.742C183.052 220.205 183.234 220.736 183.27 221.283C183.306 221.831 183.196 222.379 182.949 222.876C182.703 223.372 182.328 223.802 181.86 224.125C181.391 224.448 180.844 224.654 180.27 224.723C179.695 224.793 179.111 224.723 178.572 224.522C178.033 224.321 177.557 223.994 177.187 223.572L174.453 225.594C175.185 226.449 176.134 227.115 177.211 227.53C178.287 227.945 179.457 228.095 180.612 227.966C181.766 227.837 182.867 227.434 183.813 226.794C184.758 226.154 185.518 225.297 186.02 224.304C186.523 223.311 186.752 222.214 186.687 221.114C186.622 220.015 186.264 218.949 185.647 218.015C185.031 217.082 184.175 216.311 183.159 215.776C182.144 215.24 181.002 214.956 179.84 214.951Z" fill="#263238" stroke="#263238" stroke-width="0.987488" stroke-linecap="round" stroke-linejoin="round"/>
<path d="M183.085 236.127H176.508C176.292 236.128 176.078 236.088 175.879 236.011C175.68 235.933 175.498 235.819 175.345 235.675C175.193 235.531 175.071 235.36 174.989 235.171C174.906 234.982 174.863 234.78 174.863 234.576C174.862 234.371 174.904 234.168 174.987 233.978C175.069 233.789 175.19 233.617 175.343 233.472C175.496 233.327 175.677 233.212 175.877 233.134C176.077 233.056 176.292 233.017 176.508 233.018H183.085C183.522 233.018 183.94 233.182 184.248 233.474C184.557 233.766 184.73 234.162 184.73 234.576C184.73 234.78 184.687 234.982 184.605 235.171C184.522 235.36 184.401 235.531 184.248 235.675C184.095 235.819 183.914 235.933 183.714 236.011C183.515 236.088 183.301 236.128 183.085 236.127Z" fill="#1489A9" stroke="#263238" stroke-width="0.987488" stroke-linecap="round" stroke-linejoin="round"/>
<path d="M108.965 114.193C126.015 114.193 139.837 101.097 139.837 84.9429C139.837 68.7883 126.015 55.6924 108.965 55.6924C91.9154 55.6924 78.0938 68.7883 78.0938 84.9429C78.0938 101.097 91.9154 114.193 108.965 114.193Z" fill="white"/>
<path d="M118.337 247.676C118.337 247.676 122.796 254.026 122.182 256.54C121.568 259.054 117.65 258.278 115.794 255.571C113.938 252.863 109.216 248.819 110.071 247.081C110.926 245.343 116.671 246.132 118.337 247.676Z" fill="white" stroke="#263238" stroke-width="1.02307" stroke-linecap="round" stroke-linejoin="round"/>
<path d="M99.1761 247.324C99.1761 247.324 93.7897 254.899 94.6521 256.97C95.5145 259.04 98.3064 258.424 100.441 256.554C102.575 254.685 106.836 249.436 106.836 249.436C106.836 249.436 103.254 245.253 99.1761 247.324Z" fill="white" stroke="#263238" stroke-width="1.02307" stroke-linecap="round" stroke-linejoin="round"/>
<path d="M94.6484 256.969C96.1092 257.16 97.5953 256.885 98.8728 256.187C101.328 255.01 105.611 249.698 105.611 249.698" stroke="#263238" stroke-width="0.767303" stroke-linecap="round" stroke-linejoin="round"/>
<path d="M111.582 248.349C111.582 248.349 113.913 252.504 116.537 254.858C119.161 257.212 120.447 257.884 122.172 256.541" stroke="#263238" stroke-width="0.767303" stroke-linecap="round" stroke-linejoin="round"/>
<path d="M91.6262 152.785C91.6262 152.785 86.9122 161.898 87.1241 165.624C87.3361 169.349 88.1985 188.199 89.4848 194.41C90.7711 200.622 92.0355 216.092 92.9125 222.276C93.7896 228.46 99.4098 242.946 99.4098 242.946C99.4098 242.946 98.5474 246.263 99.1906 247.295C99.8337 248.327 106.638 250.031 106.85 249.407C107.062 248.784 108.136 246.921 108.312 245.059C108.487 243.196 105.315 223.315 106.601 218.966C107.888 214.617 108.136 185.38 108.312 182.368C108.487 179.356 108.261 174.058 108.261 174.058C108.643 174.17 109.051 174.171 109.434 174.061C109.817 173.951 110.156 173.736 110.409 173.442C111.264 172.403 114.1 200.553 114.963 207.18C115.825 213.807 113.888 215.67 113.245 219.811C112.602 223.952 111.104 237.407 111.104 239.069C111.104 240.73 109.174 246.104 110.029 247.143C110.884 248.182 112.704 248.008 113.45 248.202C115.686 248.791 117.433 247.87 118.288 247.662C119.143 247.455 119.867 244.456 119.867 244.456C119.867 244.456 126.751 226.022 128.038 218.356C129.324 210.691 131.465 196.467 131.041 187.769C130.617 179.072 128.038 161.455 128.038 161.455L127.394 156.275L91.6262 152.785Z" fill="#263238" stroke="#263238" stroke-width="1.02307" stroke-linecap="round" stroke-linejoin="round"/>
<path d="M88.5972 163.326C88.5972 163.326 88.1806 168.436 91.7107 171.774" stroke="white" stroke-width="0.506629" stroke-linecap="round" stroke-linejoin="round"/>
<path d="M88.8164 170.596C88.8164 170.596 90.892 173.941 93.3843 174.329" stroke="white" stroke-width="0.506629" stroke-linecap="round" stroke-linejoin="round"/>
<path d="M105.406 226.521C105.406 226.521 102.483 233.128 102.088 236.736C101.693 240.343 105.406 238.938 106.239 241.341C107.072 243.744 101.262 243.55 102.3 244.145C103.338 244.741 106.444 245.149 106.444 245.149" stroke="white" stroke-width="0.511535" stroke-linecap="round" stroke-linejoin="round"/>
<path d="M111.023 242.946C111.645 242.746 118.697 241.561 117.864 237.94C117.031 234.318 112.887 234.131 113.479 229.928C114.071 225.724 120.525 216.5 120.525 213.897C120.525 211.293 115.964 201.591 115.547 195.581" stroke="white" stroke-width="0.511535" stroke-linecap="round" stroke-linejoin="round"/>
<path d="M121.148 162.938C121.148 162.938 116.376 169.419 115.755 170.402C115.133 171.386 121.353 166.081 121.353 166.081" stroke="white" stroke-width="0.506629" stroke-linecap="round" stroke-linejoin="round"/>
<path d="M108.68 160.645C108.68 160.645 109.199 165.382 109.199 166.358V171.752" stroke="white" stroke-width="0.506629" stroke-linecap="round" stroke-linejoin="round"/>
<path d="M109.207 168.817C109.207 168.817 111.451 168.492 111.962 166.857C112.474 165.223 112.313 161.955 112.313 161.955" stroke="white" stroke-width="0.506629" stroke-linecap="round" stroke-linejoin="round"/>
<path d="M152.496 104.444C149.923 97.3318 149.492 93.4747 149.28 91.4457C149.068 89.4167 146.708 90.0192 146.708 90.0192C146.708 90.0192 141.592 92.8653 141.592 93.4816C141.592 94.0979 143.952 109.125 144.376 111.763C144.633 113.31 144.778 114.872 144.807 116.437C144.807 116.437 135.803 107.297 133.442 105.06C131.645 103.349 130.219 101.888 128.692 101.016C127.866 100.323 126.434 100.067 124.226 99.3746C120.367 98.1559 116.297 95.3098 111.575 95.5106C108.476 95.7123 105.433 96.4003 102.571 97.5465C102.571 97.5465 95.7156 100.593 90.9942 102.622C90.4444 102.855 89.9225 103.143 89.4375 103.481C88.6628 103.391 87.0476 103.786 85.2058 107.698C82.6405 113.183 71.0637 127.607 69.127 132.683C67.1902 137.759 71.2684 142.842 75.7705 146.9C79.0187 149.926 82.0951 153.114 84.9866 156.449L90.1026 150.48C90.2473 151.808 90.4916 153.125 90.8334 154.42C91.4766 156.449 93.618 158.686 102.198 159.267C110.779 159.849 130.051 160.971 129.423 156.83C128.538 150.944 128.992 132.046 128.568 126.97C128.442 123.714 128.513 120.454 128.78 117.206C129.766 118.39 131.703 120.585 133.055 121.451C134.985 122.67 143.141 128.376 146.357 129.608C149.573 130.841 154.075 128.798 156.004 124.761C157.934 120.724 155.069 111.555 152.496 104.444ZM82.6113 138.161C81.7489 134.913 81.325 133.694 81.325 133.694C81.325 133.694 86.821 128.085 89.4667 125.093C89.8249 133.119 90.0514 141.9 89.8029 143.188C89.6079 145.348 89.6594 147.521 89.9564 149.67C88.5239 147.807 83.3422 140.958 82.6113 138.161Z" fill="#1489A9" stroke="#263238" stroke-width="1.01326" stroke-linecap="round" stroke-linejoin="round"/>
<path opacity="0.1" d="M152.496 104.444C149.923 97.3318 149.492 93.4747 149.28 91.4457C149.068 89.4167 146.708 90.0192 146.708 90.0192C146.708 90.0192 141.592 92.8653 141.592 93.4816C141.592 94.0979 143.952 109.125 144.376 111.763C144.633 113.31 144.778 114.872 144.807 116.437C144.807 116.437 135.803 107.297 133.442 105.06C131.645 103.349 130.219 101.888 128.692 101.016C127.866 100.323 126.434 100.067 124.226 99.3746C120.367 98.1559 116.297 95.3098 111.575 95.5106C108.476 95.7123 105.433 96.4003 102.571 97.5465C102.571 97.5465 95.7156 100.593 90.9942 102.622C90.4444 102.855 89.9225 103.143 89.4375 103.481C88.6628 103.391 87.0476 103.786 85.2058 107.698C82.6405 113.183 71.0637 127.607 69.127 132.683C67.1902 137.759 71.2684 142.842 75.7705 146.9C79.0187 149.926 82.0951 153.114 84.9866 156.449L90.1026 150.48C90.2473 151.808 90.4916 153.125 90.8334 154.42C91.4766 156.449 93.618 158.686 102.198 159.267C110.779 159.849 130.051 160.971 129.423 156.83C128.538 150.944 128.992 132.046 128.568 126.97C128.442 123.714 128.513 120.454 128.78 117.206C129.766 118.39 131.703 120.585 133.055 121.451C134.985 122.67 143.141 128.376 146.357 129.608C149.573 130.841 154.075 128.798 156.004 124.761C157.934 120.724 155.069 111.555 152.496 104.444ZM82.6113 138.161C81.7489 134.913 81.325 133.694 81.325 133.694C81.325 133.694 86.821 128.085 89.4667 125.093C89.8249 133.119 90.0514 141.9 89.8029 143.188C89.6079 145.348 89.6594 147.521 89.9564 149.67C88.5239 147.807 83.3422 140.958 82.6113 138.161Z" fill="black"/>
<path d="M92.1289 124.221C93.4861 122.291 94.667 120.255 95.659 118.134" stroke="#263238" stroke-width="0.759943" stroke-linecap="round" stroke-linejoin="round"/>
<path d="M97.5131 118.723C97.0169 119.703 96.3099 120.573 95.4375 121.278" stroke="#263238" stroke-width="0.759943" stroke-linecap="round" stroke-linejoin="round"/>
<path d="M144.773 116.431C144.802 117.601 145.075 118.755 145.577 119.824C146.079 120.894 146.799 121.859 147.697 122.663" stroke="#263238" stroke-width="1.01326" stroke-linecap="round" stroke-linejoin="round"/>
<path d="M145.631 119.707C145.457 121.555 145.894 123.409 146.881 125.011" stroke="#263238" stroke-width="1.01326" stroke-linecap="round" stroke-linejoin="round"/>
<path d="M81.3413 133.694C81.3413 133.694 79.7627 132.275 75.8672 132.891" stroke="#263238" stroke-width="0.759943" stroke-linecap="round" stroke-linejoin="round"/>
<path d="M73.6992 132.073C73.6992 132.073 74.7809 130.432 78.881 131.658" stroke="#263238" stroke-width="0.759943" stroke-linecap="round" stroke-linejoin="round"/>
<path d="M133.347 110.98C132.485 111.181 128.809 117.122 128.809 117.122L137.674 114.872" stroke="#263238" stroke-width="0.759943" stroke-linecap="round" stroke-linejoin="round"/>
<path d="M107.891 106.93C107.891 106.93 109.55 109.09 113.285 108.114C117.02 107.138 118.262 103.398 117.67 101.037C117.078 98.6754 104.573 100.642 107.891 106.93Z" fill="white" stroke="#263238" stroke-width="1.01326" stroke-linecap="round" stroke-linejoin="round"/>
<path d="M104.324 93.4748C104.324 93.4748 101.818 95.0537 101.489 96.4802C101.16 97.9067 101.986 102.484 102.651 104.063C103.316 105.642 105.494 109.277 105.494 109.277C105.494 109.277 113 105.171 113.533 104.852C114.067 104.534 119.38 107.38 120.542 106.93C121.704 106.48 117.706 96.8126 115.872 94.7629C114.037 92.7131 106.992 91.5705 104.324 93.4748Z" fill="white" stroke="#263238" stroke-width="1.01326" stroke-linecap="round" stroke-linejoin="round"/>
<path d="M102.996 88.2534C102.996 88.2534 103.164 90.781 103.5 94.5758C103.837 98.3706 105.189 101.369 107.381 103.107C109.574 104.845 112.717 105.794 113.55 104.845C114.383 103.897 115.384 99.9494 115.011 97.5742C114.639 95.199 114.178 90.1508 114.178 90.1508L102.996 88.2534Z" fill="white" stroke="#263238" stroke-width="1.01326" stroke-linecap="round" stroke-linejoin="round"/>
<g style="mix-blend-mode:multiply" opacity="0.5">
<path d="M114.69 94.6173C114.441 92.4083 114.215 90.1508 114.215 90.1508L102.996 88.2534C102.996 88.2534 103.164 90.781 103.5 94.5758C103.628 96.3306 104.055 98.0542 104.765 99.6794L114.69 94.6173Z" fill="#1489A9"/>
</g>
<path d="M99.3393 84.4721C99.3393 84.4721 96.8398 82.1038 96.3355 84.1535C95.8312 86.2033 97.841 89.3748 100.677 88.5785V86.688L99.3393 84.4721Z" fill="white" stroke="#263238" stroke-width="1.01326" stroke-linecap="round" stroke-linejoin="round"/>
<path opacity="0.5" d="M99.3393 84.4721C99.3393 84.4721 96.8398 82.1038 96.3355 84.1535C95.8312 86.2033 97.841 89.3748 100.677 88.5785V86.688L99.3393 84.4721Z" fill="#1489A9" stroke="#263238" stroke-width="1.01326" stroke-linecap="round" stroke-linejoin="round"/>
<path d="M97.1312 80.1922C97.1312 80.1922 101.304 90.7803 104.973 92.837C108.642 94.8937 115.98 96.7841 117.983 89.3746C119.985 81.965 114.65 71.1969 112.815 68.0322C110.981 64.8676 104.14 63.9258 99.8062 67.0835C95.4722 70.2413 94.4855 73.2328 97.1312 80.1922Z" fill="white" stroke="#263238" stroke-width="1.01326" stroke-linecap="round" stroke-linejoin="round"/>
<g style="mix-blend-mode:multiply" opacity="0.5">
<path d="M101.778 71.2251C103.55 70.4489 105.47 70.0247 107.421 69.9786L111.579 66.6616C108.846 64.6673 103.474 64.4249 99.849 67.0702C95.5077 70.2348 94.5064 73.2333 97.174 80.1927C97.174 80.1927 101.347 90.7808 105.016 92.8375C106.318 93.5623 107.727 94.0969 109.197 94.4233C107.428 92.2627 104.709 88.828 103.847 87.076C102.531 84.403 101.968 78.884 100.273 75.6778C98.5773 72.4716 99.1474 72.4716 101.778 71.2251Z" fill="#1489A9"/>
</g>
<path d="M110.517 77.0278C110.517 77.0278 112.183 79.8739 111.518 80.4902C111.292 80.6746 111.021 80.8007 110.729 80.8565C110.437 80.9123 110.135 80.8959 109.852 80.8088" stroke="#263238" stroke-width="1.01326" stroke-linecap="round" stroke-linejoin="round"/>
<path d="M102.82 76.5576C102.82 76.5576 103.157 74.6602 105.656 74.6602" stroke="#263238" stroke-width="2.02651" stroke-linecap="round" stroke-linejoin="round"/>
<path d="M104.344 78.455C104.344 78.455 106.178 79.2445 106.843 77.5063" stroke="#263238" stroke-width="1.01326" stroke-linecap="round" stroke-linejoin="round"/>
<path d="M112.344 77.1875C112.344 77.1875 114.178 77.9769 114.851 76.2388" stroke="#263238" stroke-width="1.01326" stroke-linecap="round" stroke-linejoin="round"/>
<path d="M110.82 73.5592C111.266 73.1291 111.868 72.876 112.503 72.8516C113.139 72.8271 113.76 73.0331 114.241 73.4276" stroke="#263238" stroke-width="2.02651" stroke-linecap="round" stroke-linejoin="round"/>
<path d="M118.334 83.2879C116.39 82.4846 111.756 80.7118 110.207 81.4528C108.204 82.4015 103.03 85.7254 103.03 88.253C103.03 88.253 99.6971 83.9873 99.6971 82.4015C99.6971 80.8157 101.027 80.324 99.8652 78.2951C98.7031 76.2661 97.0221 76.0791 97.5264 73.7108C97.9869 71.5157 102.599 69.1889 104.835 68.8635C106.232 69.9835 108.012 70.584 109.841 70.5531C113.496 70.5531 116.514 68.3302 116.514 65.5742C116.514 62.8181 113.525 60.6021 109.841 60.6021C109.022 60.5986 108.206 60.713 107.422 60.9415C103.929 60.6991 103.264 63.1505 100.845 64.4939C98.4254 65.8373 96.9052 69.7983 96.9052 69.7983H97.0075C95.2388 72.2497 95.2461 75.2066 97.1683 80.1855C97.1683 80.1855 101.342 90.7736 105.01 92.8303C108.679 94.887 116.017 96.7774 118.02 89.3679C118.506 87.3752 118.613 85.3161 118.334 83.2879Z" fill="#263238" stroke="#263238" stroke-width="1.01326" stroke-linecap="round" stroke-linejoin="round"/>
<path d="M114.339 83.1289C114.339 83.1289 111.84 86.4459 109.004 84.2369" stroke="white" stroke-width="1.01326" stroke-linecap="round" stroke-linejoin="round"/>
<path d="M90.3376 150.146C91.3284 150.739 92.1996 151.494 92.9103 152.376C93.7811 153.506 94.713 154.592 95.7022 155.631C95.7022 155.631 98.0555 155.832 97.8436 156.85C97.6316 157.868 97.2004 158.47 96.1261 158.47C95.0517 158.47 92.6983 156.441 92.6983 156.441L89.2706 161.517C89.2706 161.517 86.0548 159.287 84.9805 156.441L90.3376 150.146Z" fill="white" stroke="#263238" stroke-width="1.01326" stroke-linecap="round" stroke-linejoin="round"/>
<path d="M108.965 114.193C126.015 114.193 139.837 101.097 139.837 84.9429C139.837 68.7883 126.015 55.6924 108.965 55.6924C91.9154 55.6924 78.0938 68.7883 78.0938 84.9429C78.0938 101.097 91.9154 114.193 108.965 114.193Z" stroke="#263238" stroke-width="2.02651" stroke-linecap="round" stroke-linejoin="round"/>
<path d="M136.85 79.2576C136.85 79.2576 134.701 79.0498 134.277 80.2686C133.854 81.4874 133.203 82.7061 133.203 83.5233C133.203 84.3404 133.415 84.9429 134.489 85.1437C135.564 85.3445 136.207 83.9249 136.207 83.9249L136.85 79.2576Z" fill="white" stroke="#263238" stroke-width="1.01326" stroke-linecap="round" stroke-linejoin="round"/>
<path d="M137.286 77.8315C137.286 77.8315 136.219 83.3159 136.219 84.9433C136.265 86.1946 136.714 87.4025 137.505 88.4057C137.896 88.8255 138.423 89.1105 139.003 89.2159L140.078 87.9971C140.078 87.9971 138.791 89.6245 140.502 91.6534C142.212 93.6824 143.505 93.4816 145.004 92.8722C146.502 92.2628 146.933 91.4526 146.29 89.2159C145.647 86.9792 145.223 83.3229 144.792 81.0931C144.361 78.8633 142.862 78.0461 142.007 78.0461C141.152 78.0461 138.806 77.2221 137.286 77.8315Z" fill="white" stroke="#263238" stroke-width="1.01326" stroke-linecap="round" stroke-linejoin="round"/>
<path d="M136.492 86.0858C136.492 86.0858 136.112 84.8255 137.727 84.6454C139.342 84.4654 142.01 84.1953 142.01 84.1953" stroke="#263238" stroke-width="0.506629" stroke-linecap="round" stroke-linejoin="round"/>
<path d="M136.688 82.8455C136.688 82.8455 140.393 81.9383 141.73 82.1184" stroke="#263238" stroke-width="0.506629" stroke-linecap="round" stroke-linejoin="round"/>
<path d="M136.98 80.3171C138.363 80.0844 139.764 79.9639 141.168 79.957" stroke="#263238" stroke-width="0.506629" stroke-linecap="round" stroke-linejoin="round"/>
<path d="M138.211 87.0762C138.504 87.3261 138.856 87.5061 139.237 87.6013C139.619 87.6964 140.018 87.704 140.404 87.6232" stroke="#263238" stroke-width="0.506629" stroke-linecap="round" stroke-linejoin="round"/>
</g>
<defs>
<filter id="filter0_d_2_602" x="0.5" y="0.259766" width="308.317" height="268" filterUnits="userSpaceOnUse" color-interpolation-filters="sRGB">
<feFlood flood-opacity="0" result="BackgroundImageFix"/>
<feColorMatrix in="SourceAlpha" type="matrix" values="0 0 0 0 0 0 0 0 0 0 0 0 0 0 0 0 0 0 127 0" result="hardAlpha"/>
<feOffset dy="4"/>
<feGaussianBlur stdDeviation="2"/>
<feComposite in2="hardAlpha" operator="out"/>
<feColorMatrix type="matrix" values="0 0 0 0 0 0 0 0 0 0 0 0 0 0 0 0 0 0 0.25 0"/>
<feBlend mode="normal" in2="BackgroundImageFix" result="effect1_dropShadow_2_602"/>
<feBlend mode="normal" in="SourceGraphic" in2="effect1_dropShadow_2_602" result="shape"/>
</filter>
</defs>
</svg>
